<svg width="18" height="18" viewBox="0 0 18 18" fill="none" xmlns="http://www.w3.org/2000/svg">
<path d="M16.1589 4.90918H15.1362V11.0455C15.1362 11.608 14.676 12.0683 14.1135 12.0683H7.82366L5.93164 14.1137H11.0453L14.1135 17.1819V14.1137H16.1589C16.7214 14.1137 17.1816 13.6535 17.1816 13.091V5.93191C17.1816 5.36941 16.7214 4.90918 16.1589 4.90918Z" fill="white"/>
<path d="M1.84109 0.818359H12.0684C12.6309 0.818359 13.0911 1.27859 13.0911 1.84109V9.00018C13.0911 9.56268 12.6309 10.0229 12.0684 10.0229H6.95472L3.88654 13.0911V10.0229H1.84109C1.27859 10.0229 0.818359 9.56268 0.818359 9.00018V1.84109C0.818359 1.27859 1.27859 0.818359 1.84109 0.818359Z" fill="white"/>
</svg>
