<svg width="32" height="32" viewBox="0 0 32 32" fill="none" xmlns="http://www.w3.org/2000/svg">
<path d="M8.68633 26.6666C8.47693 26.6659 8.27122 26.6102 8.08904 26.5048C7.90076 26.3968 7.74398 26.2396 7.63474 26.0494C7.52551 25.8591 7.46775 25.6427 7.46738 25.4222V7.16616C7.4509 6.41988 7.72315 5.69705 8.22512 5.15429C8.72709 4.61154 9.41834 4.2926 10.1491 4.2666H21.851C22.5817 4.2926 23.2729 4.61154 23.7749 5.15429C24.2769 5.69705 24.5491 6.41988 24.5326 7.16616V25.4222C24.5313 25.6393 24.4744 25.8524 24.3675 26.0401C24.2606 26.2279 24.1074 26.3838 23.9232 26.4924C23.7379 26.6016 23.5277 26.6591 23.3137 26.6591C23.0997 26.6591 22.8895 26.6016 22.7042 26.4924L15.7928 22.4977L9.2958 26.4799C9.11241 26.5961 8.90209 26.6606 8.68633 26.6666Z" fill="#222222"/>
</svg>
