<svg width="32" height="32" viewBox="0 0 32 32" fill="none" xmlns="http://www.w3.org/2000/svg">
<path d="M24.391 12.6907H23.0849V20.527C23.0849 21.2454 22.4972 21.8331 21.7788 21.8331H13.7465L11.3303 24.4452H17.8606L21.7788 28.3634V24.4452H24.391C25.1093 24.4452 25.697 23.8575 25.697 23.1392V13.9967C25.697 13.2784 25.1093 12.6907 24.391 12.6907Z" fill="#222222"/>
<path d="M6.10611 7.46655H19.1667C19.8851 7.46655 20.4728 8.05428 20.4728 8.77262V17.9151C20.4728 18.6334 19.8851 19.2211 19.1667 19.2211H12.6364L8.71824 23.1393V19.2211H6.10611C5.38778 19.2211 4.80005 18.6334 4.80005 17.9151V8.77262C4.80005 8.05428 5.38778 7.46655 6.10611 7.46655Z" fill="#222222"/>
</svg>
