<!-- Generated by IcoMoon.io -->
<svg version="1.1" xmlns="http://www.w3.org/2000/svg" width="32" height="32" viewBox="0 0 32 32">
<title>Comment-Empty</title>
<path d="M2.545 2c-1.398 0-2.545 1.13-2.545 2.506v10.023c0 1.375 1.148 2.506 2.545 2.506h1.068l0.023 4.295c0.001 0.151 0.050 0.298 0.141 0.42s0.219 0.212 0.365 0.258c0.146 0.046 0.304 0.045 0.45-0.002s0.273-0.139 0.362-0.262l3.409-4.709h2.545v4.653c0 1.376 1.148 2.506 2.545 2.506h10.182l3.409 4.709c0.090 0.123 0.216 0.215 0.362 0.262s0.303 0.048 0.45 0.002c0.146-0.046 0.274-0.136 0.365-0.258s0.14-0.269 0.141-0.42l0.023-4.295h1.068c1.398 0 2.545-1.13 2.545-2.506v-10.022c0-1.376-1.148-2.506-2.545-2.506h-8.364v-4.653c0-1.376-1.148-2.506-2.546-2.506h-16zM2.545 3.432h16c0.617 0 1.091 0.467 1.091 1.074v4.653h-6.182c-1.398 0-2.545 1.13-2.545 2.506v3.937h-2.92c-0.115-0.001-0.228 0.025-0.331 0.075s-0.192 0.124-0.26 0.215l-2.318 3.199-0.011-2.785c-0.003-0.188-0.081-0.367-0.217-0.499s-0.319-0.206-0.51-0.206h-1.795c-0.617 0-1.091-0.467-1.091-1.074v-10.023c0-0.607 0.474-1.074 1.091-1.074zM13.455 10.591h16c0.617 0 1.091 0.466 1.091 1.074v10.022c0 0.607-0.474 1.074-1.091 1.074h-1.796c-0.191 0-0.374 0.074-0.51 0.206s-0.214 0.311-0.217 0.499l-0.011 2.785-2.318-3.199c-0.068-0.091-0.157-0.165-0.26-0.215s-0.216-0.076-0.331-0.075h-10.557c-0.617 0-1.091-0.467-1.091-1.074v-10.022c0-0.608 0.474-1.074 1.091-1.074z"></path>
</svg>
