<svg width="32" height="32" viewBox="0 0 32 32" fill="none" xmlns="http://www.w3.org/2000/svg">
<path fill-rule="evenodd" clip-rule="evenodd" d="M7.8933 5.33325C6.77357 5.33325 5.87677 6.24019 5.87677 7.35992L5.86664 25.5999L9.91997 21.5466H24.1066C25.2264 21.5466 26.1333 20.6397 26.1333 19.5199V7.35992C26.1333 6.24019 25.2264 5.33325 24.1066 5.33325H7.8933ZM11 9C10.4477 9 10 9.44772 10 10C10 10.5523 10.4477 11 11 11H15C15.5523 11 16 10.5523 16 10C16 9.44772 15.5523 9 15 9H11ZM10 13.5C10 12.9477 10.4477 12.5 11 12.5H22C22.5523 12.5 23 12.9477 23 13.5C23 14.0523 22.5523 14.5 22 14.5H11C10.4477 14.5 10 14.0523 10 13.5ZM11 16C10.4477 16 10 16.4477 10 17C10 17.5523 10.4477 18 11 18H22C22.5523 18 23 17.5523 23 17C23 16.4477 22.5523 16 22 16H11Z" fill="black"/>
</svg>
