<!-- Generated by IcoMoon.io -->
<svg version="1.1" xmlns="http://www.w3.org/2000/svg" width="32" height="32" viewBox="0 0 32 32">
<title>Comment-Plus</title>
<path d="M30 0h-28c-0.53 0-1.039 0.211-1.414 0.586s-0.586 0.884-0.586 1.414v20c0 0.53 0.211 1.039 0.586 1.414s0.884 0.586 1.414 0.586h6v8l12-8h10c0.53 0 1.039-0.211 1.414-0.586s0.586-0.884 0.586-1.414v-20c0-0.53-0.211-1.039-0.586-1.414s-0.884-0.586-1.414-0.586zM17 11h6c0.6 0 1 0.4 1 1s-0.4 1-1 1h-6v6c0 0.6-0.4 1-1 1s-1-0.4-1-1v-6h-6c-0.6 0-1-0.4-1-1s0.4-1 1-1h6v-6c0-0.6 0.4-1 1-1s1 0.4 1 1v6z"></path>
</svg>
