<!-- Generated by IcoMoon.io -->
<svg version="1.1" xmlns="http://www.w3.org/2000/svg" width="32" height="32" viewBox="0 0 32 32">
<title>Data-Empty</title>
<path d="M30.887 18.829l-6.477-5.829h-16.821l-6.477 5.829-0.892-0.991 6.857-6.171h17.845l6.857 6.171-0.892 0.991z"></path>
<path d="M30 29.333h-28c-1.103 0-2-0.897-2-2v-9.667h10.667v0.667c0 1.654 1.346 3 3 3h4.667c1.654 0 3-1.346 3-3v-0.667h10.667v9.667c0 1.103-0.897 2-2 2zM1.333 19v8.333c0 0.368 0.299 0.667 0.667 0.667h28c0.368 0 0.667-0.299 0.667-0.667v-8.333h-8.051c-0.322 2.074-2.12 3.667-4.282 3.667h-4.667c-2.163 0-3.961-1.592-4.282-3.667h-8.051z"></path>
<path d="M11.896 6.309l-2.333-3.667-1.125 0.716 2.333 3.667 1.125-0.716z"></path>
<path d="M23.896 3.357l-1.125-0.716-2.333 3.667 1.125 0.716 2.333-3.667z"></path>
<path d="M16.667 2h-1.333v4.333h1.333v-4.333z"></path>
</svg>
