<svg width="18" height="18" viewBox="0 0 18 18" fill="none" xmlns="http://www.w3.org/2000/svg">
<g clip-path="url(#clip0)">
<path d="M6.08017 14.9833C6.19774 15.1058 6.35451 15.1875 6.55048 15.1875C6.70724 15.1875 6.90321 15.1058 7.02078 14.9833L8.82363 13.0229C9.05879 12.737 9.05879 12.3286 8.82363 12.0835L7.02078 10.1231C6.78563 9.83725 6.35451 9.83725 6.08017 10.0823C5.80582 10.3274 5.80582 10.7766 6.04097 11.0625L6.74644 11.8385H3.76781C2.8272 11.8385 2.08254 11.0625 2.08254 10.0823C2.08254 9.1021 2.8272 8.32611 3.76781 8.32611H4.3557C4.70843 8.32611 5.02197 7.99938 5.02197 7.63181C5.02197 7.26423 4.70843 6.9375 4.3557 6.9375H3.76781C2.12173 6.9375 0.75 8.32611 0.75 10.0823C0.75 11.7976 2.08254 13.2271 3.76781 13.2271H6.74644L6.04097 14.0031C5.80582 14.289 5.84501 14.7382 6.08017 14.9833Z" fill="#4F4F4F"/>
<path d="M14.2454 6.9375C13.8943 6.9375 13.5821 7.25893 13.5821 7.62054C13.5821 7.98214 13.8943 8.30357 14.2454 8.30357C15.1819 8.30357 15.9233 9.06696 15.9233 10.0312C15.9233 10.9955 15.1819 11.7589 14.2454 11.7589H10.6946C10.3434 11.7589 10.0312 12.0804 10.0312 12.442C10.0312 12.8036 10.3434 13.125 10.6946 13.125H14.2454C15.8843 13.125 17.25 11.7589 17.25 10.0312C17.25 8.34375 15.9233 6.9375 14.2454 6.9375Z" fill="#4F4F4F"/>
<path d="M6.49486 8.92393C6.8242 8.92393 7.11696 8.61842 7.11696 8.27472V2.31728L10.8496 3.65389V10.4133C10.8496 10.757 11.1423 11.0625 11.4717 11.0625C11.801 11.0625 12.0938 10.757 12.0938 10.4133V3.15744C12.0938 2.89012 11.9108 2.62279 11.6912 2.54642L6.71442 0.789736C6.53145 0.713359 6.31189 0.751547 6.16551 0.866113C6.01913 0.980679 5.90935 1.17162 5.90935 1.40076V8.23654C5.87276 8.61842 6.16551 8.92393 6.49486 8.92393Z" fill="#4F4F4F"/>
<path d="M11.4753 14.1562C11.148 14.1562 10.8569 14.4282 10.8569 14.7342V15.6181L6.45537 16.0941C6.12798 16.1281 5.87334 16.4001 5.90972 16.74C5.94609 17.046 6.20073 17.25 6.52812 17.25H6.60087L11.5481 16.706C11.8755 16.672 12.0938 16.4341 12.0938 16.1281V14.7342C12.0938 14.4282 11.8027 14.1562 11.4753 14.1562Z" fill="#4F4F4F"/>
</g>
<defs>
<clipPath id="clip0">
<path d="M0.75 0.75H17.25V17.25H0.75V0.75Z" fill="white"/>
</clipPath>
</defs>
</svg>
