<!-- Generated by IcoMoon.io -->
<svg version="1.1" xmlns="http://www.w3.org/2000/svg" width="32" height="32" viewBox="0 0 32 32">
<title>Flip-Image</title>
<path d="M10.337 27.604c0.228 0.238 0.532 0.396 0.912 0.396 0.304 0 0.684-0.158 0.912-0.396l3.496-3.802c0.456-0.554 0.456-1.347 0-1.822l-3.496-3.802c-0.456-0.554-1.292-0.554-1.824-0.079s-0.532 1.347-0.076 1.901l1.368 1.505h-5.777c-1.824 0-3.268-1.505-3.268-3.406s1.444-3.406 3.268-3.406h1.14c0.684 0 1.292-0.634 1.292-1.347s-0.608-1.347-1.292-1.347h-1.14c-3.192 0-5.853 2.693-5.853 6.099 0 3.327 2.584 6.099 5.853 6.099h5.777l-1.368 1.505c-0.456 0.554-0.38 1.426 0.076 1.901z"></path>
<path d="M26.173 12c-0.681 0-1.287 0.623-1.287 1.325s0.605 1.325 1.287 1.325c1.816 0 3.254 1.481 3.254 3.351s-1.438 3.351-3.254 3.351h-6.887c-0.681 0-1.286 0.623-1.286 1.325s0.605 1.325 1.286 1.325h6.887c3.178 0 5.827-2.649 5.827-6 0-3.273-2.573-6-5.827-6z"></path>
<path d="M11.142 15.852c0.639 0 1.207-0.592 1.207-1.259v-11.554l7.239 2.592v13.109c0 0.667 0.568 1.259 1.207 1.259s1.206-0.593 1.206-1.259v-14.072c0-0.518-0.355-1.037-0.781-1.185l-9.652-3.407c-0.355-0.148-0.781-0.074-1.065 0.148s-0.497 0.593-0.497 1.037v13.257c-0.071 0.741 0.497 1.333 1.136 1.333z"></path>
<path d="M20.801 26c-0.635 0-1.199 0.527-1.199 1.121v1.714l-8.536 0.923c-0.635 0.066-1.129 0.593-1.058 1.253 0.071 0.593 0.564 0.989 1.199 0.989h0.141l9.595-1.055c0.635-0.066 1.058-0.527 1.058-1.121v-2.703c0-0.593-0.564-1.121-1.199-1.121z"></path>
</svg>
