<svg width="32" height="32" viewBox="0 0 32 32" fill="none" xmlns="http://www.w3.org/2000/svg">
<path d="M17.5601 16.7197H14.3801C13.9601 16.7197 13.6001 17.0797 13.6001 17.4997V24.6997C13.6001 25.1197 13.9601 25.4797 14.3801 25.4797H17.5601C17.9801 25.4797 18.3401 25.1197 18.3401 24.6997V17.4997C18.4001 17.0797 18.0401 16.7197 17.5601 16.7197Z" fill="#222222"/>
<path d="M10.36 19.96H7.18002C6.76002 19.96 6.40002 20.32 6.40002 20.74V24.76C6.40002 25.1799 6.76002 25.54 7.18002 25.54H10.36C10.78 25.54 11.14 25.1799 11.14 24.76V20.74C11.2 20.32 10.84 19.96 10.36 19.96Z" fill="#222222"/>
<path d="M24.76 13.5398H21.58C21.16 13.5398 20.8 13.8998 20.8 14.3198V24.6998C20.8 25.1198 21.16 25.4798 21.58 25.4798H24.76C25.18 25.4798 25.54 25.1198 25.54 24.6998V14.3198C25.6 13.8998 25.24 13.5398 24.76 13.5398Z" fill="#222222"/>
<path d="M16.54 14.1399L21.58 9.0999V11.9799H23.2V7.1799C23.2 6.7599 22.84 6.3999 22.42 6.3999H17.62V8.01991H20.5L16.06 12.4599L13.42 9.81991C13.12 9.51991 12.58 9.51991 12.28 9.81991L8.26001 13.8399L9.40001 14.9799L12.82 11.5599L15.46 14.1999C15.76 14.4399 16.24 14.4399 16.54 14.1399Z" fill="#222222"/>
</svg>
