<!-- Generated by IcoMoon.io -->
<svg version="1.1" xmlns="http://www.w3.org/2000/svg" width="32" height="32" viewBox="0 0 32 32">
<title>Infographic</title>
<path d="M18.275 17.050h-4.637c-0.613 0-1.137 0.525-1.137 1.137v10.5c0 0.613 0.525 1.138 1.137 1.138h4.637c0.613 0 1.137-0.525 1.137-1.138v-10.5c0.087-0.613-0.438-1.137-1.137-1.137z"></path>
<path d="M7.775 21.775h-4.638c-0.612 0-1.138 0.525-1.138 1.137v5.862c0 0.613 0.525 1.138 1.138 1.138h4.638c0.613 0 1.137-0.525 1.137-1.138v-5.862c0.088-0.612-0.438-1.137-1.138-1.137z"></path>
<path d="M28.775 12.413h-4.637c-0.613 0-1.138 0.525-1.138 1.137v15.137c0 0.613 0.525 1.138 1.138 1.138h4.637c0.612 0 1.137-0.525 1.137-1.138v-15.137c0.088-0.613-0.437-1.137-1.137-1.137z"></path>
<path d="M16.786 13.287l7.35-7.35v4.2h2.362v-7c0-0.612-0.525-1.137-1.137-1.137h-7v2.363h4.2l-6.475 6.475-3.85-3.85c-0.438-0.438-1.225-0.438-1.662 0l-5.862 5.862 1.663 1.662 4.988-4.987 3.85 3.85c0.438 0.35 1.138 0.35 1.575-0.088z"></path>
</svg>
