<svg width="18" height="17" viewBox="0 0 18 17" fill="none" xmlns="http://www.w3.org/2000/svg">
<path d="M12.6187 0H6.24365C3.31009 0 0.931152 2.37894 0.931152 5.3125V11.6875C0.931152 14.6211 3.31009 17 6.24365 17H12.6187C15.5522 17 17.9312 14.6211 17.9312 11.6875V5.3125C17.9312 2.37894 15.5522 0 12.6187 0ZM16.3374 11.6875C16.3374 13.7381 14.6693 15.4062 12.6187 15.4062H6.24365C4.19303 15.4062 2.5249 13.7381 2.5249 11.6875V5.3125C2.5249 3.26188 4.19303 1.59375 6.24365 1.59375H12.6187C14.6693 1.59375 16.3374 3.26188 16.3374 5.3125V11.6875Z" fill="#E5E5E5"/>
<path d="M9.43115 4.25C7.08409 4.25 5.18115 6.15294 5.18115 8.5C5.18115 10.8471 7.08409 12.75 9.43115 12.75C11.7782 12.75 13.6812 10.8471 13.6812 8.5C13.6812 6.15294 11.7782 4.25 9.43115 4.25ZM9.43115 11.1562C7.96703 11.1562 6.7749 9.96413 6.7749 8.5C6.7749 7.03481 7.96703 5.84375 9.43115 5.84375C10.8953 5.84375 12.0874 7.03481 12.0874 8.5C12.0874 9.96413 10.8953 11.1562 9.43115 11.1562Z" fill="#E5E5E5"/>
<path d="M14.2124 4.25C14.5058 4.25 14.7437 4.01215 14.7437 3.71875C14.7437 3.42535 14.5058 3.1875 14.2124 3.1875C13.919 3.1875 13.6812 3.42535 13.6812 3.71875C13.6812 4.01215 13.919 4.25 14.2124 4.25Z" fill="#E5E5E5"/>
</svg>
