<svg width="32" height="32" viewBox="0 0 32 32" fill="none" xmlns="http://www.w3.org/2000/svg">
<path d="M17.2364 14.0917C17.0771 14.0917 16.9177 14.0121 16.7584 13.9324C16.36 13.6933 16.2803 13.2153 16.599 12.8169C17.1568 12.0201 17.4755 11.0639 17.4755 10.1078C17.4755 7.47834 15.3242 5.32699 12.6947 5.32699C10.0653 5.32699 7.91396 7.47834 7.91396 10.1078C7.91396 11.0639 8.23266 12.0201 8.79041 12.8169C9.02945 13.2153 8.94976 13.6933 8.63105 13.9324C8.23265 14.1714 7.7546 14.0917 7.51556 13.773C6.79844 12.7372 6.40002 11.4623 6.40002 10.1078C6.40002 6.60186 9.26849 3.7334 12.7744 3.7334C16.2803 3.7334 19.1488 6.60186 19.1488 10.1078C19.1488 11.3826 18.7504 12.6575 18.0332 13.773C17.7145 14.0121 17.4755 14.0917 17.2364 14.0917Z" fill="#1F1F1F"/>
<path d="M20.7424 17.6772L14.2884 16.482V10.9044C14.2884 10.0279 13.5713 9.31079 12.6948 9.31079C11.8183 9.31079 11.1012 10.0279 11.1012 10.9044V21.2627H10.3044V18.8724H9.5076C8.63112 18.8724 7.914 19.5895 7.914 20.4659V22.7767C7.914 23.8922 8.31239 24.928 8.94983 25.7248L11.1012 28.4339H21.4596L22.7344 20.3863C22.8938 19.1114 22.0173 17.9162 20.7424 17.6772Z" fill="#1F1F1F"/>
</svg>
