<svg width="32" height="32" viewBox="0 0 32 32" fill="none" xmlns="http://www.w3.org/2000/svg">
<path d="M8 15.7155L12.5338 3.19995H14.045C14.4458 3.19995 14.8302 3.36478 15.1136 3.65817C15.397 3.95156 15.5563 4.34948 15.5563 4.7644V12.5866H23.111C23.5769 12.5866 24.0365 12.6982 24.4539 12.9125C24.8712 13.1268 25.2351 13.4381 25.517 13.822C25.799 14.206 25.9914 14.6522 26.0792 15.1259C26.167 15.5995 26.1478 16.0878 26.0232 16.5525L23.9241 24.3747C23.7473 25.0337 23.3669 25.6146 22.8409 26.0285C22.315 26.4424 21.6725 26.6666 21.0119 26.6666H8V15.7155Z" fill="#222222"/>
<path fill-rule="evenodd" clip-rule="evenodd" d="M12.0636 3.02966C12.1353 2.83176 12.3233 2.69995 12.5338 2.69995H14.045C14.5841 2.69995 15.0975 2.92181 15.4732 3.31078C15.8484 3.69916 16.0563 4.22234 16.0563 4.7644V12.0866H23.111C23.6569 12.0866 24.1947 12.2174 24.6822 12.4677C25.1697 12.7179 25.593 13.0806 25.9201 13.5261C26.2471 13.9715 26.4694 14.4879 26.5708 15.0347C26.6722 15.5816 26.6501 16.1452 26.5061 16.682L24.407 24.5042C24.407 24.5042 24.407 24.5042 24.407 24.5042C24.2029 25.2653 23.7627 25.9394 23.1502 26.4214C22.5373 26.9037 21.7863 27.1666 21.0119 27.1666H8C7.72386 27.1666 7.5 26.9428 7.5 26.6666V15.7155C7.5 15.6574 7.51012 15.5998 7.52989 15.5452L12.0636 3.02966ZM12.8844 3.69995L8.5 15.8033V26.1666H21.0118C21.5588 26.1666 22.0927 25.9812 22.5317 25.6356C22.9711 25.2898 23.2918 24.8021 23.4411 24.2452L25.5403 16.423C25.5403 16.4229 25.5402 16.423 25.5403 16.423C25.6455 16.0303 25.6618 15.6174 25.5876 15.217C25.5133 14.8165 25.3509 14.4405 25.114 14.118C24.8772 13.7955 24.5728 13.5356 24.2255 13.3573C23.8782 13.179 23.4969 13.0866 23.111 13.0866C23.111 13.0866 23.111 13.0866 23.111 13.0866H15.5563C15.2801 13.0866 15.0563 12.8628 15.0563 12.5866V4.7644C15.0563 4.47661 14.9457 4.20395 14.754 4.00555C14.5629 3.80774 14.3075 3.69995 14.045 3.69995H12.8844Z" fill="#222222"/>
</svg>
