<svg width="32" height="32" viewBox="0 0 32 32" fill="none" xmlns="http://www.w3.org/2000/svg">
<path d="M9.18962 16.0972C9.40944 15.878 9.70723 15.7548 10.0177 15.7548C10.3282 15.7548 10.6259 15.878 10.8458 16.0972C10.9544 16.2057 11.0405 16.3345 11.0993 16.4762C11.1581 16.618 11.1883 16.77 11.1883 16.9235C11.1883 17.0769 11.1581 17.2289 11.0993 17.3707C11.0405 17.5125 10.9544 17.6413 10.8458 17.7497L8.36155 20.2303C8.14418 20.4472 7.97173 20.7049 7.85406 20.9886C7.7364 21.2723 7.67583 21.5763 7.67583 21.8834C7.67583 22.1905 7.7364 22.4946 7.85406 22.7783C7.97173 23.062 8.14418 23.3196 8.36155 23.5366C8.80118 23.975 9.39677 24.2213 10.0177 24.2213C10.6386 24.2213 11.2342 23.975 11.6738 23.5366L17.4691 17.7497C17.5777 17.6413 17.6639 17.5125 17.7227 17.3707C17.7814 17.2289 17.8117 17.0769 17.8117 16.9235C17.8117 16.77 17.7814 16.618 17.7227 16.4762C17.6639 16.3345 17.5777 16.2057 17.4691 16.0972C17.3604 15.9887 17.2741 15.8599 17.2152 15.718C17.1563 15.5761 17.126 15.424 17.126 15.2703C17.126 15.1167 17.1563 14.9646 17.2152 14.8227C17.2741 14.6808 17.3604 14.552 17.4691 14.4435C17.6889 14.2242 17.9867 14.1011 18.2972 14.1011C18.6077 14.1011 18.9055 14.2242 19.1253 14.4435C19.4514 14.7689 19.7102 15.1554 19.8867 15.581C20.0633 16.0065 20.1542 16.4627 20.1542 16.9235C20.1542 17.3842 20.0633 17.8404 19.8867 18.2659C19.7102 18.6915 19.4514 19.078 19.1253 19.4035L13.3288 25.1903C12.4497 26.0676 11.2584 26.5603 10.0165 26.5603C8.77453 26.5603 7.58331 26.0676 6.7042 25.1903C6.26946 24.7564 5.92455 24.2411 5.68922 23.6737C5.45389 23.1064 5.33276 22.4982 5.33276 21.884C5.33276 21.2698 5.45389 20.6617 5.68922 20.0943C5.92455 19.527 6.26946 19.0117 6.7042 18.5778L9.18962 16.096V16.0972ZM23.2366 15.2631C23.0168 15.4823 22.719 15.6055 22.4086 15.6055C22.0981 15.6055 21.8003 15.4823 21.5805 15.2631C21.4719 15.1546 21.3857 15.0258 21.327 14.8841C21.2682 14.7423 21.2379 14.5903 21.2379 14.4368C21.2379 14.2834 21.2682 14.1314 21.327 13.9896C21.3857 13.8478 21.4719 13.719 21.5805 13.6106L24.0647 11.13C24.2821 10.9131 24.4545 10.6554 24.5722 10.3717C24.6898 10.088 24.7504 9.78396 24.7504 9.47686C24.7504 9.16976 24.6898 8.86568 24.5722 8.58202C24.4545 8.29835 24.2821 8.04068 24.0647 7.82374C23.6251 7.38525 23.0295 7.13901 22.4086 7.13901C21.7876 7.13901 21.192 7.38525 20.7524 7.82374L14.9583 13.6106C14.8497 13.719 14.7636 13.8478 14.7048 13.9896C14.646 14.1314 14.6158 14.2834 14.6158 14.4368C14.6158 14.5903 14.646 14.7423 14.7048 14.8841C14.7636 15.0258 14.8497 15.1546 14.9583 15.2631C15.0671 15.3716 15.1534 15.5004 15.2123 15.6423C15.2712 15.7842 15.3015 15.9363 15.3015 16.09C15.3015 16.2436 15.2712 16.3957 15.2123 16.5376C15.1534 16.6795 15.0671 16.8083 14.9583 16.9168C14.7385 17.1361 14.4407 17.2592 14.1302 17.2592C13.8198 17.2592 13.522 17.1361 13.3022 16.9168C12.976 16.5914 12.7173 16.2049 12.5407 15.7793C12.3642 15.3538 12.2733 14.8976 12.2733 14.4368C12.2733 13.9761 12.3642 13.5199 12.5407 13.0944C12.7173 12.6688 12.976 12.2823 13.3022 11.9568L19.0987 6.17002C19.9778 5.29274 21.169 4.80005 22.411 4.80005C23.6529 4.80005 24.8441 5.29274 25.7233 6.17002C26.158 6.60389 26.5029 7.11923 26.7382 7.68656C26.9736 8.25389 27.0947 8.86206 27.0947 9.47626C27.0947 10.0905 26.9736 10.6986 26.7382 11.266C26.5029 11.8333 26.158 12.3486 25.7233 12.7825L23.2366 15.2643V15.2631Z" fill="#222222"/>
</svg>
