<!-- Generated by IcoMoon.io -->
<svg version="1.1" xmlns="http://www.w3.org/2000/svg" width="32" height="32" viewBox="0 0 32 32">
<title>Mail</title>
<path d="M17.416 18.605c-0.436 0.257-0.922 0.392-1.416 0.392s-0.981-0.135-1.416-0.392l-14.559-8.605c-0.005 0.045-0.024 0.086-0.024 0.132v18.764c0 0.293 0.105 0.574 0.293 0.781s0.442 0.323 0.707 0.323h30c0.265 0 0.52-0.116 0.707-0.323s0.293-0.488 0.293-0.781v-18.764c0-0.046-0.019-0.086-0.024-0.131l-14.56 8.604z"></path>
<path d="M31 4h-30c-0.265 0-0.52 0.123-0.707 0.341s-0.293 0.514-0.293 0.823v2.327c0 0.211 0.049 0.417 0.142 0.598s0.226 0.329 0.386 0.428l15 9.345c0.145 0.091 0.307 0.138 0.472 0.138s0.327-0.047 0.472-0.138l15-9.345c0.16-0.099 0.293-0.247 0.386-0.428s0.142-0.387 0.142-0.598v-2.327c0-0.309-0.105-0.605-0.293-0.823s-0.442-0.341-0.707-0.341z"></path>
</svg>
