<!-- Generated by IcoMoon.io -->
<svg version="1.1" xmlns="http://www.w3.org/2000/svg" width="32" height="32" viewBox="0 0 32 32">
<title>New-Tab</title>
<path d="M21.647 3.765c-1.040 0-1.883-0.843-1.883-1.883s0.843-1.882 1.883-1.882h8.471c1.039 0 1.882 0.844 1.882 1.882v8.471c0 1.039-0.843 1.882-1.882 1.882s-1.882-0.843-1.882-1.882v-3.927l-10.905 10.904c-0.735 0.735-1.927 0.735-2.662 0s-0.735-1.927 0-2.662l10.904-10.904h-3.927zM28.235 17.883c0-1.040 0.843-1.882 1.882-1.882s1.882 0.843 1.882 1.882v12.235c0 1.039-0.843 1.882-1.882 1.882h-28.235c-1.039 0-1.882-0.843-1.882-1.882v-28.235c0-1.039 0.843-1.882 1.882-1.882h12.235c1.040 0 1.883 0.843 1.883 1.882s-0.843 1.883-1.883 1.883h-10.352v24.47h24.47v-10.353z"></path>
</svg>
