<svg width="32" height="32" viewBox="0 0 32 32" fill="none" xmlns="http://www.w3.org/2000/svg">
<path d="M11.6353 28.7999C11.8972 28.8008 12.1559 28.7418 12.3925 28.6272C12.629 28.5126 12.8375 28.3452 13.0024 28.1375L21.468 17.3957C21.7257 17.0753 21.8667 16.6735 21.8667 16.2588C21.8667 15.8442 21.7257 15.4423 21.468 15.122L12.7045 4.38015C12.407 4.01454 11.9795 3.78462 11.516 3.74097C11.0525 3.69733 10.5911 3.84353 10.2332 4.14741C9.87524 4.4513 9.65015 4.88797 9.60742 5.36138C9.56469 5.83478 9.70782 6.30613 10.0053 6.67174L17.8399 16.2678L10.2682 25.8638C10.0539 26.1266 9.91775 26.4466 9.8759 26.786C9.83404 27.1253 9.88823 27.4698 10.0321 27.7787C10.1759 28.0876 10.4033 28.3479 10.6874 28.5289C10.9716 28.7099 11.3005 28.8039 11.6353 28.7999Z" fill="black"/>
</svg>
