<svg width="32" height="32" viewBox="0 0 32 32" fill="none" xmlns="http://www.w3.org/2000/svg">
<path d="M23.1112 5.33325H8.88893C7.94594 5.33325 7.04157 5.70785 6.37477 6.37465C5.70798 7.04145 5.33337 7.94582 5.33337 8.88881V23.111C5.33337 24.054 5.70798 24.9584 6.37477 25.6252C7.04157 26.292 7.94594 26.6666 8.88893 26.6666H23.1112C24.0541 26.6666 24.9585 26.292 25.6253 25.6252C26.2921 24.9584 26.6667 24.054 26.6667 23.111V8.88881C26.6667 7.94582 26.2921 7.04145 25.6253 6.37465C24.9585 5.70785 24.0541 5.33325 23.1112 5.33325ZM8.88893 7.70362H23.1112C23.4255 7.70362 23.7269 7.82849 23.9492 8.05076C24.1715 8.27302 24.2963 8.57448 24.2963 8.88881V18.797L20.5037 15.5614C19.9161 15.0779 19.1788 14.8135 18.4178 14.8135C17.6568 14.8135 16.9195 15.0779 16.3319 15.5614L7.70374 22.7555V8.88881C7.70374 8.57448 7.82861 8.27302 8.05088 8.05076C8.27314 7.82849 8.5746 7.70362 8.88893 7.70362Z" fill="#222222"/>
<path d="M11.2591 13.6293C12.2409 13.6293 13.0369 12.8333 13.0369 11.8515C13.0369 10.8697 12.2409 10.0737 11.2591 10.0737C10.2773 10.0737 9.48132 10.8697 9.48132 11.8515C9.48132 12.8333 10.2773 13.6293 11.2591 13.6293Z" fill="#222222"/>
</svg>
