<!-- Generated by IcoMoon.io -->
<svg version="1.1" xmlns="http://www.w3.org/2000/svg" width="32" height="32" viewBox="0 0 32 32">
<title>Pin</title>
<path d="M0.365 29.5l8.38-9.81 3.555 3.555-9.825 8.38c-0.28 0.234-0.635 0.359-1 0.35-0.284-0.006-0.561-0.092-0.798-0.249s-0.425-0.378-0.541-0.637c-0.116-0.259-0.157-0.547-0.116-0.828s0.16-0.545 0.345-0.761zM19.32 25.5c0.223 0.213 0.503 0.356 0.806 0.413s0.616 0.023 0.9-0.096c0.284-0.119 0.528-0.318 0.701-0.573s0.268-0.555 0.273-0.863v-5.415l8.905-5.4c0.241-0.14 0.451-0.328 0.615-0.554s0.279-0.483 0.338-0.755c0.059-0.273 0.060-0.555 0.003-0.828s-0.17-0.531-0.332-0.758l-10.185-10.17c-0.227-0.162-0.485-0.275-0.758-0.332s-0.555-0.055-0.828 0.003c-0.273 0.059-0.53 0.174-0.755 0.338s-0.414 0.374-0.554 0.615l-5.41 8.875h-5.41c-0.311 0.001-0.615 0.094-0.874 0.267s-0.461 0.418-0.581 0.704c-0.12 0.287-0.154 0.603-0.096 0.908s0.204 0.588 0.421 0.811l12.82 12.81z"></path>
</svg>
