<svg width="32" height="32" viewBox="0 0 32 32" fill="none" xmlns="http://www.w3.org/2000/svg">
<path d="M10.8818 4.26649C11.8353 4.26539 12.7602 4.58301 13.5008 5.16596L23.775 13.398C24.1779 13.7094 24.5032 14.1049 24.7269 14.5551C24.9505 15.0054 25.0667 15.4988 25.0667 15.9987C25.0667 16.4985 24.9505 16.992 24.7269 17.4422C24.5032 17.8925 24.1779 18.288 23.775 18.5993L13.5008 26.8314C12.8822 27.3124 12.1369 27.6151 11.3498 27.705C10.5626 27.7949 9.76525 27.6684 9.04859 27.3398C8.42575 27.0733 7.89509 26.6385 7.52 26.0872C7.14491 25.5358 6.94124 24.8914 6.93331 24.2308L6.93332 7.7666C6.94124 7.10597 7.14491 6.46151 7.52 5.91021C7.89509 5.3589 8.42575 4.92404 9.04859 4.65757C9.62449 4.40337 10.2492 4.27011 10.8818 4.26649Z" fill="#222222"/>
</svg>
