<svg width="32" height="32" viewBox="0 0 32 32" fill="none" xmlns="http://www.w3.org/2000/svg">
<path d="M20.3647 28.7999C20.1029 28.8008 19.8441 28.7418 19.6076 28.6272C19.371 28.5126 19.1626 28.3452 18.9976 28.1375L10.5321 17.3957C10.2743 17.0753 10.1334 16.6735 10.1334 16.2588C10.1334 15.8442 10.2743 15.4423 10.5321 15.122L19.2956 4.38015C19.5931 4.01454 20.0206 3.78462 20.484 3.74097C20.9475 3.69733 21.4089 3.84353 21.7669 4.14741C22.1248 4.4513 22.3499 4.88797 22.3926 5.36138C22.4353 5.83478 22.2922 6.30613 21.9947 6.67174L14.1602 16.2678L21.7318 25.8638C21.9461 26.1266 22.0823 26.4466 22.1241 26.786C22.166 27.1253 22.1118 27.4698 21.968 27.7787C21.8242 28.0876 21.5967 28.3479 21.3126 28.5289C21.0285 28.7099 20.6995 28.8039 20.3647 28.7999Z" fill="black"/>
</svg>
