<svg width="32" height="32" viewBox="0 0 32 32" fill="none" xmlns="http://www.w3.org/2000/svg">
<path d="M18.0621 10.4115C18.6458 9.82931 19.4433 9.59903 20.2005 9.71246C20.2033 9.71246 20.2046 9.71246 20.2074 9.71246C20.4719 9.68718 20.7131 9.57784 20.9311 9.42546L17.443 5.93699C16.6365 5.13201 15.3298 5.13201 14.5241 5.93699L10.865 9.59561C10.7208 9.37421 10.6197 9.13299 10.5937 8.8699C10.5937 8.86717 10.5924 8.86443 10.5924 8.8617C10.7167 8.041 10.4652 7.17452 9.83445 6.54311C8.77857 5.48735 7.06592 5.48735 6.01004 6.54311C4.95279 7.59888 4.95279 9.31134 6.01004 10.3671C6.64152 10.9985 7.5081 11.2507 8.32888 11.1256C8.33161 11.127 8.33435 11.127 8.33708 11.127C8.6002 11.1523 8.84144 11.2541 9.06356 11.3976L5.40385 15.0562C4.59878 15.8626 4.59878 17.1691 5.40385 17.9748L8.8927 21.4626C9.0451 21.2453 9.15445 21.0034 9.17974 20.7403C9.17974 20.7375 9.17974 20.7348 9.1811 20.7321C9.06629 19.9756 9.29729 19.1775 9.87887 18.5953C10.8534 17.6208 12.4308 17.6208 13.4053 18.5939C14.3785 19.5683 14.3785 21.1455 13.4053 22.1199C12.8217 22.7021 12.0241 22.9338 11.2669 22.819C11.2642 22.819 11.2628 22.8204 11.2587 22.8204C10.9956 22.8443 10.7557 22.9536 10.5363 23.1074L14.0252 26.5952C14.8302 27.4015 16.1369 27.4015 16.9434 26.5952L20.6024 22.9365C20.7466 23.1566 20.8491 23.3985 20.873 23.6616C20.873 23.6643 20.8744 23.667 20.8744 23.6698C20.75 24.4905 21.0015 25.3569 21.6323 25.9897C22.6882 27.0455 24.4008 27.0455 25.4567 25.9897C26.514 24.9326 26.514 23.2201 25.4567 22.1644C24.8252 21.5329 23.9594 21.2822 23.1379 21.4065C23.1351 21.4065 23.1324 21.4052 23.1297 21.4052C22.8666 21.3812 22.6253 21.2794 22.4032 21.1346L26.0629 17.4759C26.868 16.6696 26.868 15.3644 26.0629 14.5581L22.5741 11.0696C22.4217 11.2883 22.3123 11.5288 22.287 11.7932C22.287 11.796 22.287 11.7973 22.287 11.8001C22.4005 12.5565 22.1695 13.3561 21.5879 13.9383C20.6133 14.9113 19.036 14.9113 18.0614 13.9383C17.0889 12.9645 17.0889 11.3853 18.0621 10.4115Z" fill="#1F1F1F"/>
</svg>
