<svg width="32" height="32" viewBox="0 0 32 32" fill="none" xmlns="http://www.w3.org/2000/svg">
<path d="M3.19995 19.0984L5.64581 18.7928C5.72374 19.435 5.93356 19.9259 6.27526 20.2656C6.61696 20.6052 7.0306 20.775 7.51617 20.775C8.03772 20.775 8.47534 20.5713 8.82903 20.1637C9.18871 19.7561 9.36855 19.2065 9.36855 18.5149C9.36855 17.8603 9.1977 17.3416 8.856 16.9587C8.5143 16.5758 8.09767 16.3844 7.6061 16.3844C7.28238 16.3844 6.89572 16.4492 6.44611 16.5789L6.72487 14.4577C7.40827 14.4762 7.92981 14.3249 8.2895 14.0038C8.64918 13.6765 8.82903 13.2442 8.82903 12.707C8.82903 12.25 8.69714 11.8857 8.43337 11.614C8.1696 11.3423 7.81891 11.2064 7.38129 11.2064C6.94967 11.2064 6.58099 11.3608 6.27526 11.6695C5.96953 11.9783 5.78369 12.4291 5.71775 13.0219L3.38879 12.6144C3.55064 11.7931 3.79343 11.1385 4.11715 10.6506C4.44686 10.1566 4.90246 9.77064 5.48395 9.49275C6.07144 9.20868 6.72786 9.06665 7.45323 9.06665C8.69414 9.06665 9.68927 9.47422 10.4386 10.2894C11.0561 10.9563 11.3648 11.7097 11.3648 12.5495C11.3648 13.7414 10.7324 14.6924 9.46747 15.4025C10.2228 15.5693 10.8253 15.9429 11.2749 16.5233C11.7305 17.1038 11.9583 17.8047 11.9583 18.626C11.9583 19.8179 11.5357 20.8337 10.6904 21.6736C9.84514 22.5134 8.79306 22.9333 7.53416 22.9333C6.3412 22.9333 5.35207 22.5813 4.56676 21.8773C3.78144 21.1672 3.32584 20.2409 3.19995 19.0984Z" fill="#222222"/>
<path d="M14.0804 22.7017V20.0988H16.6072V22.7017H14.0804Z" fill="#222222"/>
<path d="M27.2 20.2841V22.7017H18.3427C18.4386 21.7878 18.7264 20.9233 19.2059 20.1081C19.6855 19.2868 20.6327 18.1999 22.0475 16.8475C23.1865 15.7545 23.8849 15.0135 24.1426 14.6244C24.4903 14.0872 24.6642 13.5561 24.6642 13.0312C24.6642 12.4507 24.5113 12.0061 24.2056 11.6973C23.9058 11.3824 23.4892 11.2249 22.9557 11.2249C22.4281 11.2249 22.0085 11.3886 21.6968 11.7159C21.385 12.0432 21.2052 12.5866 21.1572 13.3461L18.6394 13.0868C18.7893 11.6541 19.2599 10.6259 20.0512 10.0022C20.8425 9.3785 21.8316 9.06665 23.0186 9.06665C24.3195 9.06665 25.3416 9.42791 26.0849 10.1504C26.8283 10.8729 27.2 11.7714 27.2 12.8459C27.2 13.4573 27.092 14.0409 26.8762 14.5966C26.6664 15.1462 26.3307 15.7236 25.8691 16.3288C25.5634 16.7302 25.0119 17.3076 24.2146 18.061C23.4173 18.8144 22.9107 19.3146 22.6949 19.5616C22.4851 19.8086 22.3142 20.0494 22.1823 20.2841H27.2Z" fill="#222222"/>
</svg>
