<svg width="32" height="32" viewBox="0 0 32 32" fill="none" xmlns="http://www.w3.org/2000/svg">
<path fill-rule="evenodd" clip-rule="evenodd" d="M9.90477 4.7666C9.39412 4.7666 8.90225 4.97359 8.53796 5.34547C8.17332 5.7177 7.96667 6.22472 7.96667 6.75549V25.6832L15.7054 20.0404C15.881 19.9124 16.1191 19.9124 16.2946 20.0404L24.0333 25.6832V6.75549C24.0333 6.22472 23.8267 5.7177 23.4621 5.34547C23.0978 4.97359 22.6059 4.7666 22.0952 4.7666H9.90477ZM7.8236 4.64569C8.37377 4.08406 9.12217 3.7666 9.90477 3.7666H22.0952C22.8778 3.7666 23.6262 4.08406 24.1764 4.64569C24.7262 5.20697 25.0333 5.96608 25.0333 6.75549V26.6666C25.0333 26.8548 24.9277 27.027 24.76 27.1123C24.5922 27.1976 24.3908 27.1815 24.2388 27.0706L16 21.0632L7.76126 27.0706C7.60922 27.1815 7.4078 27.1976 7.24006 27.1123C7.07232 27.027 6.96667 26.8548 6.96667 26.6666V6.75549C6.96667 5.96608 7.27377 5.20697 7.8236 4.64569Z" fill="#222222"/>
</svg>
