<svg width="32" height="32" viewBox="0 0 32 32" fill="none" xmlns="http://www.w3.org/2000/svg">
<path d="M25.1696 6.29544C24.9732 6.09936 24.7252 5.96303 24.4544 5.90228C24.1836 5.84152 23.9012 5.85884 23.6399 5.95222L3.10708 13.2859C2.83638 13.3823 2.6 13.5561 2.42734 13.7858C2.25469 14.0155 2.15339 14.2909 2.13604 14.5778C2.11869 14.8646 2.18606 15.1502 2.32977 15.3991C2.47347 15.6479 2.68718 15.849 2.94428 15.9773L9.67024 19.3391L18.2661 13.1993L12.1254 21.7973L15.4869 28.5237C15.7377 29.021 16.2466 29.3334 16.7995 29.3334L16.889 29.3304C17.176 29.3132 17.4517 29.212 17.6817 29.0394C17.9117 28.8668 18.0859 28.6303 18.1825 28.3595L25.5157 7.82524C25.7049 7.29281 25.57 6.69585 25.1696 6.29544Z" fill="#222222"/>
</svg>
