<svg width="32" height="32" viewBox="0 0 32 32" fill="none" xmlns="http://www.w3.org/2000/svg">
<path fill-rule="evenodd" clip-rule="evenodd" d="M18.6047 17.1146H19.768V22.6539L29.3333 13.1937L19.768 3.7334V6.50304C19.768 9.26194 19.7663 9.27351 19.3803 9.27351L19.2541 9.29169C17.5493 9.58593 15.9155 10.0827 14.5132 10.7042C10.48 12.5468 7.55191 15.7762 5.82871 20.2663C5.67574 20.6649 5.53228 21.0734 5.39837 21.4918C5.3703 21.5795 5.34264 21.6676 5.31541 21.7562C5.31492 21.7578 5.31442 21.7594 5.31392 21.761C5.31164 21.7685 5.30936 21.7759 5.30708 21.7833C5.30532 21.7891 5.30356 21.7949 5.3018 21.8006C5.24625 21.9825 5.19248 22.1662 5.14048 22.3518C5.14045 22.3519 5.14051 22.3517 5.14048 22.3518C5.14039 22.3521 5.14021 22.3527 5.14011 22.3531L4.79999 23.5689L5.94822 22.3671L5.95909 22.3547C6.06131 22.2448 6.16497 22.1362 6.27002 22.0291C6.27374 22.0254 6.27747 22.0216 6.28119 22.0178C7.32914 20.9514 8.51606 20.0272 9.81097 19.2697C9.81645 19.2664 9.82193 19.2632 9.82741 19.26C9.82757 19.2599 9.82726 19.2601 9.82741 19.26C9.86563 19.2377 9.90442 19.2153 9.94282 19.1933L9.82165 19.247C9.8612 19.2276 9.90082 19.2084 9.94049 19.1892C9.94063 19.1892 9.94034 19.1893 9.94049 19.1892C9.95588 19.1818 9.97172 19.1742 9.98714 19.1668C12.6763 17.8778 15.6157 17.1775 18.6047 17.1146ZM9.38642 18.3597L9.38146 18.3491C12.2462 16.9447 15.3881 16.1821 18.5837 16.1148L18.5942 16.1146H20.768V20.2584L27.9112 13.1937L20.768 6.12889V6.50304C20.768 6.5532 20.768 6.60259 20.768 6.65124C20.7681 7.8892 20.7682 8.64071 20.7093 9.06149C20.6842 9.24064 20.6167 9.69437 20.2339 10.005C20.0271 10.1729 19.81 10.2328 19.6602 10.2559C19.5842 10.2677 19.5098 10.2716 19.4558 10.273L19.4106 10.2795C17.7898 10.5603 16.2422 11.0322 14.9236 11.6161C11.3483 13.2511 8.6784 16.0543 7.01452 19.9977C7.75848 19.3903 8.55157 18.8424 9.38642 18.3597Z" fill="#222222"/>
</svg>
