<svg width="16" height="16" viewBox="0 0 16 16" fill="none" xmlns="http://www.w3.org/2000/svg">
<path d="M14.0003 8C14.0003 11.3087 11.309 14 8.00033 14C4.69166 14 2.00033 11.3087 2.00033 8C2.00033 4.69133 4.69166 2 8.00033 2C9.32633 2 10.5823 2.43333 11.6203 3.222L9.21766 5.484L15.329 6.13933L15.0417 0L12.605 2.29467C11.3035 1.23773 9.67693 0.662649 8.00033 0.666667C3.95699 0.666667 0.666992 3.95667 0.666992 8C0.666992 12.0433 3.95699 15.3333 8.00033 15.3333C12.0437 15.3333 15.3337 12.0433 15.3337 8H14.0003Z" fill="#111111"/>
</svg>
