<svg width="32" height="32" viewBox="0 0 32 32" fill="none" xmlns="http://www.w3.org/2000/svg">
<path d="M22.0591 11.066C22.8279 11.066 23.4511 10.4428 23.4511 9.67398C23.4511 8.9052 22.8279 8.28198 22.0591 8.28198C21.2903 8.28198 20.6671 8.9052 20.6671 9.67398C20.6671 10.4428 21.2903 11.066 22.0591 11.066Z" fill="#222222"/>
<path d="M15.8665 9.90991C14.6884 9.90991 13.5368 10.2593 12.5572 10.9138C11.5776 11.5683 10.8142 12.4986 10.3633 13.587C9.91249 14.6754 9.79453 15.8731 10.0244 17.0286C10.2542 18.1841 10.8215 19.2454 11.6546 20.0785C12.4876 20.9115 13.549 21.4788 14.7044 21.7087C15.8599 21.9385 17.0576 21.8205 18.146 21.3697C19.2344 20.9189 20.1647 20.1554 20.8192 19.1758C21.4738 18.1963 21.8231 17.0446 21.8231 15.8665C21.8231 14.2867 21.1955 12.7716 20.0785 11.6546C18.9614 10.5375 17.4463 9.90991 15.8665 9.90991ZM15.8665 19.7332C15.1018 19.7332 14.3542 19.5064 13.7183 19.0815C13.0824 18.6567 12.5868 18.0528 12.2942 17.3462C12.0015 16.6397 11.9249 15.8622 12.0741 15.1122C12.2233 14.3621 12.5916 13.6731 13.1324 13.1324C13.6731 12.5916 14.3621 12.2233 15.1122 12.0741C15.8622 11.9249 16.6397 12.0015 17.3462 12.2942C18.0528 12.5868 18.6567 13.0824 19.0815 13.7183C19.5064 14.3542 19.7332 15.1018 19.7332 15.8665C19.7332 16.892 19.3258 17.8755 18.6007 18.6007C17.8755 19.3258 16.892 19.7332 15.8665 19.7332Z" fill="#222222"/>
<path d="M15.8667 6.35654C18.9639 6.35654 19.3313 6.36813 20.5541 6.4242C21.2896 6.43293 22.0181 6.56798 22.7078 6.82344C23.2082 7.01647 23.6627 7.31213 24.0419 7.69138C24.4212 8.07064 24.7169 8.52509 24.9099 9.0255C25.1653 9.71525 25.3004 10.4438 25.3091 11.1792C25.3652 12.4021 25.3768 12.7694 25.3768 15.8676C25.3768 18.9657 25.3652 19.3311 25.3091 20.554C25.3004 21.2894 25.1653 22.018 24.9099 22.7077C24.7169 23.2081 24.4212 23.6626 24.0419 24.0418C23.6627 24.4211 23.2082 24.7167 22.7078 24.9098C22.0181 25.1652 21.2896 25.3003 20.5541 25.309C19.3313 25.3651 18.9639 25.3767 15.8667 25.3767C12.7695 25.3767 12.4022 25.3651 11.1794 25.309C10.4439 25.3003 9.71537 25.1652 9.02562 24.9098C8.52522 24.7167 8.07076 24.4211 7.69151 24.0418C7.31225 23.6626 7.01659 23.2081 6.82356 22.7077C6.5681 22.018 6.43306 21.2894 6.42432 20.554C6.36826 19.3311 6.35666 18.9638 6.35666 15.8666C6.35666 12.7694 6.36826 12.4021 6.42432 11.1792C6.43306 10.4438 6.5681 9.71525 6.82356 9.0255C7.01659 8.52509 7.31225 8.07064 7.69151 7.69138C8.07076 7.31213 8.52522 7.01647 9.02562 6.82344C9.71537 6.56798 10.4439 6.43293 11.1794 6.4242C12.4022 6.36813 12.7695 6.35654 15.8667 6.35654ZM15.8667 4.2666C12.7164 4.2666 12.321 4.28013 11.0837 4.3362C10.1216 4.35563 9.16981 4.53801 8.26872 4.8756C7.49802 5.17362 6.79809 5.62939 6.2138 6.21368C5.62951 6.79797 5.17374 7.4979 4.87572 8.2686C4.53803 9.16999 4.35564 10.1221 4.33632 11.0845C4.28026 12.3218 4.26672 12.7153 4.26672 15.8666C4.26672 19.0179 4.28026 19.4123 4.33632 20.6497C4.35575 21.6117 4.53813 22.5635 4.87572 23.4646C5.17374 24.2353 5.62951 24.9352 6.2138 25.5195C6.79809 26.1038 7.49802 26.5596 8.26872 26.8576C9.17011 27.1953 10.1222 27.3777 11.0846 27.397C12.322 27.4531 12.7164 27.4666 15.8667 27.4666C19.0171 27.4666 19.4125 27.4531 20.6498 27.397C21.6122 27.3777 22.5643 27.1953 23.4657 26.8576C24.2364 26.5596 24.9363 26.1038 25.5206 25.5195C26.1049 24.9352 26.5607 24.2353 26.8587 23.4646C27.1961 22.5632 27.3781 21.611 27.3971 20.6487C27.4532 19.4114 27.4667 19.0179 27.4667 15.8666C27.4667 12.7153 27.4532 12.3209 27.3971 11.0835C27.3777 10.1215 27.1953 9.16969 26.8577 8.2686C26.5597 7.4979 26.1039 6.79797 25.5196 6.21368C24.9354 5.62939 24.2354 5.17362 23.4647 4.8756C22.5633 4.53823 21.6111 4.35618 20.6488 4.33717C19.4115 4.27917 19.0181 4.2666 15.8667 4.2666Z" fill="#222222"/>
</svg>
