<svg width="16" height="16" viewBox="0 0 16 16" fill="none" xmlns="http://www.w3.org/2000/svg">
<path fill-rule="evenodd" clip-rule="evenodd" d="M7.99996 2.75C6.94141 2.75 6.08329 3.60812 6.08329 4.66667C6.08329 5.72521 6.94141 6.58333 7.99996 6.58333C9.05851 6.58333 9.91663 5.72521 9.91663 4.66667C9.91663 3.60812 9.05851 2.75 7.99996 2.75ZM4.58329 4.66667C4.58329 2.77969 6.11299 1.25 7.99996 1.25C9.88693 1.25 11.4166 2.77969 11.4166 4.66667C11.4166 6.55364 9.88693 8.08333 7.99996 8.08333C6.11299 8.08333 4.58329 6.55364 4.58329 4.66667ZM2.91734 10.2507C3.55809 9.60997 4.42714 9.25 5.33329 9.25H10.6666C11.5728 9.25 12.4418 9.60997 13.0826 10.2507C13.7233 10.8915 14.0833 11.7605 14.0833 12.6667V14C14.0833 14.4142 13.7475 14.75 13.3333 14.75C12.9191 14.75 12.5833 14.4142 12.5833 14V12.6667C12.5833 12.1583 12.3814 11.6708 12.0219 11.3114C11.6625 10.9519 11.175 10.75 10.6666 10.75H5.33329C4.82496 10.75 4.33745 10.9519 3.978 11.3114C3.61856 11.6708 3.41663 12.1583 3.41663 12.6667V14C3.41663 14.4142 3.08084 14.75 2.66663 14.75C2.25241 14.75 1.91663 14.4142 1.91663 14V12.6667C1.91663 11.7605 2.27659 10.8915 2.91734 10.2507Z" fill="#4F4F4F"/>
</svg>
