<svg width="20" height="15" viewBox="0 0 20 15" fill="none" xmlns="http://www.w3.org/2000/svg">
<path d="M19.8333 3.24414C19.8333 3.24414 19.6667 1.82747 19 1.24414C18.25 0.410808 17.4167 0.410807 17 0.410807C14.1667 0.244141 10 0.244141 10 0.244141C10 0.244141 5.83333 0.244141 3 0.410807C2.58333 0.494141 1.75 0.494141 1 1.24414C0.416667 1.82747 0.166667 3.24414 0.166667 3.24414C0.166667 3.24414 0 4.82747 0 6.49414V7.99414C0 9.57747 0.166667 11.2441 0.166667 11.2441C0.166667 11.2441 0.333333 12.6608 1 13.2441C1.75 14.0775 2.75 13.9941 3.16667 14.0775C4.75 14.2441 10 14.2441 10 14.2441C10 14.2441 14.1667 14.2441 17 13.9941C17.4167 13.9108 18.25 13.9108 19 13.1608C19.5833 12.5775 19.8333 11.1608 19.8333 11.1608C19.8333 11.1608 20 9.57747 20 7.91081V6.41081C20 4.82747 19.8333 3.24414 19.8333 3.24414ZM7.91667 9.82747V4.24414L13.3333 7.07747L7.91667 9.82747Z" fill="#4F4F4F"/>
</svg>
