<!-- Generated by IcoMoon.io -->
<svg version="1.1" xmlns="http://www.w3.org/2000/svg" width="32" height="32" viewBox="0 0 32 32">
<title>Zoom</title>
<path d="M10.471 28.235c1.040 0 1.883 0.843 1.883 1.883s-0.843 1.882-1.883 1.882h-8.471c-1.039 0-1.882-0.844-1.882-1.882v-8.471c0-1.039 0.843-1.882 1.882-1.882s1.882 0.843 1.882 1.882v3.927l6.904-6.904c0.735-0.735 1.927-0.735 2.662 0s0.735 1.927 0 2.662l-6.904 6.904h3.927z"></path>
<path d="M21.647 3.883c-1.040 0-1.883-0.843-1.883-1.883s0.843-1.882 1.883-1.882h8.471c1.039 0 1.882 0.844 1.882 1.882v8.471c0 1.039-0.843 1.882-1.882 1.882s-1.882-0.843-1.882-1.882v-3.927l-6.905 6.904c-0.735 0.735-1.927 0.735-2.662 0s-0.735-1.927 0-2.662l6.904-6.904h-3.927z"></path>
</svg>
