<svg width="95" height="70" viewBox="0 0 95 70" fill="none" xmlns="http://www.w3.org/2000/svg">
<g clip-path="url(#clip0)">
<path d="M0 61.5081H95V61.5462H0V61.5081Z" fill="#E0E0E0"/>
<path d="M23.237 63.4995H29.773V63.5377H23.237V63.4995Z" fill="#E0E0E0"/>
<path d="M73.891 63.5371H77.577V63.5753H73.891V63.5371Z" fill="#E0E0E0"/>
<path d="M47.31 63.4248H54.758V63.463H47.31V63.4248Z" fill="#E0E0E0"/>
<path d="M54.967 62.7478H58.292V62.786H54.967V62.7478Z" fill="#E0E0E0"/>
<path d="M14.3261 62.7673H24.3961V62.8055H14.3261V62.7673Z" fill="#E0E0E0"/>
<path d="M11.533 38.0057C13.87 34.4925 11.742 30.6976 12.084 26.7899C12.445 22.8822 16.207 22.018 15.485 18.7115C14.668 14.8602 16.853 11.178 19.3419 11.178C21.8309 11.178 24.035 14.879 23.199 18.7115C22.496 22.0368 26.258 22.8822 26.6 26.7899C26.961 30.6976 24.8139 34.4925 27.1509 38.0057C29.4879 41.5188 28.8799 46.178 27.55 48.4888C27.189 49.1275 26.7519 49.6911 26.2959 50.1796C22.5529 54.1812 16.074 54.1812 12.331 50.1796C11.856 49.6723 11.438 49.1087 11.077 48.4888C9.80395 46.178 9.19596 41.5188 11.533 38.0057Z" fill="#E0E0E0"/>
<path d="M18.1829 61.508H20.5389V41.8381C20.5389 41.1994 20.0069 40.6733 19.3609 40.6733C18.7149 40.6733 18.1829 41.1994 18.1829 41.8381V61.508Z" fill="#F0F0F0"/>
<path d="M34.219 61.5078H37.43V41.8379C37.43 40.9549 36.708 40.241 35.815 40.241C34.922 40.241 34.2 40.9549 34.2 41.8379V61.5078H34.219Z" fill="#E0E0E0"/>
<path d="M35.834 56.2102C30.3565 56.2102 25.916 51.8196 25.916 46.4034C25.916 40.9873 30.3565 36.5967 35.834 36.5967C41.3116 36.5967 45.752 40.9873 45.752 46.4034C45.752 51.8196 41.3116 56.2102 35.834 56.2102Z" fill="#F0F0F0"/>
<path d="M27.968 46.4035C25.8064 46.4035 24.054 44.6708 24.054 42.5334C24.054 40.396 25.8064 38.6633 27.968 38.6633C30.1297 38.6633 31.882 40.396 31.882 42.5334C31.882 44.6708 30.1297 46.4035 27.968 46.4035Z" fill="#F0F0F0"/>
<path d="M43.833 42.5523C42.5528 42.5523 41.515 41.5261 41.515 40.2603C41.515 38.9944 42.5528 37.9683 43.833 37.9683C45.1132 37.9683 46.151 38.9944 46.151 40.2603C46.151 41.5261 45.1132 42.5523 43.833 42.5523Z" fill="#F0F0F0"/>
<path d="M41.325 40.655C40.433 40.655 39.71 39.94 39.71 39.0581C39.71 38.1761 40.433 37.4612 41.325 37.4612C42.2169 37.4612 42.94 38.1761 42.94 39.0581C42.94 39.94 42.2169 40.655 41.325 40.655Z" fill="#F0F0F0"/>
<path d="M56.24 49.7662C57.893 50.0104 59.318 50.5928 60.553 51.4007C60.572 49.9165 60.838 48.5075 61.541 47.3615C62.624 48.3948 63.479 49.7474 64.201 51.1752C64.467 48.4699 65.189 45.8398 66.785 44.1677C69.179 45.6519 70.414 48.1318 70.984 50.7431C71.934 49.0711 73.245 47.5118 75.069 46.3846C76.532 47.9063 76.988 50.0105 76.95 52.1709C78.603 50.2547 80.446 48.7705 82.251 48.6014C82.688 51.6261 81.757 54.4817 80.56 56.7362C78.983 59.6857 75.867 61.508 72.485 61.508H64.676C61.351 61.508 58.235 59.7609 56.677 56.8489C55.689 55.0078 55.214 52.6406 56.24 49.7662Z" fill="#E0E0E0"/>
<path d="M58.463 10.746C57.494 7.94673 58.273 5.95532 60.629 5.95532C62.111 5.95532 63.935 6.74437 65.721 8.02188C65.93 7.28919 66.5 6.85709 67.412 6.85709C69.027 6.85709 71.231 8.20975 72.979 10.1072C73.397 9.67513 74.005 9.4309 74.784 9.37454C76.323 9.2806 78.185 10.0697 79.8 11.3284C79.933 11.1217 80.18 10.9902 80.522 10.9714C81.415 10.9151 82.612 11.7041 83.201 12.7186C83.239 12.775 83.277 12.8501 83.296 12.9065H81.453H79.99H74.898H72.39H70.433H67.45H66.899H59.47H58.007C57.931 12.0047 58.083 11.272 58.463 10.746Z" fill="#F0F0F0"/>
<path d="M58.387 27.7104C57.912 26.339 58.292 25.3809 59.451 25.3809C60.173 25.3809 61.066 25.7566 61.94 26.3766C62.035 26.0196 62.32 25.813 62.757 25.813C63.536 25.813 64.619 26.4705 65.474 27.3911C65.683 27.1844 65.968 27.0529 66.367 27.0341C67.127 26.9965 68.039 27.3723 68.818 27.9922C68.894 27.8983 69.008 27.8232 69.16 27.8232C69.597 27.8044 70.186 28.1801 70.471 28.6686C70.49 28.7061 70.509 28.7249 70.528 28.7625H69.635H68.913H66.424H65.208H64.258H62.795H62.529H58.9H58.178C58.121 28.3304 58.197 27.9547 58.387 27.7104Z" fill="#F0F0F0"/>
<path d="M29.868 17.3779C29.963 17.3591 30.058 17.3591 30.153 17.3591C30.058 15.9877 30.59 15.1235 31.711 15.1235C32.528 15.1235 33.516 15.5744 34.542 16.3446C34.257 13.6957 35.188 11.9861 37.297 11.9861C38.988 11.9861 41.154 13.1133 43.282 14.9356C43.472 13.9023 44.099 13.2824 45.144 13.2824C46.987 13.2824 49.628 15.1986 51.718 17.9227C52.174 17.3216 52.858 16.9458 53.751 16.8895C55.518 16.758 57.703 17.8664 59.641 19.6699C59.793 19.3693 60.059 19.1815 60.439 19.1439C61.408 19.0687 62.738 20.0645 63.498 21.3983H61.256H59.736H53.884H51.148H48.697H45.22H38.665H36.119H35.207H31.578H28.31C27.493 19.3693 28.158 17.6222 29.868 17.3779Z" fill="#F0F0F0"/>
<path d="M47.5 70C27.1533 70 10.659 69.0495 10.659 67.8771C10.659 66.7046 27.1533 65.7542 47.5 65.7542C67.8467 65.7542 84.341 66.7046 84.341 67.8771C84.341 69.0495 67.8467 70 47.5 70Z" fill="#F5F5F5"/>
<path d="M85.7089 17.9602L42.4079 24.1223L36.5939 29.9275L85.7089 17.9602Z" fill="#407BFF"/>
<path opacity="0.6" d="M85.7089 17.9602L42.4079 24.1223L36.5939 29.9275L85.7089 17.9602Z" fill="white"/>
<path d="M85.7089 17.9602L42.4079 24.1223L44.4219 32.5201L85.7089 17.9602Z" fill="#407BFF"/>
<path opacity="0.2" d="M85.7089 17.9602L42.4079 24.1223L44.4219 32.5201L85.7089 17.9602Z" fill="black"/>
<path d="M45.296 8.24718L42.788 19.8951C42.655 20.5338 43.054 21.1538 43.7 21.2853L66.139 26.0196C66.785 26.1511 67.412 25.7566 67.545 25.1178L70.053 13.4699C70.129 13.1318 70.053 12.8124 69.863 12.5494C69.692 12.3239 69.445 12.1361 69.141 12.0797L46.702 7.34541C46.398 7.28905 46.094 7.34541 45.847 7.49571C45.581 7.646 45.372 7.92781 45.296 8.24718Z" fill="#407BFF"/>
<path opacity="0.4" d="M45.296 8.24718L42.788 19.8951C42.655 20.5338 43.054 21.1538 43.7 21.2853L66.139 26.0196C66.785 26.1511 67.412 25.7566 67.545 25.1178L70.053 13.4699C70.129 13.1318 70.053 12.8124 69.863 12.5494C69.692 12.3239 69.445 12.1361 69.141 12.0797L46.702 7.34541C46.398 7.28905 46.094 7.34541 45.847 7.49571C45.581 7.646 45.372 7.92781 45.296 8.24718Z" fill="black"/>
<path d="M45.847 7.49571L53.352 16.5886C54.777 18.317 57.247 18.843 59.261 17.8285L69.863 12.5494C69.692 12.3239 69.445 12.1361 69.141 12.0797L46.702 7.34541C46.398 7.28905 46.094 7.34541 45.847 7.49571Z" fill="#407BFF"/>
<path d="M85.7089 17.9602L49.9889 26.358L44.4219 32.5201L85.7089 17.9602Z" fill="#407BFF"/>
<path opacity="0.6" d="M85.7089 17.9602L49.9889 26.358L44.4219 32.5201L85.7089 17.9602Z" fill="white"/>
<path d="M72.6849 26.0471L72.7809 26.2092L68.8138 28.5074L68.7177 28.3454L72.6849 26.0471Z" fill="#407BFF"/>
<path d="M66.9619 29.3767L67.0579 29.5388L65.6317 30.365L65.5357 30.2029L66.9619 29.3767Z" fill="#407BFF"/>
<path d="M85.7089 17.9602L49.9889 26.358L56.9429 34.643L85.7089 17.9602Z" fill="#407BFF"/>
<path d="M37.9239 37.6297C37.9619 37.6297 38.0189 37.6297 38.0569 37.611L43.8899 35.319C44.0799 35.2438 44.1749 35.0184 44.0989 34.8305C44.0229 34.6426 43.7949 34.5487 43.6049 34.6238L37.7909 36.8971C37.6009 36.9722 37.5059 37.1976 37.5819 37.3855C37.6389 37.5358 37.7719 37.6297 37.9239 37.6297Z" fill="#407BFF"/>
<path opacity="0.3" d="M37.9239 37.6297C37.9619 37.6297 38.0189 37.6297 38.0569 37.611L43.8899 35.319C44.0799 35.2438 44.1749 35.0184 44.0989 34.8305C44.0229 34.6426 43.7949 34.5487 43.6049 34.6238L37.7909 36.8971C37.6009 36.9722 37.5059 37.1976 37.5819 37.3855C37.6389 37.5358 37.7719 37.6297 37.9239 37.6297Z" fill="black"/>
<path d="M38.266 34.323C38.304 34.323 38.361 34.323 38.399 34.3043L41.534 33.0831C41.724 33.008 41.819 32.7825 41.743 32.5947C41.667 32.4068 41.439 32.3129 41.249 32.388L38.114 33.6091C37.924 33.6843 37.829 33.9097 37.905 34.0976C37.981 34.2479 38.114 34.323 38.266 34.323Z" fill="#407BFF"/>
<path opacity="0.5" d="M38.266 34.323C38.304 34.323 38.361 34.323 38.399 34.3043L41.534 33.0831C41.724 33.008 41.819 32.7825 41.743 32.5947C41.667 32.4068 41.439 32.3129 41.249 32.388L38.114 33.6091C37.924 33.6843 37.829 33.9097 37.905 34.0976C37.981 34.2479 38.114 34.323 38.266 34.323Z" fill="white"/>
<path d="M44.8019 37.5734C44.8399 37.5734 44.8969 37.5734 44.9349 37.5546L50.6159 35.319C50.8059 35.2438 50.9009 35.0184 50.8249 34.8305C50.7489 34.6426 50.5209 34.5487 50.3309 34.6238L44.6499 36.8407C44.4599 36.9158 44.3649 37.1413 44.4409 37.3292C44.5169 37.4794 44.6499 37.5734 44.8019 37.5734Z" fill="#407BFF"/>
<path opacity="0.3" d="M44.8019 37.5734C44.8399 37.5734 44.8969 37.5734 44.9349 37.5546L50.6159 35.319C50.8059 35.2438 50.9009 35.0184 50.8249 34.8305C50.7489 34.6426 50.5209 34.5487 50.3309 34.6238L44.6499 36.8407C44.4599 36.9158 44.3649 37.1413 44.4409 37.3292C44.5169 37.4794 44.6499 37.5734 44.8019 37.5734Z" fill="black"/>
<path d="M24.2629 20.6467C23.7689 21.6236 23.2939 22.5818 22.8569 23.5963C22.4199 24.592 22.0019 25.6065 21.6599 26.6585L21.5269 27.0531C21.5079 27.1282 21.4699 27.2409 21.4509 27.3161C21.4319 27.41 21.4129 27.4852 21.4129 27.5791C21.3559 27.8985 21.3559 28.1991 21.3559 28.4997C21.3559 29.0821 21.3939 29.6269 21.4319 30.1717C21.5459 31.2613 21.7169 32.3322 21.9449 33.403L22.9899 33.2903C23.0089 32.2383 23.0089 31.1674 23.0469 30.1153C23.0659 29.5893 23.1039 29.0821 23.1419 28.5936C23.1609 28.3494 23.2179 28.1051 23.2559 27.9173C23.2749 27.8609 23.2749 27.8233 23.2939 27.7858C23.3129 27.7482 23.3129 27.7294 23.3319 27.673L23.4839 27.3161C23.8829 26.3579 24.3199 25.3998 24.7759 24.4605L26.1629 21.6049L24.2629 20.6467Z" fill="#E4897B"/>
<path d="M22.971 32.9712L23.465 33.873L21.907 34.3051C21.907 34.3051 21.603 33.5724 21.964 33.0088L22.971 32.9712Z" fill="#E4897B"/>
<path d="M24.0539 35.1688L22.6099 35.2816L21.8879 34.2859L23.4459 33.8726L24.0539 35.1688Z" fill="#E4897B"/>
<path d="M30.7971 14.1448C30.7741 14.0329 30.8138 13.9305 30.8858 13.9161C30.9578 13.9016 31.0347 13.9805 31.0577 14.0924C31.0807 14.2042 31.041 14.3067 30.969 14.3211C30.8971 14.3356 30.8201 14.2566 30.7971 14.1448Z" fill="#263238"/>
<path d="M30.8939 14.3342C30.8939 14.3342 31.2739 14.9166 31.6159 15.1609C31.4639 15.3863 31.1029 15.3675 31.1029 15.3675L30.8939 14.3342Z" fill="#DE5753"/>
<path d="M30.2669 13.6201C30.2859 13.6201 30.3049 13.6201 30.3239 13.6013C30.5139 13.3947 30.7609 13.4323 30.7609 13.4323C30.7989 13.4323 30.8369 13.4135 30.8369 13.3759C30.8369 13.3383 30.8179 13.3007 30.7799 13.3007C30.7609 13.3007 30.4569 13.2444 30.2099 13.5262C30.1909 13.545 30.1909 13.6013 30.2099 13.6201C30.2479 13.6201 30.2669 13.6201 30.2669 13.6201Z" fill="#263238"/>
<path d="M27.6639 15.6868C27.8729 16.7013 28.0629 18.5424 27.3409 19.2187C27.3409 19.2187 27.6259 20.252 29.5259 20.252C31.6159 20.252 30.5139 19.2187 30.5139 19.2187C29.3739 18.9557 29.4119 18.1103 29.6019 17.3212L27.6639 15.6868Z" fill="#E4897B"/>
<path d="M27.0559 19.8575C26.9039 19.3691 26.7329 18.8055 27.0749 18.6176C27.455 18.4297 29.526 18.2231 30.229 18.5988C30.932 18.9558 30.742 19.9703 30.742 19.9703L27.0559 19.8575Z" fill="#263238"/>
<path d="M22.686 66.712C22.838 66.712 22.971 66.6932 23.028 66.618C23.047 66.5805 23.066 66.5429 23.028 66.4677C23.009 66.4302 22.971 66.4114 22.933 66.3926C22.724 66.355 22.344 66.5993 22.325 66.618C22.306 66.618 22.306 66.6368 22.306 66.6556C22.306 66.6744 22.325 66.6744 22.325 66.6744C22.382 66.6932 22.534 66.712 22.686 66.712ZM22.857 66.449C22.876 66.449 22.876 66.449 22.895 66.449C22.914 66.449 22.952 66.4677 22.952 66.4865C22.99 66.5429 22.971 66.5617 22.952 66.5617C22.895 66.6368 22.61 66.6368 22.401 66.5993C22.534 66.5429 22.724 66.449 22.857 66.449Z" fill="#407BFF"/>
<path d="M22.3249 66.6746C22.4769 66.5995 22.7619 66.2989 22.7429 66.1298C22.7429 66.111 22.7239 66.0547 22.6289 66.0359C22.5719 66.0359 22.5339 66.0359 22.4959 66.0735C22.3249 66.205 22.3059 66.5995 22.3059 66.6183C22.2869 66.6371 22.2869 66.6559 22.3249 66.6746C22.3059 66.6746 22.3059 66.6746 22.3249 66.6746ZM22.6099 66.111C22.6669 66.111 22.6669 66.1298 22.6669 66.1486C22.6859 66.2425 22.5149 66.468 22.3629 66.5807C22.3819 66.468 22.4199 66.2238 22.5339 66.1486C22.5529 66.111 22.5719 66.111 22.6099 66.111Z" fill="#407BFF"/>
<path d="M31.065 66.712C31.236 66.712 31.426 66.6932 31.483 66.5993C31.502 66.5805 31.521 66.5242 31.483 66.449C31.464 66.4114 31.426 66.3927 31.369 66.3739C31.141 66.3175 30.647 66.5805 30.628 66.5993C30.609 66.5993 30.609 66.6181 30.609 66.6369C30.609 66.6557 30.628 66.6557 30.628 66.6557C30.723 66.6932 30.894 66.712 31.065 66.712ZM31.274 66.4302C31.293 66.4302 31.312 66.4302 31.331 66.4302C31.369 66.4302 31.388 66.449 31.388 66.4678C31.407 66.5054 31.407 66.5242 31.388 66.543C31.331 66.6369 30.97 66.6369 30.704 66.5993C30.875 66.5617 31.122 66.4302 31.274 66.4302Z" fill="#407BFF"/>
<path d="M30.6469 66.6744C30.8369 66.5993 31.1599 66.2987 31.1409 66.1484C31.1409 66.1108 31.1029 66.0732 31.0269 66.0544C30.9509 66.0544 30.8939 66.0732 30.8369 66.1108C30.6659 66.2611 30.6279 66.6181 30.6279 66.6368C30.6279 66.6556 30.6279 66.6556 30.6469 66.6744C30.6279 66.6744 30.6279 66.6744 30.6469 66.6744ZM30.9699 66.1108H30.9889C31.0459 66.1108 31.0459 66.1484 31.0459 66.1484C31.0649 66.2423 30.8369 66.4678 30.6659 66.5805C30.6849 66.4678 30.7419 66.2423 30.8559 66.1484C30.8939 66.1296 30.9319 66.1108 30.9699 66.1108Z" fill="#407BFF"/>
<path d="M29.108 66.6369H30.495L30.647 63.4431H29.241L29.108 66.6369Z" fill="#E4897B"/>
<path d="M20.729 66.6369H22.116L22.819 63.4431H21.432L20.729 66.6369Z" fill="#E4897B"/>
<path d="M22.2109 66.4683H20.6339C20.5769 66.4683 20.5199 66.5058 20.5199 66.5622L20.2349 67.7834C20.1969 67.9149 20.3109 68.0276 20.4439 68.0276C20.9949 68.0276 21.2609 67.99 21.9449 67.99C22.3629 67.99 23.2369 68.0276 23.8259 68.0276C24.3959 68.0276 24.4909 67.464 24.2439 67.4076C23.1609 67.1822 22.7619 66.8628 22.4199 66.5434C22.3819 66.5058 22.3059 66.4683 22.2109 66.4683Z" fill="#263238"/>
<path d="M30.495 66.4683H28.975C28.918 66.4683 28.861 66.5058 28.861 66.5622L28.576 67.7834C28.538 67.9149 28.652 68.0276 28.785 68.0276C29.336 68.0276 30.134 67.99 30.818 67.99C31.635 67.99 32.319 68.0276 33.269 68.0276C33.839 68.0276 34.01 67.464 33.763 67.4076C32.68 67.1634 31.787 67.1446 30.837 66.5622C30.723 66.5246 30.609 66.4683 30.495 66.4683Z" fill="#263238"/>
<path d="M31.16 21.6422C32.338 21.5483 33.478 21.398 34.637 21.1913C35.207 21.0786 35.796 20.9659 36.366 20.7968C36.936 20.6465 37.525 20.4774 38.114 20.2332C38.266 20.1768 38.399 20.1017 38.551 20.0453C38.741 19.9514 38.893 19.8574 39.026 19.7635C39.292 19.5756 39.539 19.4065 39.767 19.2187C40.223 18.8429 40.66 18.4672 41.097 18.0727C41.952 17.3024 42.75 16.4946 43.529 15.6492L42.826 14.8789L40.071 16.8327C39.615 17.1521 39.159 17.4715 38.703 17.7721C38.475 17.9224 38.247 18.0539 38.038 18.1854C37.924 18.2418 37.829 18.2981 37.772 18.3169C37.658 18.3545 37.544 18.4108 37.43 18.4484C36.461 18.7678 35.378 18.9744 34.295 19.1435C33.212 19.3126 32.091 19.4441 31.008 19.5568L31.16 21.6422Z" fill="#E4897B"/>
<path d="M24.852 19.5195C23.541 19.82 22.23 23.5962 22.23 23.5962L24.928 25.5125C24.928 25.5125 25.688 23.7465 26.429 22.206C27.17 20.6091 26.182 19.2189 24.852 19.5195Z" fill="#7043A9"/>
<path opacity="0.4" d="M24.852 19.5195C23.541 19.82 22.23 23.5962 22.23 23.5962L24.928 25.5125C24.928 25.5125 25.688 23.7465 26.429 22.206C27.17 20.6091 26.182 19.2189 24.852 19.5195Z" fill="black"/>
<path d="M25.612 21.5864L26.144 22.77C25.593 23.9536 25.08 25.1184 24.947 25.4377C24.966 24.0475 25.232 22.3003 25.612 21.5864Z" fill="#407BFF"/>
<path opacity="0.6" d="M25.612 21.5864L26.144 22.77C25.593 23.9536 25.08 25.1184 24.947 25.4377C24.966 24.0475 25.232 22.3003 25.612 21.5864Z" fill="black"/>
<path d="M32.661 19.5949C32.661 19.5949 34.143 21.2481 32.737 31.5246C30.495 31.5246 26.372 31.5246 25.27 31.5246C25.213 30.3974 25.935 24.8552 24.833 19.5197C24.833 19.5197 26.106 19.2567 27.341 19.2004C28.291 19.1628 29.678 19.1252 30.514 19.2004C31.635 19.3131 32.661 19.5949 32.661 19.5949Z" fill="#7043A9"/>
<path opacity="0.4" d="M32.661 19.5949C32.661 19.5949 34.143 21.2481 32.737 31.5246C30.495 31.5246 26.372 31.5246 25.27 31.5246C25.213 30.3974 25.935 24.8552 24.833 19.5197C24.833 19.5197 26.106 19.2567 27.341 19.2004C28.291 19.1628 29.678 19.1252 30.514 19.2004C31.635 19.3131 32.661 19.5949 32.661 19.5949Z" fill="black"/>
<path d="M33.2119 21.5864C33.2689 21.981 33.3069 22.4318 33.3259 22.9767C32.7179 22.7888 31.9389 22.4882 31.2549 22.0185L33.2119 21.5864Z" fill="#407BFF"/>
<path opacity="0.6" d="M33.2119 21.5864C33.2689 21.981 33.3069 22.4318 33.3259 22.9767C32.7179 22.7888 31.9389 22.4882 31.2549 22.0185L33.2119 21.5864Z" fill="black"/>
<path d="M30.02 21.7931C31.027 22.6761 34.827 22.5822 34.827 22.5822L34.96 18.9375C34.96 18.9375 32.794 19.2569 31.065 19.2193C28.937 19.1817 28.937 20.835 30.02 21.7931Z" fill="#7043A9"/>
<path opacity="0.4" d="M30.02 21.7931C31.027 22.6761 34.827 22.5822 34.827 22.5822L34.96 18.9375C34.96 18.9375 32.794 19.2569 31.065 19.2193C28.937 19.1817 28.937 20.835 30.02 21.7931Z" fill="black"/>
<path d="M42.7879 14.898L43.7379 13.7896L44.7639 14.9168C44.7639 14.9168 44.1369 15.9688 43.1299 15.7997L42.7879 14.898Z" fill="#E4897B"/>
<path d="M45.1059 12.4932L45.4669 13.9398L44.783 14.9167L43.7569 13.7895L45.1059 12.4932Z" fill="#E4897B"/>
<path d="M30.6279 63.4431L30.5709 65.0964H29.1649L29.2409 63.4431H30.6279Z" fill="#CE6F64"/>
<path d="M21.432 63.4431H22.819L22.458 65.0964H21.052L21.432 63.4431Z" fill="#CE6F64"/>
<path d="M29.792 12.775C31.046 12.2114 31.445 9.71277 27.835 10.3327C27.835 10.3327 28.386 10.9339 27.284 11.3097C26.182 11.6666 27.094 14.015 29.792 12.775Z" fill="#263238"/>
<path d="M27.0749 14.6536C27.4359 15.9686 27.5689 16.7765 28.4049 17.3213C29.6399 18.1479 31.1979 17.1898 31.2359 15.7996C31.2739 14.5408 30.6849 12.587 29.2409 12.324C27.8349 12.061 26.7139 13.3385 27.0749 14.6536Z" fill="#E4897B"/>
<path d="M27.892 10.9902C27.037 11.4599 25.878 11.7417 25.992 12.418C26.125 13.2259 25.289 12.7186 25.498 13.9398C25.631 14.7288 27.113 17.1335 28.158 17.0208C29.735 16.8517 29.526 14.4658 29.526 13.2259C29.526 12.4932 29.5639 10.0697 27.892 10.9902Z" fill="#263238"/>
<path d="M29.7159 12.0613C30.0959 12.1552 30.6089 14.3157 29.1269 14.5224C27.4359 14.729 29.7159 12.0613 29.7159 12.0613Z" fill="#263238"/>
<path d="M29.678 12.8317C30.153 12.8692 31.198 12.3244 31.065 11.479C31.065 11.479 30.4 12.4559 29.678 12.8317Z" fill="#263238"/>
<path d="M28.994 14.6724C29.146 14.9918 29.412 15.2548 29.678 15.4051C30.077 15.6118 30.305 15.3112 30.21 14.9167C30.134 14.5597 29.83 14.0149 29.412 13.9773C28.994 13.921 28.823 14.2967 28.994 14.6724Z" fill="#E4897B"/>
<path d="M26.9039 13.1505C26.6189 13.0002 25.9729 12.6808 25.8019 11.7791C25.8019 11.7791 25.1749 13.5074 26.9039 13.1505Z" fill="#263238"/>
<path d="M25.308 13.1317C25.441 13.0566 25.764 12.8687 26.22 13.0378C26.22 13.0378 25.631 12.2863 25.308 13.1317Z" fill="#263238"/>
<path d="M30.0959 31.5244C30.0959 31.5244 28.5189 42.0639 27.6449 46.0279C26.6949 50.3489 23.1039 64.7772 23.1039 64.7772H20.5389C20.5389 64.7772 22.9139 50.7058 23.4459 46.4224C24.0349 41.7633 25.2699 31.5244 25.2699 31.5244H30.0959Z" fill="#407BFF"/>
<path opacity="0.5" d="M30.0959 31.5244C30.0959 31.5244 28.5189 42.0639 27.6449 46.0279C26.6949 50.3489 23.1039 64.7772 23.1039 64.7772H20.5389C20.5389 64.7772 22.9139 50.7058 23.4459 46.4224C24.0349 41.7633 25.2699 31.5244 25.2699 31.5244H30.0959Z" fill="white"/>
<path d="M23.5219 63.8381C23.5409 63.8381 23.2559 64.8151 23.2559 64.8151H20.3869L20.4439 63.9509L23.5219 63.8381Z" fill="#407BFF"/>
<path opacity="0.1" d="M23.5219 63.8381C23.5409 63.8381 23.2559 64.8151 23.2559 64.8151H20.3869L20.4439 63.9509L23.5219 63.8381Z" fill="black"/>
<path d="M29.108 35.2818C27.284 35.6387 27.474 42.3832 27.683 45.8588C28.215 43.3977 28.975 38.6822 29.507 35.3194C29.393 35.2818 29.26 35.263 29.108 35.2818Z" fill="#407BFF"/>
<path opacity="0.4" d="M29.108 35.2818C27.284 35.6387 27.474 42.3832 27.683 45.8588C28.215 43.3977 28.975 38.6822 29.507 35.3194C29.393 35.2818 29.26 35.263 29.108 35.2818Z" fill="white"/>
<path d="M32.756 31.5244C32.756 31.5244 32.946 41.8384 32.794 46.0467C32.642 50.424 31.084 64.7585 31.084 64.7585H28.728C28.728 64.7585 28.633 50.6871 28.538 46.3849C28.424 41.7069 27.854 31.5244 27.854 31.5244H32.756Z" fill="#407BFF"/>
<path opacity="0.5" d="M32.756 31.5244C32.756 31.5244 32.946 41.8384 32.794 46.0467C32.642 50.424 31.084 64.7585 31.084 64.7585H28.728C28.728 64.7585 28.633 50.6871 28.538 46.3849C28.424 41.7069 27.854 31.5244 27.854 31.5244H32.756Z" fill="white"/>
<path d="M30.5899 63.0867C30.6089 63.0867 30.6089 63.0867 30.6089 63.0679C31.0269 59.1038 32.0149 49.5037 32.1289 46.0657C32.2619 42.5526 32.1479 34.6621 32.1099 32.3325C32.1099 32.3137 32.0909 32.3137 32.0909 32.3137C32.0719 32.3137 32.0719 32.3325 32.0719 32.3325C32.1099 34.6621 32.2239 42.5526 32.0909 46.0657C31.9579 49.5037 30.9889 59.1038 30.5709 63.0679C30.5709 63.0679 30.5709 63.0867 30.5899 63.0867Z" fill="#407BFF"/>
<path opacity="0.4" d="M30.5899 63.0867C30.6089 63.0867 30.6089 63.0867 30.6089 63.0679C31.0269 59.1038 32.0149 49.5037 32.1289 46.0657C32.2619 42.5526 32.1479 34.6621 32.1099 32.3325C32.1099 32.3137 32.0909 32.3137 32.0909 32.3137C32.0719 32.3137 32.0719 32.3325 32.0719 32.3325C32.1099 34.6621 32.2239 42.5526 32.0909 46.0657C31.9579 49.5037 30.9889 59.1038 30.5709 63.0679C30.5709 63.0679 30.5709 63.0867 30.5899 63.0867Z" fill="white"/>
<path d="M31.5399 63.8381C31.5589 63.8381 31.4069 64.8151 31.4069 64.8151H28.5379L28.4619 63.9509L31.5399 63.8381Z" fill="#407BFF"/>
<path opacity="0.1" d="M31.5399 63.8381C31.5589 63.8381 31.4069 64.8151 31.4069 64.8151H28.5379L28.4619 63.9509L31.5399 63.8381Z" fill="black"/>
</g>
<defs>
<clipPath id="clip0">
<rect width="95" height="70" fill="white" transform="matrix(-1 0 0 1 95 0)"/>
</clipPath>
</defs>
</svg>
