<svg width="22" height="21" viewBox="0 0 22 21" fill="none" xmlns="http://www.w3.org/2000/svg">
<path d="M14.243 7.63085L17.778 4.09924L17.071 3.39312L13.536 6.92373L14.243 7.63085ZM12.828 9.0431L12.121 8.33697L2.93 17.5166L3.637 18.2227L12.829 9.0421L12.828 9.0431ZM17.778 1.27475L19.899 3.39212C19.992 3.48488 20.0657 3.59503 20.1161 3.71627C20.1664 3.83752 20.1923 3.96749 20.1923 4.09874C20.1923 4.22999 20.1664 4.35996 20.1161 4.4812C20.0657 4.60245 19.992 4.7126 19.899 4.80536L4.343 20.3431C4.15547 20.5303 3.90116 20.6355 3.636 20.6355C3.37083 20.6355 3.11652 20.5303 2.929 20.3431L0.807996 18.2257C0.71502 18.1329 0.641261 18.0228 0.590936 17.9015C0.540612 17.7803 0.514709 17.6503 0.514709 17.5191C0.514709 17.3878 0.540612 17.2578 0.590936 17.1366C0.641261 17.0154 0.71502 16.9052 0.807996 16.8124L16.364 1.27475C16.5515 1.08751 16.8058 0.982325 17.071 0.982325C17.3362 0.982325 17.5905 1.08751 17.778 1.27475ZM8.586 0.567627L9.979 1.27075L11.414 0.567627L10.734 2.02582L11.414 3.39212L10.03 2.72894L8.586 3.39212L9.275 1.97388L8.585 0.567627H8.586ZM18.486 7.62885L19.879 8.33298L21.314 7.62985L20.634 9.08804L21.314 10.4543L19.93 9.79117L18.485 10.4543L19.175 9.03611L18.485 7.62985L18.486 7.62885Z" fill="#F2C94C"/>
</svg>
