<svg id="Layer_1" data-name="Layer 1" xmlns="http://www.w3.org/2000/svg" width="726" height="349" viewBox="0 0 726 349"><title>icons-video600s_1</title><path id="Clock-Icon" d="M7,21.25v3.5a.24.24,0,0,1-.23.25H4.25A.24.24,0,0,1,4,24.77H4v-.52A.24.24,0,0,1,4.23,24H6V21.25A.24.24,0,0,1,6.23,21h.52a.24.24,0,0,1,.25.23H7Zm2.68,4.88a4.26,4.26,0,0,0-1.55-5.82A4.09,4.09,0,0,0,6,19.75a4.08,4.08,0,0,0-2.13.57,4.26,4.26,0,0,0,0,7.37A4.09,4.09,0,0,0,6,28.25a4.08,4.08,0,0,0,2.13-.57A4.27,4.27,0,0,0,9.68,26.13ZM11.2,21a6,6,0,0,1,0,6A6.1,6.1,0,0,1,9,29.2,5.86,5.86,0,0,1,6,30a5.86,5.86,0,0,1-3-.8A6.1,6.1,0,0,1,.8,27a6,6,0,0,1,0-6A6.1,6.1,0,0,1,3,18.8,5.86,5.86,0,0,1,6,18a5.86,5.86,0,0,1,3,.8A6.1,6.1,0,0,1,11.2,21Z" fill="#ccc"/><g id="Icon-Play"><circle id="Oval" cx="32" cy="286" r="32" fill-opacity="0.75"/><polygon id="_" data-name=" " points="23.13 272.37 47 287.5 23.13 302.63 23.13 272.37" fill="#fff"/></g><path id="Bookmark" d="M276.39,163a.58.58,0,0,1,.48.17.52.52,0,0,1,.14.46v13.92a.35.35,0,0,1-.11.32.4.4,0,0,1-.34.11.52.52,0,0,1-.37-.16l-3.34-3.25a.45.45,0,0,0-.33-.12.4.4,0,0,0-.29.12l-3.43,3.29a.45.45,0,0,1-.33.12.4.4,0,0,1-.34-.11.35.35,0,0,1-.11-.32V163.64a.52.52,0,0,1,.14-.46.58.58,0,0,1,.48-.17Z" fill="#3b5999"/><path id="Bookmark-2" d="M250.39,162.5a.59.59,0,0,1,.63.51v15a.42.42,0,0,1-.34.47h-.11a.48.48,0,0,1-.37-.17l-3.34-3.47a.46.46,0,0,0-.33-.13.39.39,0,0,0-.29.13l-3.43,3.51a.46.46,0,0,1-.33.13.41.41,0,0,1-.47-.34h0a.29.29,0,0,1,0-.13V163.18a.57.57,0,0,1,.45-.67h7.93Z" fill="#ccc"/><polygon id="Comments" points="290 162.5 290 173.05 292.64 173.05 292.64 178.5 298.72 173.04 306 173.04 306 162.5 290 162.5" fill="#ccc"/><polygon id="Comments-2" points="316 162.5 316 173.05 318.64 173.05 318.64 178.5 324.72 173.04 332 173.04 332 162.5 316 162.5" fill="#9f224e"/><path id="Facebook" d="M166.07,179v-8h-2.71v-3.2h2.71v-2.53a4.16,4.16,0,0,1,1.13-3.11,4.11,4.11,0,0,1,3-1.11,18.45,18.45,0,0,1,2.46.14V164H171a1.64,1.64,0,0,0-1.3.42,1.81,1.81,0,0,0-.28,1.13v2.21h3L172,171h-2.57v8Z" fill="#3b5999"/><path id="Google-Plus" d="M196.11,169a6.1,6.1,0,0,1,.11,1.13,7.19,7.19,0,0,1-.81,3.43,5.92,5.92,0,0,1-2.29,2.34,6.72,6.72,0,0,1-3.37.84,6.63,6.63,0,0,1-3.39-.91,6.74,6.74,0,0,1,0-11.67,6.63,6.63,0,0,1,3.39-.91,6.34,6.34,0,0,1,4.5,1.76l-1.83,1.76a3.67,3.67,0,0,0-2.67-1,4.17,4.17,0,0,0-3.62,2.11,4.37,4.37,0,0,0,0,4.29,4.28,4.28,0,0,0,5.76,1.58,3.88,3.88,0,0,0,1.69-2.36h-3.83V169Zm6.5.25h2v2h-2v2h-2v-2h-1.93v-2h1.93v-2h2Z" fill="#dd4b39"/><path id="Twitter" d="M227.14,166.84a1.77,1.77,0,0,1,0,.46,10.4,10.4,0,0,1-1.23,4.89,10.08,10.08,0,0,1-3.55,4,10.65,10.65,0,0,1-11.39,0h.88a7.28,7.28,0,0,0,4.61-1.58,3.45,3.45,0,0,1-2.16-.72,3.71,3.71,0,0,1-1.28-1.81h.67a4.79,4.79,0,0,0,1-.11,3.72,3.72,0,0,1-2.11-1.3,3.52,3.52,0,0,1-.84-2.32v-.07a3.45,3.45,0,0,0,1.65.49,4.17,4.17,0,0,1-1.2-1.34,3.58,3.58,0,0,1,.07-3.62,10.35,10.35,0,0,0,7.59,3.87,4.76,4.76,0,0,1-.07-.84,3.74,3.74,0,0,1,.49-1.85,3.62,3.62,0,0,1,1.34-1.35,3.56,3.56,0,0,1,1.83-.49,3.66,3.66,0,0,1,1.49.32,4.24,4.24,0,0,1,1.21.84,7.64,7.64,0,0,0,2.36-.88,3.69,3.69,0,0,1-1.62,2,7.72,7.72,0,0,0,2.11-.6A8,8,0,0,1,227.14,166.84Z" fill="#55acee"/><g id="Icons_Circle_Play16" data-name="Icons Circle Play16"><g id="Icon-Play-2"><circle id="Oval-2" cx="8" cy="92" r="8" fill-opacity="0.75"/><polygon id="_2" data-name=" 2" points="5.53 88.34 11.5 92.13 5.53 95.91 5.53 88.34" fill="#fff"/></g></g><path id="_8" data-name=" 8" d="M29.65,53.62H16.22a.29.29,0,0,0-.14.08.22.22,0,0,0-.08.13v9a.29.29,0,0,0,.08.14.37.37,0,0,0,.14.07H29.77a.37.37,0,0,0,.14-.07.29.29,0,0,0,.08-.14v-9a.29.29,0,0,0-.08-.14.37.37,0,0,0-.14-.07h-.13v0ZM20.49,52h-3a.22.22,0,0,0-.08.13v1h3.33v-1a.22.22,0,0,0-.13-.08h-.13ZM23,62.1a3.81,3.81,0,0,1-.75-.07,5.31,5.31,0,0,1-.68-.2,2.91,2.91,0,0,1-.62-.35,4.22,4.22,0,0,1-.56-.47,4.13,4.13,0,0,1-.47-.55,2.46,2.46,0,0,1-.33-.62,3.22,3.22,0,0,1-.2-.69,4.74,4.74,0,0,1-.06-.75,3.08,3.08,0,0,1,.08-.68,2.36,2.36,0,0,1,.27-.68,3.55,3.55,0,0,1,.32-.61l.39-.56A4.71,4.71,0,0,1,21,55.4a2.46,2.46,0,0,1,.62-.33,3.31,3.31,0,0,1,.68-.2,4.15,4.15,0,0,1,.7-.07,4.74,4.74,0,0,1,.75.06l.68.11a2.91,2.91,0,0,1,.62.35,4.22,4.22,0,0,1,.56.47,4.13,4.13,0,0,1,.47.55,2.46,2.46,0,0,1,.33.62,3.22,3.22,0,0,1,.2.69,4.87,4.87,0,0,1,.06.76,4.74,4.74,0,0,1-.06.75,3.22,3.22,0,0,1-.2.69,2.46,2.46,0,0,1-.33.62,4.13,4.13,0,0,1-.47.55,4.22,4.22,0,0,1-.56.47,2.91,2.91,0,0,1-.62.35,5.31,5.31,0,0,1-.68.2,3.81,3.81,0,0,1-.75.07Zm0-6a2,2,0,0,0-.48.06l-.41.13-.39.28a1.07,1.07,0,0,0-.32.35,1,1,0,0,0-.34.32,1.79,1.79,0,0,0-.2.39l-.11.42a2,2,0,0,0-.06.49,1.74,1.74,0,0,0,.06.45l.11.45.27.39a2.08,2.08,0,0,0,.27.32,1.07,1.07,0,0,0,.32.35,1.79,1.79,0,0,0,.39.2l.41.11a2,2,0,0,0,.48.06,1.74,1.74,0,0,0,.45-.06l.45-.11.39-.29a1.07,1.07,0,0,0,.32-.35,1.33,1.33,0,0,0,.34-.33,1.79,1.79,0,0,0,.2-.39l.11-.42a2,2,0,0,0,.06-.48,4,4,0,0,0-.17-.9l-.27-.4a2.16,2.16,0,0,0-.27-.33,1.12,1.12,0,0,0-.32-.33,1.79,1.79,0,0,0-.39-.2l-.41-.13a2,2,0,0,0-.49-.09Z" fill="#999"/><path id="_7" data-name=" 7" d="M14,61.13H12.69L11.38,59.8V58.47l1.31-1.33H14v4Zm-14-3A1.48,1.48,0,0,1,.51,57a1.67,1.67,0,0,1,1.16-.46H9a1.67,1.67,0,0,1,1.16.46,1.48,1.48,0,0,1,.51,1.13v3.28a1.5,1.5,0,0,1-.47,1.13A1.62,1.62,0,0,1,9,63H1.67a1.67,1.67,0,0,1-1.16-.46A1.48,1.48,0,0,1,0,61.41ZM6,54a1.88,1.88,0,0,1,.57-1.38,2.08,2.08,0,0,1,2.86,0,1.94,1.94,0,0,1,0,2.73h0a2.08,2.08,0,0,1-2.86,0A1.89,1.89,0,0,1,6,54ZM.7,54a1.85,1.85,0,0,1,.58-1.38,2.07,2.07,0,0,1,2.87,0,1.94,1.94,0,0,1,0,2.73h0a2.07,2.07,0,0,1-2.87,0A1.86,1.86,0,0,1,.7,54Z" fill="#999"/><path id="_5" data-name=" 5" d="M33.11,91c-1.95,1.33-3.44,2.39-4.45,3.18l-.83.6a5.6,5.6,0,0,1-.84.44,2.61,2.61,0,0,1-1,.23h0a2.61,2.61,0,0,1-1-.23,5.6,5.6,0,0,1-.84-.44l-.83-.6q-1.2-.92-4.44-3.18a5.26,5.26,0,0,1-.9-.8v7.33A1.46,1.46,0,0,0,19.43,99H32.57A1.47,1.47,0,0,0,34,97.52V90.19A4.56,4.56,0,0,1,33.11,91Zm.47-4.56a1.35,1.35,0,0,0-1-.43H19.43a1.27,1.27,0,0,0-1.06.48,1.86,1.86,0,0,0-.37,1.2A2.22,2.22,0,0,0,18.49,89a4.42,4.42,0,0,0,1,1.07l1.83,1.32L23.71,93l.38.28.48.35.46.3a3,3,0,0,0,.51.25,1.38,1.38,0,0,0,.45.08h0a1.38,1.38,0,0,0,.45-.08,3,3,0,0,0,.51-.25l.46-.3.48-.35L28.3,93l4.18-3a4.38,4.38,0,0,0,1.09-1.14A2.45,2.45,0,0,0,34,87.48,1.45,1.45,0,0,0,33.58,86.44Z" fill="#ccc"/><polygon id="Arrow_Right" data-name="Arrow Right" points="39 84.95 40.2 84 50 92 40.2 100 39 99.05 47.59 92 39 84.95" fill="#ccc"/><g id="Group"><rect id="Rectangle" y="123" width="18" height="2" fill="#9b9b9b"/><rect id="Rectangle-2" y="128" width="18" height="2" fill="#9b9b9b"/><rect id="Rectangle-3" y="133" width="18" height="2" fill="#9b9b9b"/></g><path id="Icon_User" data-name="Icon User" d="M20,137v-.4a4.33,4.33,0,0,1,.19-.79,2,2,0,0,1,.48-.85,3.92,3.92,0,0,1,1.19-.64c.59-.23,1.26-.48,2-.74a14.48,14.48,0,0,0,1.65-.65,2.33,2.33,0,0,0,1-.94,2.57,2.57,0,0,0,.36-1.3,1.79,1.79,0,0,0-.57-1.08,4.7,4.7,0,0,1-.93-1.75,8.5,8.5,0,0,1-.36-2.55,5.51,5.51,0,0,1,.32-1.93A3.64,3.64,0,0,1,26.2,122a3.68,3.68,0,0,1,1.25-.77A4.29,4.29,0,0,1,29,121a4,4,0,0,1,1.49.26,3.8,3.8,0,0,1,1.24.77,3.53,3.53,0,0,1,.87,1.35,5.51,5.51,0,0,1,.32,1.93,8.49,8.49,0,0,1-.35,2.55,4.7,4.7,0,0,1-.93,1.75,1.79,1.79,0,0,0-.57,1.08,2.48,2.48,0,0,0,.37,1.3,2.3,2.3,0,0,0,1,1,14.48,14.48,0,0,0,1.65.65c.75.26,1.41.51,2,.74a3.76,3.76,0,0,1,1.18.64,2,2,0,0,1,.48.81,3.22,3.22,0,0,1,.19.87v.35Z" fill="#ccc"/><path id="_3" data-name=" 3" d="M69,86.5v11A1.49,1.49,0,0,1,67.52,99H64.84V93.47h1.88L67,91.34H64.84V90a1.24,1.24,0,0,1,.19-.75,1.08,1.08,0,0,1,.84-.28H67V87.09A11,11,0,0,0,65.38,87a2.69,2.69,0,0,0-2,.73,2.77,2.77,0,0,0-.73,2v1.56h-1.9v2.13h1.91V99H56.5A1.49,1.49,0,0,1,55,97.52h0v-11A1.49,1.49,0,0,1,56.46,85h11A1.49,1.49,0,0,1,69,86.46v0Z" fill="#004f8b"/><path id="_4" data-name=" 4" d="M87.68,88.72A12.42,12.42,0,0,1,88,91.07v2.86a12.69,12.69,0,0,1-.29,2.38,2,2,0,0,1-.53.86,2,2,0,0,1-.91.52,21.44,21.44,0,0,1-3.58.29L80,98H77.33a21.44,21.44,0,0,1-3.58-.29,2,2,0,0,1-.91-.52,2,2,0,0,1-.53-.86,12.93,12.93,0,0,1-.31-2.4V91.07a12.38,12.38,0,0,1,.29-2.35,2,2,0,0,1,1.44-1.41,20.67,20.67,0,0,1,3.6-.31h5.34a21.44,21.44,0,0,1,3.58.29A2,2,0,0,1,87.68,88.72Zm-9.32,6.13,4.19-2.35-4.19-2.32Z" fill="#cd201f"/><path id="Icon_Search" data-name="Icon Search" d="M72.88,131.34,78,136.45,76.45,138l-5.11-5.11v-.82l-.29-.29a6.42,6.42,0,0,1-4.34,1.59A6.49,6.49,0,0,1,62,131.44a6.4,6.4,0,0,1-2-4.73A6.67,6.67,0,0,1,66.63,120h.07a6.4,6.4,0,0,1,4.73,2,6.5,6.5,0,0,1,1.93,4.75,6.42,6.42,0,0,1-1.59,4.34l.29.29h.82Zm-6.18,0A4.61,4.61,0,1,0,63.42,130a4.49,4.49,0,0,0,3.28,1.35Z" fill="#999"/><polygon id="Rectangle_1_copy_2" data-name="Rectangle 1 copy 2" points="58 136.2 56.2 138 49 130.8 41.8 138 40 136.2 47.2 129 40 121.8 41.8 120 49 127.2 56.2 120 58 121.8 50.8 129 58 136.2" fill="#999"/><polygon id="Rectangle_1_copy_2-Copy" data-name="Rectangle 1 copy 2-Copy" points="94 62.6 92.6 64 87 58.4 81.4 64 80 62.6 85.6 57 80 51.4 81.4 50 87 55.6 92.6 50 94 51.4 88.4 57 94 62.6" fill="#ccc"/><path id="_5-2" data-name=" 5-2" d="M56,24a5.75,5.75,0,0,1,.81-3,6,6,0,1,1,0,6A5.75,5.75,0,0,1,56,24Zm10.84,0a4.67,4.67,0,0,0-.65-2.42,5,5,0,0,0-1.77-1.77,4.81,4.81,0,0,0-4.84,0,5,5,0,0,0-1.77,1.77,4.81,4.81,0,0,0,0,4.84,5,5,0,0,0,1.77,1.77,4.81,4.81,0,0,0,4.84,0,5,5,0,0,0,1.77-1.77A4.67,4.67,0,0,0,66.84,24Zm-1.74.48a.29.29,0,0,1-.29.29H62V26.4a.27.27,0,0,1-.18.27.25.25,0,0,1-.3-.07l-2.4-2.4A.24.24,0,0,1,59,24a.32.32,0,0,1,.1-.22l2.4-2.4a.34.34,0,0,1,.48.27v1.62h2.81a.29.29,0,0,1,.29.29h0Z" fill="#004f8b"/><path id="_-copy" data-name=" -copy" d="M70,24a5.75,5.75,0,0,1,.81-3,6,6,0,1,1,0,6A5.75,5.75,0,0,1,70,24Zm10.84,0a4.67,4.67,0,0,0-.65-2.42,5,5,0,0,0-1.77-1.77,4.81,4.81,0,0,0-4.84,0,5,5,0,0,0-1.77,1.77,4.81,4.81,0,0,0,0,4.84,5,5,0,0,0,1.77,1.77,4.81,4.81,0,0,0,4.84,0,5,5,0,0,0,1.77-1.77A4.67,4.67,0,0,0,80.84,24Zm-1.74.48a.29.29,0,0,1-.29.29H76V26.4a.27.27,0,0,1-.18.27.25.25,0,0,1-.3-.07l-2.4-2.4A.24.24,0,0,1,73,24a.32.32,0,0,1,.1-.22l2.4-2.4a.34.34,0,0,1,.48.27v1.62h2.81a.29.29,0,0,1,.29.29h0Z" fill="#9b9b9b"/><polygon id="Rectangle_1_copy_2-Copy-2" data-name="Rectangle 1 copy 2-Copy-2" points="54 28.8 52.8 30 48 25.2 43.2 30 42 28.8 46.8 24 42 19.2 43.2 18 48 22.8 52.8 18 54 19.2 49.2 24 54 28.8" fill="#ccc"/><path id="Icon_Apple" data-name="Icon Apple" d="M16.39,158a5.33,5.33,0,0,1-1.12,3.88,4.29,4.29,0,0,1-3.49,1.88h-.06A4.88,4.88,0,0,1,12.83,160,5,5,0,0,1,16.39,158Zm.5,5.63a5.46,5.46,0,0,1,4.43,2.44,5,5,0,0,0-2.43,3.06A5.4,5.4,0,0,0,19.2,173a5,5,0,0,0,2.8,2.63,18.21,18.21,0,0,1-1.5,2.87c-1.49,2.33-2.85,3.5-4.06,3.5h-.06a4.44,4.44,0,0,1-1.78-.5,5,5,0,0,0-4.37,0,4.44,4.44,0,0,1-1.78.5h0q-1.87,0-4-3.31a14.57,14.57,0,0,1-2.31-6.63,8.26,8.26,0,0,1,1-5.44,5.58,5.58,0,0,1,4.87-3,7.53,7.53,0,0,1,2.34.5,7.17,7.17,0,0,0,2.09.5,6.6,6.6,0,0,0,2-.5A7.32,7.32,0,0,1,16.89,163.63Z"/><g id="google_icon" data-name="google icon"><path id="Polygon_1_copy" data-name="Polygon 1 copy" d="M43,166l-14.29-7.92h0a1.22,1.22,0,0,0-1.61.63h0a1.16,1.16,0,0,0-.1.49v9.43l11.21,8Z" fill="#00f076"/><path id="Icon_VnExpress" data-name="Icon VnExpress" d="M27.36,158.34,43.28,173.9,29,181.73a1.22,1.22,0,0,1-2-.93V159.2A1.22,1.22,0,0,1,27.36,158.34Z" fill="#00d5ff"/><path id="Icon_VnExpress_copy_2" data-name="Icon VnExpress copy 2" d="M27.36,158.34,41,171.66,30,180a12.55,12.55,0,0,1-1.78,2A1.21,1.21,0,0,1,27,180.8h0V159.2A1.22,1.22,0,0,1,27.36,158.34Z" fill="#00d5ff"/><path id="Icon_Google_24_copy_2" data-name="Icon Google 24 copy 2" d="M42.16,174.51l6.06-3.32a1.21,1.21,0,0,0,.06-2.23h0l-5.1-2.83-4.36,4.27Z" fill="#ffd800"/><path id="Icon_Google_24_copy" data-name="Icon Google 24 copy" d="M39.24,170l4,3.94L29,181.73a1.22,1.22,0,0,1-1.68-.1Z" fill="#fc3944"/></g><g id="Icons_Circle_Play" data-name="Icons Circle Play"><g id="Icon-Play-3"><circle id="Oval-3" cx="16" cy="218" r="16" fill-opacity="0.75"/><polygon id="_6" data-name=" 6" points="11.07 210.68 23 218.25 11.07 225.82 11.07 210.68" fill="#fff"/></g></g><path id="_10" data-name=" 10" d="M14,18H26V30H14Zm9.75,5.63H20.37V20.25h-.74v3.38H16.25v.74h3.38v3.38h.74V24.37h3.38Z" fill="#ccc"/><path id="_11" data-name=" 11" d="M28,18H40V30H28Zm9.75,5.63h-7.5v.74h7.49v-.74Z" fill="#ccc"/><g id="like_n_dislike" data-name="like n dislike"><path id="_copy_2-3" data-name=" copy 2-3" d="M33,62.18h2.55V56.31H33v5.88Zm3.2-5.88a3.79,3.79,0,0,0,2.29-1.66,2.39,2.39,0,0,0,.14-.84v-1c0-.3-.06-.77-.12-1.27a1,1,0,0,1,1-.49,1.46,1.46,0,0,1,1,.55,1.73,1.73,0,0,1,.39,1.11,1.83,1.83,0,0,1,0,.66,1,1,0,0,0-.12.41,6.74,6.74,0,0,0-.08,1h3.6A2.28,2.28,0,0,1,45,56a1.4,1.4,0,0,1-.17,1,.79.79,0,0,0-.24.46.6.6,0,0,0,.12.32.82.82,0,0,1,.12.43,1,1,0,0,1-.22.72,1.36,1.36,0,0,0-.27.36.32.32,0,0,0,.09.32.74.74,0,0,1,.15.5.76.76,0,0,1-.33.69.36.36,0,0,0-.33.39.37.37,0,0,0,.1.22.69.69,0,0,1,0,.35,1.72,1.72,0,0,1-.9,1.24H38.33a2,2,0,0,1-.73-.83H36.22V56.31Z" fill="#9f224e"/></g><g id="like_n_dislike-copy" data-name="like n dislike-copy"><path id="_copy_2-3-2" data-name=" copy 2-3-2" d="M49,62.18h2.55V56.31H49v5.88Zm3.2-5.88a3.79,3.79,0,0,0,2.29-1.66,2.39,2.39,0,0,0,.14-.84v-1c0-.3-.06-.77-.12-1.27a1,1,0,0,1,1-.49,1.46,1.46,0,0,1,1,.55,1.73,1.73,0,0,1,.39,1.11,1.83,1.83,0,0,1,0,.66,1,1,0,0,0-.12.41,6.74,6.74,0,0,0-.08,1h3.6A2.28,2.28,0,0,1,61,56a1.4,1.4,0,0,1-.17,1,.79.79,0,0,0-.24.46.6.6,0,0,0,.12.32.82.82,0,0,1,.12.43,1,1,0,0,1-.22.72,1.36,1.36,0,0,0-.27.36.32.32,0,0,0,.09.32.74.74,0,0,1,.15.5.76.76,0,0,1-.33.69.36.36,0,0,0-.33.39.37.37,0,0,0,.1.22.69.69,0,0,1,0,.35,1.72,1.72,0,0,1-.9,1.24H54.33a2,2,0,0,1-.73-.83H52.22V56.31Z" fill="#999"/></g><path id="Icon_Google_24" data-name="Icon Google 24" d="M114.54,168.31a3,3,0,0,0,.42-2.06,3.53,3.53,0,0,0-.91-2.06,2.37,2.37,0,0,0-1.71-.87,1.63,1.63,0,0,0-1.48.8,2.87,2.87,0,0,0-.38,2,4,4,0,0,0,.94,2.09,2.35,2.35,0,0,0,1.69.91A1.54,1.54,0,0,0,114.54,168.31Zm-.38,4.13a4.25,4.25,0,0,0-1.22-.19,4.07,4.07,0,0,0-2.41.75,2.14,2.14,0,0,0-1.06,1.73,2.34,2.34,0,0,0,.89,1.83,3.38,3.38,0,0,0,2.25.75q3.52,0,3.52-2.49a1.54,1.54,0,0,0-.09-.52.76.76,0,0,0,0-.3,1.61,1.61,0,0,0-.21-.3l-.24-.26a2.09,2.09,0,0,0-.28-.24L115,173l-.4-.28a2.59,2.59,0,0,1-.39-.25ZM125,168.55h-3v3h-1.5v-3h-3V167h3v-3H122v3h3Zm-12.33,9.52a7.27,7.27,0,0,1-3.49-.77,2.29,2.29,0,0,1-1.43-2,3,3,0,0,1,1.38-2.37,5.29,5.29,0,0,1,3.3-1.06h.84a1.93,1.93,0,0,1-.66-1.36,2.14,2.14,0,0,1,.23-.89,1.48,1.48,0,0,1-.42,0,3.56,3.56,0,0,1-2.63-1,3.35,3.35,0,0,1-1-2.46,3.15,3.15,0,0,1,1.27-2.46,4.4,4.4,0,0,1,2.91-1h4.78l-1.08.75h-1.5a2.21,2.21,0,0,1,1.13,1,3.52,3.52,0,0,1,.42,1.71,3,3,0,0,1-1.36,2.49,4.32,4.32,0,0,0-.75.73,1.17,1.17,0,0,0-.19.68,2.43,2.43,0,0,0,1.27,1.45,4.43,4.43,0,0,1,1.31,1.38,3.7,3.7,0,0,1,.38,1.76,3,3,0,0,1-1.27,2.39,5.27,5.27,0,0,1-3.45,1Zm11.82-16.55A12,12,0,1,0,128,170a11.54,11.54,0,0,0-3.52-8.49Z" fill="#da5542" opacity="0.75" style="isolation:isolate"/><path id="Icon_RSS" data-name="Icon RSS" d="M135.59,175.82a2.58,2.58,0,1,0,1.83.76A2.52,2.52,0,0,0,135.59,175.82Zm8.41.12a12.25,12.25,0,0,0-5.94-5.94,12.09,12.09,0,0,0-4.13-1.09h-.07a.88.88,0,0,0-.86.86v1.82a.89.89,0,0,0,.22.58.79.79,0,0,0,.56.27,8.62,8.62,0,0,1,7.77,7.77.79.79,0,0,0,.27.56.89.89,0,0,0,.58.22h1.82a.81.81,0,0,0,.63-.28.82.82,0,0,0,.23-.65A12,12,0,0,0,144,175.94Zm6.37-2.61a19.38,19.38,0,0,0-9.71-9.71A18.56,18.56,0,0,0,133.9,162h0a.88.88,0,0,0-.86.86v1.93a.86.86,0,0,0,.81.85,15.5,15.5,0,0,1,13.16,9,15,15,0,0,1,1.36,5.51.82.82,0,0,0,.26.57.85.85,0,0,0,.6.24h1.93a.87.87,0,0,0,.86-.88v0a18.63,18.63,0,0,0-1.64-6.73Z" fill="#999"/><path id="Icon_Facebook_24" data-name="Icon Facebook 24" d="M67.09,170h-2v7.22H62.45V170H60.62v-2.48h1.83v-1.45a4.11,4.11,0,0,1,.61-2.46,2.71,2.71,0,0,1,2.3-.82h2v2.48H66.11a1,1,0,0,0-.82.23,1.48,1.48,0,0,0-.16.8v1.22h2.25Zm5.39-8.48A12,12,0,1,0,76,170a11.54,11.54,0,0,0-3.52-8.49Z" fill="#3b589c" opacity="0.75" style="isolation:isolate"/><path id="Icon_Twitter_24" data-name="Icon Twitter 24" d="M96,167.33a1.15,1.15,0,0,1,0,.37,8.53,8.53,0,0,1-2.3,5.79,7.79,7.79,0,0,1-6.14,2.6,8.23,8.23,0,0,1-4.5-1.31,4.09,4.09,0,0,0,.7,0,5.8,5.8,0,0,0,3.66-1.27,3,3,0,0,1-1.73-.61,2.79,2.79,0,0,1-1-1.45,2.62,2.62,0,0,0,.56,0,3.57,3.57,0,0,0,.8-.09,3.15,3.15,0,0,1-1.71-1,2.78,2.78,0,0,1-.68-1.87h0a2.51,2.51,0,0,0,1.36.37,2.77,2.77,0,0,1-1.36-2.44,2.83,2.83,0,0,1,.42-1.5A8,8,0,0,0,90.14,168a2.74,2.74,0,0,1-.09-.7,3,3,0,0,1,3-3,2.79,2.79,0,0,1,2.16.94,5.43,5.43,0,0,0,1.87-.7,2.79,2.79,0,0,1-1.27,1.64,5.91,5.91,0,0,0,1.69-.47A6.42,6.42,0,0,1,96,167.33Zm2.53-5.81A12,12,0,1,0,102,170a11.54,11.54,0,0,0-3.52-8.49Z" fill="#55acee" opacity="0.75" style="isolation:isolate"/><path id="Icon_Comment_copy" data-name="Icon Comment copy" d="M65,51H77v8H65Zm2,12V59h4.67Z" fill="#9f224e"/><path id="_copy-7" data-name=" copy-7" d="M82.87,127.14a1.16,1.16,0,0,1-1.13-1,1.19,1.19,0,0,1,.69-1.33,1.13,1.13,0,0,1,1.39.44,1.21,1.21,0,0,1-.14,1.5A1.1,1.1,0,0,1,82.87,127.14Zm10.37,3.3-6.4-6.6a3.09,3.09,0,0,0-2-.84H81.15A1.18,1.18,0,0,0,80,124.18V128a2.88,2.88,0,0,0,.24,1.08,2.8,2.8,0,0,0,.58.93l6.4,6.62a1.1,1.1,0,0,0,.8.34,1.13,1.13,0,0,0,.81-.34l4.4-4.55a1.12,1.12,0,0,0,.33-.83,1.2,1.2,0,0,0-.33-.84Zm3.44,0-6.4-6.6a3.09,3.09,0,0,0-2-.84h-2a3.09,3.09,0,0,1,2,.84l6.4,6.6a1.2,1.2,0,0,1,.33.84,1.12,1.12,0,0,1-.33.83l-4.21,4.35a3.07,3.07,0,0,0,.47.41,1,1,0,0,0,.53.13,1.15,1.15,0,0,0,.82-.34l4.4-4.55a1.12,1.12,0,0,0,.33-.83,1.2,1.2,0,0,0-.33-.84Z" fill="#999"/><path id="_7-2" data-name=" 7-2" d="M117.71,130.87a.11.11,0,0,1,0,.08,9.08,9.08,0,0,1-3.14,5.09,8.6,8.6,0,0,1-5.6,2,8.74,8.74,0,0,1-3.31-.64,9,9,0,0,1-2.85-1.84L101.28,137a.75.75,0,0,1-1.28-.53v-5.25a.77.77,0,0,1,.75-.75H106a.75.75,0,0,1,.53,1.28l-1.61,1.61a6,6,0,0,0,7,.86,5.86,5.86,0,0,0,2.18-2.1,14,14,0,0,0,.62-1.37.35.35,0,0,1,.35-.27h2.25a.38.38,0,0,1,.38.38h0Zm.29-9.37v5.25a.77.77,0,0,1-.75.75H112a.75.75,0,0,1-.53-1.28l1.62-1.62A5.81,5.81,0,0,0,109,123a6,6,0,0,0-5.11,2.86,14,14,0,0,0-.62,1.37.35.35,0,0,1-.35.27h-2.33a.39.39,0,0,1-.37-.37V127a9.11,9.11,0,0,1,3.16-5.09,8.7,8.7,0,0,1,5.63-2,8.86,8.86,0,0,1,3.33.65,9,9,0,0,1,2.87,1.83l1.52-1.51a.75.75,0,0,1,1.28.53Z" fill="#4a4a4a"/><path id="Icon-Playlist" d="M35,206H62v3H35Zm0,9H62v3H35Zm0,9H53v3H35Zm22-4,7.73,5.39L57,231Z" fill="#ccc"/><path id="Icon-Playlist-2" d="M70,206H97v3H70Zm0,9H97v3H70Zm0,9H88v3H70Zm22-4,7.73,5.39L92,231Z" fill="#666"/><polygon id="_8-2" data-name=" 8-2" points="106 202 131.24 218 106 234 106 202" fill="#fff"/><polygon id="Arrow_Right_copy" data-name="Arrow Right copy" points="102.99 84.95 101.79 84 92 92 101.79 100 102.99 99.05 94.4 92 102.99 84.95" fill="#ccc"/><polygon id="Arrow_Right_copy_2" data-name="Arrow Right copy 2" points="123.05 97.99 124 96.79 116 87 108 96.79 108.95 97.99 116 89.4 123.05 97.99" fill="#ccc"/><polygon id="Arrow_Right_copy_3" data-name="Arrow Right copy 3" points="141.05 87 142 88.2 134 97.99 126 88.2 126.95 87 134 95.58 141.05 87" fill="#ccc"/><path id="Icon-Playlist-3" d="M144,86h14.53v1.61H144Zm0,4.84h14.53v1.61H144Zm0,4.84h9.69V97.3H144Zm11.84-2.15,4.16,2.9-4.16,3Z" fill="#ccc"/><path id="_9" data-name=" 9" d="M162,92a7.7,7.7,0,0,1,1.08-4,8,8,0,1,1,0,8A7.7,7.7,0,0,1,162,92Zm14.45,0a6.22,6.22,0,0,0-.87-3.23,6.61,6.61,0,0,0-2.35-2.35,6.41,6.41,0,0,0-6.45,0,6.61,6.61,0,0,0-2.35,2.35,6.41,6.41,0,0,0,0,6.45,6.61,6.61,0,0,0,2.35,2.35,6.41,6.41,0,0,0,6.45,0,6.61,6.61,0,0,0,2.35-2.35A6.18,6.18,0,0,0,176.45,92Zm-2.32.65a.38.38,0,0,1-.37.39H170V95.2a.35.35,0,0,1-.24.35.31.31,0,0,1-.4-.1l-3.19-3.19A.32.32,0,0,1,166,92a.39.39,0,0,1,.13-.29l3.19-3.19a.34.34,0,0,1,.4-.06.35.35,0,0,1,.24.35V91h3.74a.38.38,0,0,1,.39.37v0Z" fill="#004f8b"/><path id="Icon-Playlist-4" d="M338,160h21.8v2.42H338Zm0,7.27h21.8v2.42H338Zm0,7.27h14.53V177H338Zm17.76-3.23,6.24,4.35-6.24,4.53Z" fill="#ccc"/><path d="M106.14,51.56c-2.64-1.9-5.27,1.8-7.91.51V51.8a.62.62,0,0,0-.69-.54.64.64,0,0,0-.54.54V62.39a.62.62,0,0,0,.69.54.64.64,0,0,0,.54-.54V57.9c2.51,1.22,5-2.06,7.52-.75a.35.35,0,0,0,.37,0,.38.38,0,0,0,.18-.32v-5a.37.37,0,0,0-.16-.3Z" fill="#999"/><path d="M118.44,51.56c-2.64-1.9-5.27,1.8-7.91.51V51.8a.62.62,0,0,0-.69-.54.64.64,0,0,0-.54.54V62.39a.62.62,0,0,0,.69.54.64.64,0,0,0,.54-.54V57.9c2.51,1.22,5-2.06,7.52-.75a.35.35,0,0,0,.37,0,.38.38,0,0,0,.18-.32v-5a.37.37,0,0,0-.16-.3Z" fill="#9f224e"/><path d="M129.6,51h-10V67l6-3,6,3V51Zm-1.66,10.22L125.6,60l-2.34,1.23.44-2.61-1.89-1.84,2.62-.38L125.6,54l1.17,2.38,2.62.38L127.5,58.6Z" fill="#fcc059"/><path d="M145.1,51H132.6V71l7.5-3.75L147.6,71V51ZM143,63.78l-2.92-1.53-2.93,1.54.55-3.27-2.36-2.3,3.28-.47,1.46-3,1.46,3,3.28.47-2.37,2.3Z" fill="#fcc059"/></svg>