<svg aria-hidden="true" style="position: absolute; width: 0; height: 0; overflow: hidden;" version="1.1" xmlns="http://www.w3.org/2000/svg" xmlns:xlink="http://www.w3.org/1999/xlink">
<defs>
<symbol id="icon-Reply" viewBox="0 0 32 32">
<title>Reply</title>
<path d="M31.896 16.271l-13.815-9.203c-0.232-0.123-0.51 0-0.51 0.247v5.752c-15.716-0.945-17.57-7.066-17.57-7.066 0 12.736 11.497 14.502 17.57 14.543v5.176c0 0.246 0.278 0.37 0.51 0.205l13.815-9.203c0.139-0.123 0.139-0.329 0-0.452z"></path>
</symbol>
<symbol id="icon-Ads" viewBox="0 0 32 32">
<title>Ads</title>
<path d="M7.645 20.28c0.032 1.136 1.131 1.305 1.59 1.375 0.036 0.005 0.068 0.010 0.095 0.015 2.075 0.020 3.45-1.29 3.38-2.94-0.003-0.039-0.004-0.080-0.005-0.121-0.005-0.223-0.009-0.439-0.385-0.354-0.377 0.074-0.757 0.145-1.138 0.215-0.85 0.158-1.704 0.316-2.547 0.52-0.6 0.14-1.010 0.595-0.99 1.29z"></path>
<path d="M24.070 19.905c-0.975 2.38-3.645 2.165-4.5 0.26-0.755-1.665-0.775-3.41 0.020-5.075 0.815-1.705 2.985-1.785 4.075-0.24 1.030 1.44 0.745 4.23 0.405 5.055z"></path>
<path d="M2 0h28c1.105 0 2 0.895 2 2v28c0 1.105-0.895 2-2 2h-28c-1.105 0-2-0.895-2-2v-28c0-1.105 0.895-2 2-2zM7.91 15.385c0.605-1.605 2.835-2.18 4.21-1.17 0.47 0.36 0.62 0.855 0.565 1.365-0.048 0.506-1.11 0.636-2.382 0.791-1.128 0.138-2.42 0.296-3.318 0.754-1.36 0.695-2.135 2.085-1.98 3.55 0.335 3.235 4.48 3.985 7.35 2.165 0.23-0.16 0.415-0.245 0.595-0.050 0.053 0.065 0.078 0.115 0.101 0.163s0.046 0.092 0.094 0.147c0.365 0.48 1.91 0.705 2.33 0.37 0.155-0.14 0.23-0.315 0.135-0.535-0.464-1.040-0.448-2.126-0.435-3.12 0.006-0.465 0.013-0.909-0.030-1.32 0-0.434 0.005-0.847 0.010-1.239 0.033-2.737 0.054-4.452-1.735-5.186-2.095-0.87-4.21-0.83-6.265 0.24-0.815 0.45-2.685 2.645-1.245 3.215 0.265 0.115 0.64 0.2 1.125 0.275l0.079 0.012c0.364 0.056 0.595 0.091 0.796-0.427zM25.782 25.831c0.314 0.042 0.673 0.091 0.673-0.516 0-0.581-0.323-0.545-0.627-0.511-0.070 0.008-0.139 0.016-0.203 0.016-6.615-0.020-13.225-0.020-19.84 0-0.066 0-0.139-0.010-0.213-0.019-0.299-0.039-0.626-0.082-0.642 0.474-0.016 0.629 0.336 0.589 0.668 0.552 0.077-0.009 0.153-0.017 0.222-0.017h19.745c0.066 0 0.14 0.010 0.217 0.021zM26.645 22.84v-14.55c0-0.010 0-0.015 0.005-0.025 0-0.495-0.175-0.755-0.68-0.715-0.104 0.013-0.217 0.009-0.327 0.004-0.054-0.002-0.107-0.004-0.158-0.004-0.651 0-0.976 0-1.138 0.162s-0.162 0.486-0.162 1.133v3.565c-3.96-2.28-6.215 0.33-6.805 1.525-0.82 1.645-1.090 3.33-0.785 5 0.815 4.615 4.55 5.745 7.22 4.26 0.044-0.027 0.084-0.058 0.121-0.086 0.155-0.12 0.265-0.205 0.499 0.146 0.309 0.457 0.787 0.391 1.261 0.325 0.185-0.025 0.37-0.051 0.544-0.045 0.37 0 0.405-0.41 0.405-0.695z"></path>
</symbol>
<symbol id="icon-Advice" viewBox="0 0 32 32">
<title>Advice</title>
<path d="M30 8h-2v12c0 1.1-0.9 2-2 2h-12.3l-3.7 4h10l6 6v-6h4c1.1 0 2-0.9 2-2v-14c0-1.1-0.9-2-2-2z"></path>
<path d="M2 0h20c1.1 0 2 0.9 2 2v14c0 1.1-0.9 2-2 2h-10l-6 6v-6h-4c-1.1 0-2-0.9-2-2v-14c0-1.1 0.9-2 2-2z"></path>
</symbol>
<symbol id="icon-align-center" viewBox="0 0 32 32">
<title>align-center</title>
<path d="M32 2.1h-32v4h32v-4z"></path>
<path d="M26 10.1h-20v4h20v-4z"></path>
<path d="M32 18.1h-32v4h32v-4z"></path>
<path d="M26 26.1h-20v4h20v-4z"></path>
</symbol>
<symbol id="icon-align-left" viewBox="0 0 32 32">
<title>align-left</title>
<path d="M32 2.1h-32v4h32v-4z"></path>
<path d="M20 10.1h-20v4h20v-4z"></path>
<path d="M32 18.1h-32v4h32v-4z"></path>
<path d="M20 26.1h-20v4h20v-4z"></path>
</symbol>
<symbol id="icon-align-right" viewBox="0 0 32 32">
<title>align-right</title>
<path d="M32 2.1h-32v4h32v-4z"></path>
<path d="M32 10.1h-20v4h20v-4z"></path>
<path d="M32 18.1h-32v4h32v-4z"></path>
<path d="M32 26.1h-20v4h20v-4z"></path>
</symbol>
<symbol id="icon-Arrow-Left-1" viewBox="0 0 32 32">
<title>Arrow-Left-1</title>
<path d="M22.2 0.6l3 2.8-12.6 12.6 12.6 12.6-3 2.8-15.4-15.4 15.4-15.4z"></path>
</symbol>
<symbol id="icon-Arrow-Right-1" viewBox="0 0 32 32">
<title>Arrow-Right-1</title>
<path d="M9.8 31.4l-3-2.8 12.6-12.6-12.6-12.6 3-2.8 15.4 15.4-15.4 15.4z"></path>
</symbol>
<symbol id="icon-Arrow-Right-2" viewBox="0 0 32 32">
<title>Arrow-Right-2</title>
<path d="M18.6 2.6l-2.8 2.8 8.6 8.6h-24.4v4h24.4l-8.6 8.6 2.8 2.8 13.4-13.4-13.4-13.4z"></path>
</symbol>
<symbol id="icon-Arrow-Up-1" viewBox="0 0 32 32">
<title>Arrow-Up-1</title>
<path d="M2.6 13.4l2.8 2.8 8.6-8.6v24.4h4v-24.4l8.6 8.6 2.8-2.8-13.4-13.4-13.4 13.4z"></path>
</symbol>
<symbol id="icon-Article-Video" viewBox="0 0 32 32">
<title>Article-Video</title>
<path d="M19.9 17.2l-6 4.5c-0.9 0.75-2.4 0-2.4-1.2v-9c0-1.2 1.35-1.95 2.4-1.2l6 4.5c0.75 0.6 0.75 1.8 0 2.4zM26.5 4h-21c-0.9 0-1.5 0.6-1.5 1.5v21c0 0.9 0.6 1.5 1.5 1.5h21c0.9 0 1.5-0.6 1.5-1.5v-21c0-0.9-0.6-1.5-1.5-1.5z"></path>
</symbol>
<symbol id="icon-Article-Video-2" viewBox="0 0 32 32">
<title>Article-Video-2</title>
<path d="M24.87 18.401l-12.050 9c-1.808 1.5-4.82 0-4.82-2.4v-18c0-2.4 2.711-3.9 4.82-2.4l12.050 9c1.506 1.2 1.506 3.6 0 4.8z"></path>
</symbol>
<symbol id="icon-Bell" viewBox="0 0 32 32">
<title>Bell</title>
<path d="M30 21.713v0.573c0 0.95-0.752 1.713-1.681 1.713h-24.638c-0.929 0-1.681-0.767-1.681-1.713v-0.573c0-1.891 1.504-3.425 3.36-3.428v-7.429c0-5.998 4.763-10.857 10.64-10.857s10.64 4.86 10.64 10.857v7.429c1.859 0.003 3.36 1.535 3.36 3.428z"></path>
<path d="M13 26h-1c0 2.209 1.791 4 4 4s4-1.791 4-4h-7z"></path>
</symbol>
<symbol id="icon-Bell-2" viewBox="0 0 32 32">
<title>Bell-2</title>
<path d="M16.444 0.009c-0.147-0.006-0.295-0.009-0.444-0.009-5.877 0-10.64 4.859-10.64 10.857v7.429c-1.856 0.003-3.36 1.537-3.36 3.428v0.573c0 0.947 0.752 1.713 1.681 1.713h24.638c0.929 0 1.681-0.764 1.681-1.713v-0.573c0-0.054-0.001-0.107-0.004-0.16-8.014-1.82-13.996-8.988-13.996-17.553 0-1.371 0.153-2.707 0.444-3.991z"></path>
<path d="M12 26c0 2.209 1.791 4 4 4s4-1.791 4-4h-8z"></path>
</symbol>
<symbol id="icon-calendar" viewBox="0 0 32 32">
<title>calendar</title>
<path d="M28 28h-24v-18h24v18zM30 4h-4v-4h-6v4h-8v-4h-6v4h-4c-1.1 0-2 0.9-2 2v24c0 1.1 0.9 2 2 2h28c1.1 0 2-0.9 2-2v-24c0-1.1-0.9-2-2-2z"></path>
<path d="M12 14h-4v4h4v-4z"></path>
<path d="M18 14h-4v4h4v-4z"></path>
<path d="M12 20h-4v4h4v-4z"></path>
<path d="M18 20h-4v4h4v-4z"></path>
<path d="M24 14h-4v4h4v-4z"></path>
<path d="M24 20h-4v4h4v-4z"></path>
</symbol>
<symbol id="icon-Camera" viewBox="0 0 32 32">
<title>Camera</title>
<path d="M16 22c-2.55 0-4.5-1.95-4.5-4.5s1.95-4.5 4.5-4.5c2.55 0 4.5 1.95 4.5 4.5s-1.95 4.5-4.5 4.5zM26.5 10h-3.75l-2.55-3.9c-0.3-0.3-0.75-0.6-1.2-0.6h-6c-0.45 0-0.9 0.3-1.2 0.6l-2.55 3.9h-3.75c-0.9 0-1.5 0.6-1.5 1.5v13.5c0 0.9 0.6 1.5 1.5 1.5h21c0.9 0 1.5-0.6 1.5-1.5v-13.5c0-0.9-0.6-1.5-1.5-1.5z"></path>
</symbol>
<symbol id="icon-camera-retro" viewBox="0 0 32 32">
<title>camera-retro</title>
<path d="M5.167 4c-1.38 0-2.5 1.12-2.5 2.5v18.333c0 1.38 1.12 2.5 2.5 2.5h21.667c1.38 0 2.5-1.12 2.5-2.5v-18.333c0-1.38-1.12-2.5-2.5-2.5h-21.667zM5.167 5.667h5.521c0.172 0 0.313 0.141 0.313 0.313v1.042c0 0.172-0.141 0.313-0.313 0.313h-6.042c-0.172 0-0.313-0.141-0.313-0.313v-0.521c0-0.458 0.375-0.833 0.833-0.833zM27.354 10.667h-22.708c-0.172 0-0.313-0.141-0.313-0.313v-1.875c0-0.172 0.141-0.313 0.313-0.313h7.188l1.573-2.359c0.057-0.089 0.156-0.141 0.26-0.141h13.167c0.458 0 0.833 0.375 0.833 0.833v3.854c0 0.172-0.141 0.313-0.312 0.313zM16 24.417c-3.448 0-6.25-2.802-6.25-6.25s2.802-6.25 6.25-6.25 6.25 2.802 6.25 6.25c0 3.448-2.802 6.25-6.25 6.25zM16 13.583c-2.526 0-4.583 2.057-4.583 4.583s2.057 4.583 4.583 4.583 4.583-2.057 4.583-4.583c0-2.526-2.057-4.583-4.583-4.583zM13.5 19c-0.458 0-0.833-0.375-0.833-0.833 0-1.839 1.495-3.333 3.333-3.333 0.458 0 0.833 0.375 0.833 0.833s-0.375 0.833-0.833 0.833c-0.917 0-1.667 0.75-1.667 1.667 0 0.458-0.375 0.833-0.833 0.833z"></path>
</symbol>
<symbol id="icon-check" viewBox="0 0 32 32">
<title>check</title>
<path d="M11.2 16.8l-8-4.8-3.2 3.2 11.2 12.8 20.8-20.8-3.2-3.2-17.6 12.8z"></path>
</symbol>
<symbol id="icon-Close" viewBox="0 0 32 32">
<title>Close</title>
<path d="M29.4 2.6c-0.8-0.8-2-0.8-2.8 0l-10.6 10.6-10.6-10.6c-0.8-0.8-2-0.8-2.8 0s-0.8 2 0 2.8l10.6 10.6-10.6 10.6c-0.8 0.8-0.8 2 0 2.8 0.4 0.4 0.8 0.6 1.4 0.6s1-0.2 1.4-0.6l10.6-10.6 10.6 10.6c0.4 0.4 1 0.6 1.4 0.6s1-0.2 1.4-0.6c0.8-0.8 0.8-2 0-2.8l-10.6-10.6 10.6-10.6c0.8-0.8 0.8-2 0-2.8z"></path>
</symbol>
<symbol id="icon-Cloud" viewBox="0 0 32 32">
<title>Cloud</title>
<path d="M26.8 15.1c-0.8-5.2-5.4-9.1-10.8-9.1-4.7 0-8.8 2.9-10.3 7.2-3.4 0.9-5.7 3.8-5.7 7.3 0 3.9 3 7.2 7 7.5h19.1c3.3-0.3 5.9-3.2 5.9-6.5 0-3.1-2.2-5.7-5.2-6.4z"></path>
</symbol>
<symbol id="icon-Comment-Empty" viewBox="0 0 32 32">
<title>Comment-Empty</title>
<path d="M2.545 2c-1.398 0-2.545 1.13-2.545 2.506v10.023c0 1.375 1.148 2.506 2.545 2.506h1.068l0.023 4.295c0.001 0.151 0.050 0.298 0.141 0.42s0.219 0.212 0.365 0.258c0.146 0.046 0.304 0.045 0.45-0.002s0.273-0.139 0.362-0.262l3.409-4.709h2.545v4.653c0 1.376 1.148 2.506 2.545 2.506h10.182l3.409 4.709c0.090 0.123 0.216 0.215 0.362 0.262s0.303 0.048 0.45 0.002c0.146-0.046 0.274-0.136 0.365-0.258s0.14-0.269 0.141-0.42l0.023-4.295h1.068c1.398 0 2.545-1.13 2.545-2.506v-10.022c0-1.376-1.148-2.506-2.545-2.506h-8.364v-4.653c0-1.376-1.148-2.506-2.546-2.506h-16zM2.545 3.432h16c0.617 0 1.091 0.467 1.091 1.074v4.653h-6.182c-1.398 0-2.545 1.13-2.545 2.506v3.937h-2.92c-0.115-0.001-0.228 0.025-0.331 0.075s-0.192 0.124-0.26 0.215l-2.318 3.199-0.011-2.785c-0.003-0.188-0.081-0.367-0.217-0.499s-0.319-0.206-0.51-0.206h-1.795c-0.617 0-1.091-0.467-1.091-1.074v-10.023c0-0.607 0.474-1.074 1.091-1.074zM13.455 10.591h16c0.617 0 1.091 0.466 1.091 1.074v10.022c0 0.607-0.474 1.074-1.091 1.074h-1.796c-0.191 0-0.374 0.074-0.51 0.206s-0.214 0.311-0.217 0.499l-0.011 2.785-2.318-3.199c-0.068-0.091-0.157-0.165-0.26-0.215s-0.216-0.076-0.331-0.075h-10.557c-0.617 0-1.091-0.467-1.091-1.074v-10.022c0-0.608 0.474-1.074 1.091-1.074z"></path>
</symbol>
<symbol id="icon-Comment-Plus" viewBox="0 0 32 32">
<title>Comment-Plus</title>
<path d="M30 0h-28c-0.53 0-1.039 0.211-1.414 0.586s-0.586 0.884-0.586 1.414v20c0 0.53 0.211 1.039 0.586 1.414s0.884 0.586 1.414 0.586h6v8l12-8h10c0.53 0 1.039-0.211 1.414-0.586s0.586-0.884 0.586-1.414v-20c0-0.53-0.211-1.039-0.586-1.414s-0.884-0.586-1.414-0.586zM17 11h6c0.6 0 1 0.4 1 1s-0.4 1-1 1h-6v6c0 0.6-0.4 1-1 1s-1-0.4-1-1v-6h-6c-0.6 0-1-0.4-1-1s0.4-1 1-1h6v-6c0-0.6 0.4-1 1-1s1 0.4 1 1v6z"></path>
</symbol>
<symbol id="icon-Comment-Reg" viewBox="0 0 32 32">
<title>Comment-Reg</title>
<path d="M2 0h28c0.53 0 1.039 0.211 1.414 0.586s0.586 0.884 0.586 1.414v20c0 0.53-0.211 1.039-0.586 1.414s-0.884 0.586-1.414 0.586h-10l-12 8v-8h-6c-0.53 0-1.039-0.211-1.414-0.586s-0.586-0.884-0.586-1.414v-20c0-0.53 0.211-1.039 0.586-1.414s0.884-0.586 1.414-0.586v0z"></path>
</symbol>
<symbol id="icon-Data-Empty" viewBox="0 0 32 32">
<title>Data-Empty</title>
<path d="M30.887 18.829l-6.477-5.829h-16.821l-6.477 5.829-0.892-0.991 6.857-6.171h17.845l6.857 6.171-0.892 0.991z"></path>
<path d="M30 29.333h-28c-1.103 0-2-0.897-2-2v-9.667h10.667v0.667c0 1.654 1.346 3 3 3h4.667c1.654 0 3-1.346 3-3v-0.667h10.667v9.667c0 1.103-0.897 2-2 2zM1.333 19v8.333c0 0.368 0.299 0.667 0.667 0.667h28c0.368 0 0.667-0.299 0.667-0.667v-8.333h-8.051c-0.322 2.074-2.12 3.667-4.282 3.667h-4.667c-2.163 0-3.961-1.592-4.282-3.667h-8.051z"></path>
<path d="M11.896 6.309l-2.333-3.667-1.125 0.716 2.333 3.667 1.125-0.716z"></path>
<path d="M23.896 3.357l-1.125-0.716-2.333 3.667 1.125 0.716 2.333-3.667z"></path>
<path d="M16.667 2h-1.333v4.333h1.333v-4.333z"></path>
</symbol>
<symbol id="icon-Device" viewBox="0 0 32 32">
<title>Device</title>
<path d="M23.545 2h-13.091c-1.353 0-2.455 1.094-2.455 2.438v21.125c0 1.344 1.101 2.438 2.455 2.438h13.091c1.353 0 2.455-1.094 2.455-2.438v-21.125c0-1.344-1.101-2.438-2.455-2.438zM24.364 23.938c0 0.215-0.086 0.422-0.24 0.574s-0.362 0.238-0.579 0.238h-13.091c-0.217 0-0.425-0.086-0.579-0.238s-0.24-0.359-0.24-0.574v-17.875c0-0.215 0.086-0.422 0.24-0.575s0.362-0.238 0.579-0.238h13.091c0.217 0 0.425 0.086 0.579 0.238s0.24 0.359 0.24 0.575v17.875z"></path>
<path d="M11.273 19.875h11.454v3.25h-11.454v-3.25z"></path>
</symbol>
<symbol id="icon-Edit" viewBox="0 0 32 32">
<title>Edit</title>
<path d="M0 25.334v6.666h6.666l19.659-19.659-6.666-6.666-19.66 19.659zM31.48 7.186c0.693-0.693 0.693-1.813 0-2.506l-4.159-4.159c-0.693-0.693-1.813-0.693-2.506 0l-3.253 3.253 6.666 6.666 3.253-3.253z"></path>
</symbol>
<symbol id="icon-exit-full-screen" viewBox="0 0 32 32">
<title>exit-full-screen</title>
<path d="M8 0h4v10c0 1.2-0.8 2-2 2h-10v-4h8v-8z"></path>
<path d="M20 0h4v8h8v4h-10c-1.2 0-2-0.8-2-2v-10z"></path>
<path d="M22 20h10v4h-8v8h-4v-10c0-1.2 0.8-2 2-2z"></path>
<path d="M0 20h10c1.2 0 2 0.8 2 2v10h-4v-8h-8v-4z"></path>
</symbol>
<symbol id="icon-Facebook" viewBox="0 0 32 32">
<title>Facebook</title>
<path d="M22.912 10.485l-0.582 5.515h-4.409v16h-6.622v-16h-3.3v-5.515h3.3v-3.32c0-4.486 1.865-7.164 7.168-7.164h4.407v5.515h-2.758c-2.058 0-2.195 0.777-2.195 2.214v2.756h4.99z"></path>
</symbol>
<symbol id="icon-Female" viewBox="0 0 32 32">
<title>Female</title>
<path d="M8.076 2.097c-0.050 0.361-0.075 0.729-0.075 1.103 0 4.418 3.582 8 8 8s8-3.582 8-8c0-0.374-0.026-0.742-0.075-1.102-2.336-1.335-5.042-2.098-7.925-2.098s-5.588 0.762-7.924 2.097zM4.875 4.5c-3.006 2.909-4.875 6.986-4.875 11.5 0 8.837 7.163 16 16 16s16-7.163 16-16c0-4.513-1.868-8.59-4.874-11.498-0.584 5.045-4.521 9.069-9.525 9.785v3.313h4.8v3.2h-4.8v4.8h-3.2v-4.8h-4.8v-3.2h4.8v-3.313c-5.005-0.716-8.942-4.74-9.525-9.786z"></path>
</symbol>
<symbol id="icon-Flip-Image" viewBox="0 0 32 32">
<title>Flip-Image</title>
<path d="M10.337 27.604c0.228 0.238 0.532 0.396 0.912 0.396 0.304 0 0.684-0.158 0.912-0.396l3.496-3.802c0.456-0.554 0.456-1.347 0-1.822l-3.496-3.802c-0.456-0.554-1.292-0.554-1.824-0.079s-0.532 1.347-0.076 1.901l1.368 1.505h-5.777c-1.824 0-3.268-1.505-3.268-3.406s1.444-3.406 3.268-3.406h1.14c0.684 0 1.292-0.634 1.292-1.347s-0.608-1.347-1.292-1.347h-1.14c-3.192 0-5.853 2.693-5.853 6.099 0 3.327 2.584 6.099 5.853 6.099h5.777l-1.368 1.505c-0.456 0.554-0.38 1.426 0.076 1.901z"></path>
<path d="M26.173 12c-0.681 0-1.287 0.623-1.287 1.325s0.605 1.325 1.287 1.325c1.816 0 3.254 1.481 3.254 3.351s-1.438 3.351-3.254 3.351h-6.887c-0.681 0-1.286 0.623-1.286 1.325s0.605 1.325 1.286 1.325h6.887c3.178 0 5.827-2.649 5.827-6 0-3.273-2.573-6-5.827-6z"></path>
<path d="M11.142 15.852c0.639 0 1.207-0.592 1.207-1.259v-11.554l7.239 2.592v13.109c0 0.667 0.568 1.259 1.207 1.259s1.206-0.593 1.206-1.259v-14.072c0-0.518-0.355-1.037-0.781-1.185l-9.652-3.407c-0.355-0.148-0.781-0.074-1.065 0.148s-0.497 0.593-0.497 1.037v13.257c-0.071 0.741 0.497 1.333 1.136 1.333z"></path>
<path d="M20.801 26c-0.635 0-1.199 0.527-1.199 1.121v1.714l-8.536 0.923c-0.635 0.066-1.129 0.593-1.058 1.253 0.071 0.593 0.564 0.989 1.199 0.989h0.141l9.595-1.055c0.635-0.066 1.058-0.527 1.058-1.121v-2.703c0-0.593-0.564-1.121-1.199-1.121z"></path>
</symbol>
<symbol id="icon-fontsize" viewBox="0 0 32 32">
<title>fontsize</title>
<path d="M31.080 24.598c-0.338-0.073-0.635-0.184-0.891-0.329-0.339-0.201-0.6-0.415-0.783-0.639-0.184-0.226-0.334-0.474-0.454-0.752-0.714-1.688-1.578-3.816-2.594-6.386s-2.421-6.066-4.215-10.492h-2.746c-1.29 3.122-2.469 5.974-3.534 8.563-1.067 2.588-2.13 5.172-3.192 7.751-0.174 0.44-0.391 0.823-0.652 1.143-0.261 0.322-0.579 0.592-0.953 0.812-0.22 0.139-0.52 0.246-0.899 0.323s-0.721 0.126-1.023 0.145v1.073h7.991v-1.073c-1.035-0.092-1.775-0.241-2.218-0.448-0.445-0.205-0.666-0.457-0.666-0.75 0-0.092 0.016-0.252 0.049-0.483 0.030-0.228 0.134-0.601 0.309-1.113 0.137-0.395 0.299-0.845 0.488-1.35 0.145-0.387 0.276-0.727 0.4-1.038h6.957l1.545 3.765c0.064 0.154 0.103 0.279 0.116 0.37 0.014 0.092 0.022 0.175 0.022 0.248 0 0.212-0.334 0.387-1.002 0.53s-1.034 0.233-1.529 0.269v1.074h10.397v-1.073c-0.274-0.019-0.582-0.064-0.92-0.139zM21.597 17.469h-5.265l2.614-6.636 2.651 6.636z"></path>
<path d="M10.031 22.522l2.16-3.64c-0.711-1.726-1.657-3.988-2.836-6.787h-1.975c-0.928 2.16-1.777 4.137-2.544 5.929-0.768 1.791-1.533 3.58-2.297 5.365-0.125 0.304-0.281 0.568-0.469 0.792-0.188 0.222-0.416 0.409-0.686 0.56-0.158 0.096-0.374 0.17-0.648 0.225s-0.52 0.086-0.736 0.1v0.741h5.748v-0.742c-0.743-0.064-1.276-0.167-1.595-0.31s-0.479-0.315-0.479-0.52c0-0.063 0.012-0.174 0.036-0.333 0.021-0.159 0.095-0.415 0.221-0.771 0.098-0.273 0.215-0.586 0.351-0.935 0.035-0.090 0.241-0.595 0.524-1.286h4.547l0.677 1.61zM5.208 19.932c0.807-1.967 1.845-4.49 1.845-4.49l1.888 4.49h-3.733z"></path>
</symbol>
<symbol id="icon-fontsize-2plus" viewBox="0 0 66 32">
<title>fontsize-2plus</title>
<path d="M31.065 24.589c-0.338-0.073-0.635-0.183-0.891-0.329-0.339-0.201-0.6-0.415-0.782-0.639-0.184-0.226-0.334-0.474-0.454-0.751-0.714-1.687-1.578-3.814-2.593-6.383s-2.42-6.063-4.213-10.487h-2.745c-1.29 3.12-2.468 5.971-3.532 8.559-1.066 2.587-2.129 5.17-3.19 7.747-0.174 0.44-0.391 0.822-0.652 1.142-0.261 0.322-0.579 0.592-0.953 0.812-0.22 0.139-0.52 0.246-0.899 0.323s-0.72 0.126-1.023 0.145v1.072h7.987v-1.072c-1.034-0.092-1.774-0.241-2.217-0.448-0.445-0.205-0.666-0.456-0.666-0.749 0-0.092 0.016-0.252 0.049-0.483 0.030-0.228 0.134-0.6 0.309-1.113 0.137-0.395 0.299-0.844 0.487-1.35 0.144-0.387 0.275-0.726 0.4-1.038h6.953l1.544 3.763c0.063 0.154 0.103 0.279 0.115 0.37 0.014 0.092 0.022 0.175 0.022 0.248 0 0.212-0.334 0.387-1.002 0.529s-1.034 0.232-1.529 0.269v1.073h10.392v-1.072c-0.274-0.019-0.582-0.063-0.92-0.139zM21.586 17.463h-5.263l2.613-6.633 2.65 6.633z"></path>
<path d="M10.026 22.514l2.159-3.638c-0.711-1.726-1.656-3.987-2.834-6.783h-1.974c-0.928 2.159-1.776 4.135-2.543 5.927-0.767 1.79-1.532 3.578-2.295 5.363-0.125 0.303-0.281 0.568-0.469 0.792-0.188 0.222-0.416 0.409-0.686 0.56-0.158 0.096-0.373 0.17-0.647 0.225s-0.52 0.086-0.736 0.1v0.741h5.746v-0.742c-0.743-0.064-1.276-0.166-1.594-0.309s-0.479-0.315-0.479-0.52c0-0.063 0.012-0.174 0.036-0.333 0.021-0.159 0.095-0.415 0.221-0.771 0.098-0.273 0.215-0.586 0.351-0.935 0.035-0.090 0.24-0.594 0.524-1.286h4.545l0.677 1.61zM5.206 19.925c0.807-1.966 1.844-4.488 1.844-4.488l1.887 4.488h-3.731z"></path>
<path d="M47.787 15.71h-5.712v-5.712c0-0.571-0.381-0.952-0.952-0.952s-0.952 0.381-0.952 0.952v5.712h-5.712c-0.571 0-0.952 0.381-0.952 0.952s0.381 0.952 0.952 0.952h5.712v5.712c0 0.571 0.381 0.952 0.952 0.952s0.952-0.381 0.952-0.952v-5.712h5.712c0.571 0 0.952-0.381 0.952-0.952s-0.381-0.952-0.952-0.952z"></path>
<path d="M64.54 15.71h-5.712v-5.712c0-0.571-0.381-0.952-0.952-0.952s-0.952 0.381-0.952 0.952v5.712h-5.712c-0.571 0-0.952 0.381-0.952 0.952s0.381 0.952 0.952 0.952h5.712v5.712c0 0.571 0.381 0.952 0.952 0.952s0.952-0.381 0.952-0.952v-5.712h5.712c0.571 0 0.952-0.381 0.952-0.952s-0.381-0.952-0.952-0.952z"></path>
</symbol>
<symbol id="icon-fontsize-plus" viewBox="0 0 50 32">
<title>fontsize-plus</title>
<path d="M31.065 24.589c-0.338-0.073-0.635-0.183-0.891-0.329-0.339-0.201-0.6-0.415-0.782-0.639-0.184-0.226-0.334-0.474-0.454-0.751-0.714-1.687-1.578-3.814-2.593-6.383s-2.42-6.063-4.213-10.487h-2.745c-1.29 3.12-2.468 5.971-3.532 8.559-1.066 2.587-2.129 5.17-3.19 7.747-0.174 0.44-0.391 0.822-0.652 1.142-0.261 0.322-0.579 0.592-0.953 0.812-0.22 0.139-0.52 0.246-0.899 0.323s-0.72 0.126-1.023 0.145v1.072h7.987v-1.072c-1.034-0.092-1.774-0.241-2.217-0.448-0.445-0.205-0.666-0.456-0.666-0.749 0-0.092 0.016-0.252 0.049-0.483 0.030-0.228 0.134-0.6 0.309-1.113 0.137-0.395 0.299-0.844 0.487-1.35 0.144-0.387 0.275-0.726 0.4-1.038h6.953l1.544 3.763c0.063 0.154 0.103 0.279 0.115 0.37 0.014 0.092 0.022 0.175 0.022 0.248 0 0.212-0.334 0.387-1.002 0.529s-1.034 0.232-1.529 0.269v1.073h10.392v-1.072c-0.274-0.019-0.582-0.063-0.92-0.139zM21.586 17.463h-5.263l2.613-6.633 2.65 6.633z"></path>
<path d="M10.026 22.514l2.159-3.638c-0.711-1.726-1.656-3.987-2.834-6.783h-1.974c-0.928 2.159-1.776 4.135-2.543 5.927-0.767 1.79-1.532 3.578-2.295 5.363-0.125 0.303-0.281 0.568-0.469 0.792-0.188 0.222-0.416 0.409-0.686 0.56-0.158 0.096-0.373 0.17-0.647 0.225s-0.52 0.086-0.736 0.1v0.741h5.746v-0.742c-0.743-0.064-1.276-0.166-1.594-0.309s-0.479-0.315-0.479-0.52c0-0.063 0.012-0.174 0.036-0.333 0.021-0.159 0.095-0.415 0.221-0.771 0.098-0.273 0.215-0.586 0.351-0.935 0.035-0.090 0.24-0.594 0.524-1.286h4.545l0.677 1.61zM5.206 19.925c0.807-1.966 1.844-4.488 1.844-4.488l1.887 4.488h-3.731z"></path>
<path d="M47.787 15.71h-5.712v-5.712c0-0.571-0.381-0.952-0.952-0.952s-0.952 0.381-0.952 0.952v5.712h-5.712c-0.571 0-0.952 0.381-0.952 0.952s0.381 0.952 0.952 0.952h5.712v5.712c0 0.571 0.381 0.952 0.952 0.952s0.952-0.381 0.952-0.952v-5.712h5.712c0.571 0 0.952-0.381 0.952-0.952s-0.381-0.952-0.952-0.952z"></path>
</symbol>
<symbol id="icon-full-screen" viewBox="0 0 32 32">
<title>full-screen</title>
<path d="M4 12h-4v-10c0-1.2 0.8-2 2-2h10v4h-8v8z"></path>
<path d="M32 12h-4v-8h-8v-4h10c1.2 0 2 0.8 2 2v10z"></path>
<path d="M30 32h-10v-4h8v-8h4v10c0 1.2-0.8 2-2 2z"></path>
<path d="M12 32h-10c-1.2 0-2-0.8-2-2v-10h4v8h8v4z"></path>
</symbol>
<symbol id="icon-Hamburger-Menu" viewBox="0 0 32 32">
<title>Hamburger-Menu</title>
<path d="M30 14h-28c-1.2 0-2 0.8-2 2s0.8 2 2 2h28c1.2 0 2-0.8 2-2s-0.8-2-2-2z"></path>
<path d="M30 4h-28c-1.2 0-2 0.8-2 2s0.8 2 2 2h28c1.2 0 2-0.8 2-2s-0.8-2-2-2z"></path>
<path d="M30 24h-28c-1.2 0-2 0.8-2 2s0.8 2 2 2h28c1.2 0 2-0.8 2-2s-0.8-2-2-2z"></path>
</symbol>
<symbol id="icon-Heavy-Rain" viewBox="0 0 32 32">
<title>Heavy-Rain</title>
<path d="M22 29c0.6 0 1-0.4 1-1v-2h-2v2c0 0.6 0.5 1 1 1z"></path>
<path d="M16 32c0.6 0 1-0.4 1-1v-5h-2v5c0 0.6 0.5 1 1 1z"></path>
<path d="M10 29c0.6 0 1-0.4 1-1v-2h-2v2c0 0.6 0.5 1 1 1z"></path>
<path d="M8.9 6c-2.8 0.7-4.7 3.2-4.7 6.1 0.6-0.1 1.2-0.2 1.9-0.2 0.1 0 0.3 0 0.4 0 2.1-2.5 5.2-4 8.6-4 3.5 0 6.7 1.6 8.8 4.3 0.7-0.2 1.5-0.3 2.2-0.3 1.7 0 3.4 0.6 4.7 1.5 0-0.2 0-0.3 0-0.5 0-2.6-1.8-4.7-4.3-5.3-0.7-4.3-4.5-7.6-9-7.6-4 0-7.4 2.4-8.6 6z"></path>
<path d="M26 14c-1.1 0-2.1 0.3-3 0.8-1.5-2.9-4.6-4.8-8-4.8-3.1 0-5.9 1.6-7.6 4.2-0.5-0.1-0.9-0.2-1.4-0.2-3.3 0-6 2.7-6 6s2.7 6 6 6h3v-7c0-0.6 0.4-1 1-1s1 0.4 1 1v7h4v-5c0-0.6 0.4-1 1-1s1 0.4 1 1v5h4v-7c0-0.6 0.4-1 1-1s1 0.4 1 1v7h3c3.3 0 6-2.7 6-6s-2.7-6-6-6z"></path>
</symbol>
<symbol id="icon-Home" viewBox="0 0 32 32">
<title>Home</title>
<path d="M21.909 31.85h4c1.2 0 2-0.8 2-2v-14h2c0.6 0 1.2-0.2 1.6-0.6 0.8-0.8 0.6-2-0.2-2.8l-14-12c-0.8-0.6-1.8-0.6-2.6 0l-14 12c-0.8 0.8-1 2-0.2 2.8 0.2 0.4 0.8 0.6 1.4 0.6h2v14c0 1.2 0.8 2 2 2h4c1.2 0 2-0.8 2-2v-6h8v6c0 1.2 0.8 2 2 2z"></path>
</symbol>
<symbol id="icon-Info" viewBox="0 0 32 32">
<title>Info</title>
<path d="M9.881 15.168l-0.483 0.32c-0.095 0.063-0.177 0.144-0.241 0.239s-0.109 0.201-0.132 0.313c-0.023 0.112-0.023 0.227-0.002 0.34s0.065 0.219 0.128 0.314l0.058 0.090c0.185 0.282 0.566 0.32 0.822 0.387 0.217 0.012 0.432 0.049 0.639 0.112 0.37 0.128 0.685 0.378 0.892 0.71 0.32 0.55 0.112 1.229 0.035 1.549-0.684 2.81-1.385 5.616-2.056 8.432-0.56 2.346 0.767 4.026 3.198 4.026 2.696 0 5.116-0.89 7.329-2.394 0.153-0.106 0.289-0.236 0.403-0.384 0.435-0.573 0.269-1.011-0.432-1.171-0.205-0.048-0.416-0.083-0.617-0.138-1.333-0.362-1.679-0.96-1.353-2.291 0.694-2.832 1.404-5.661 2.082-8.496 0.454-1.878-0.412-3.421-2.145-3.84-0.472-0.106-0.955-0.158-1.439-0.154-0.598 0.025-1.194 0.089-1.784 0.192-0.38 0.070-0.726 0.15-1.046 0.237-0.615 0.166-1.219 0.369-1.81 0.608-0.449 0.181-0.892 0.378-1.327 0.592l-0.719 0.406zM18.233 0c-0.6-0.014-1.197 0.093-1.754 0.315s-1.065 0.553-1.492 0.975c-0.427 0.422-0.765 0.925-0.994 1.48s-0.344 1.151-0.338 1.751c-0.011 1.209 0.458 2.374 1.305 3.237s2.001 1.354 3.21 1.365c1.208 0.011 2.372-0.459 3.234-1.306s1.353-2.003 1.364-3.212c0.009-0.602-0.101-1.199-0.325-1.758s-0.556-1.067-0.978-1.495-0.925-0.769-1.48-1.001c-0.555-0.232-1.15-0.351-1.751-0.351z"></path>
</symbol>
<symbol id="icon-Infographic" viewBox="0 0 32 32">
<title>Infographic</title>
<path d="M18.275 17.050h-4.637c-0.613 0-1.137 0.525-1.137 1.137v10.5c0 0.613 0.525 1.138 1.137 1.138h4.637c0.613 0 1.137-0.525 1.137-1.138v-10.5c0.087-0.613-0.438-1.137-1.137-1.137z"></path>
<path d="M7.775 21.775h-4.638c-0.612 0-1.138 0.525-1.138 1.137v5.862c0 0.613 0.525 1.138 1.138 1.138h4.638c0.613 0 1.137-0.525 1.137-1.138v-5.862c0.088-0.612-0.438-1.137-1.138-1.137z"></path>
<path d="M28.775 12.413h-4.637c-0.613 0-1.138 0.525-1.138 1.137v15.137c0 0.613 0.525 1.138 1.138 1.138h4.637c0.612 0 1.137-0.525 1.137-1.138v-15.137c0.088-0.613-0.437-1.137-1.137-1.137z"></path>
<path d="M16.786 13.287l7.35-7.35v4.2h2.362v-7c0-0.612-0.525-1.137-1.137-1.137h-7v2.363h4.2l-6.475 6.475-3.85-3.85c-0.438-0.438-1.225-0.438-1.662 0l-5.862 5.862 1.663 1.662 4.988-4.987 3.85 3.85c0.438 0.35 1.138 0.35 1.575-0.088z"></path>
</symbol>
<symbol id="icon-Interactive" viewBox="0 0 32 32">
<title>Interactive</title>
<path d="M19.15 13.375c-0.175 0-0.35-0.088-0.525-0.175-0.438-0.262-0.525-0.787-0.175-1.225 0.613-0.875 0.963-1.925 0.963-2.975 0-2.888-2.363-5.25-5.25-5.25s-5.25 2.362-5.25 5.25c0 1.050 0.35 2.1 0.962 2.975 0.262 0.438 0.175 0.963-0.175 1.225-0.438 0.262-0.962 0.175-1.225-0.175-0.787-1.137-1.225-2.537-1.225-4.025 0-3.85 3.15-7 7-7s7 3.15 7 7c0 1.4-0.438 2.8-1.225 4.025-0.35 0.262-0.613 0.35-0.875 0.35z"></path>
<path d="M23.002 17.313l-7.088-1.313v-6.125c0-0.963-0.787-1.75-1.75-1.75s-1.75 0.787-1.75 1.75v11.375h-0.875v-2.625h-0.875c-0.963 0-1.75 0.788-1.75 1.75v2.537c0 1.225 0.438 2.363 1.137 3.238l2.363 2.975h11.375l1.4-8.838c0.175-1.4-0.787-2.712-2.187-2.975z"></path>
</symbol>
<symbol id="icon-laptop" viewBox="0 0 32 32">
<title>laptop</title>
<path d="M26.667 24c1.473 0 2.653-1.193 2.653-2.667l0.013-14.667c0-1.473-1.193-2.667-2.667-2.667h-21.333c-1.473 0-2.667 1.193-2.667 2.667v14.667c0 1.473 1.193 2.667 2.667 2.667h-5.333c0 1.473 1.193 2.667 2.667 2.667h26.667c1.473 0 2.667-1.193 2.667-2.667h-5.333zM5.333 6.667h21.333v14.667h-21.333v-14.667zM16 25.333c-0.733 0-1.333-0.6-1.333-1.333s0.6-1.333 1.333-1.333c0.733 0 1.333 0.6 1.333 1.333s-0.6 1.333-1.333 1.333z"></path>
</symbol>
<symbol id="icon-letter-E" viewBox="0 0 32 32">
<title>letter-E</title>
<path fill="#fff" style="fill: var(--color1, #fff)" d="M4 0h24v32h-24v-32z"></path>
<path fill="#9f224e" style="fill: var(--color2, #9f224e)" d="M10.783 7.811h15.652v-4.226h-20.87v24.83h20.87v-4.226h-15.652v-5.811h7.304v-4.755h-7.304v-5.811z"></path>
<path fill="#9f224e" style="fill: var(--color2, #9f224e)" d="M28.5 32c0.828 0 1.5-0.682 1.5-1.524v-28.952c0-0.842-0.672-1.524-1.5-1.524h-25c-0.829 0-1.5 0.682-1.5 1.524v28.952c0 0.842 0.671 1.524 1.5 1.524h25zM26.586 9.396h-14.238v2.642h5.89c0.864 0 1.414 0.765 1.414 1.64v4.755c0 0.875-0.55 1.529-1.414 1.529h-5.89v2.642h14.238c0.864 0 1.414 0.766 1.414 1.64v4.226c0 0.875-0.55 1.529-1.414 1.529h-20.869c-0.865 0-1.717-0.655-1.717-1.529v-24.83c0-0.875 0.852-1.64 1.717-1.64h20.869c0.864 0 1.414 0.765 1.414 1.64v4.226c0 0.875-0.55 1.529-1.414 1.529z"></path>
</symbol>
<symbol id="icon-letter-E-grey" viewBox="0 0 32 32">
<title>letter-E-grey</title>
<path fill="#fff" style="fill: var(--color1, #fff)" d="M4 0h24v32h-24v-32z"></path>
<path fill="#757575" style="fill: var(--color3, #757575)" d="M10.783 7.811h15.652v-4.226h-20.87v24.83h20.87v-4.226h-15.652v-5.811h7.304v-4.755h-7.304v-5.811z"></path>
<path fill="#757575" style="fill: var(--color3, #757575)" d="M28.5 32c0.828 0 1.5-0.682 1.5-1.524v-28.952c0-0.842-0.672-1.524-1.5-1.524h-25c-0.829 0-1.5 0.682-1.5 1.524v28.952c0 0.842 0.671 1.524 1.5 1.524h25zM26.586 9.396h-14.238v2.642h5.89c0.864 0 1.414 0.765 1.414 1.64v4.755c0 0.875-0.55 1.529-1.414 1.529h-5.89v2.642h14.238c0.864 0 1.414 0.766 1.414 1.64v4.226c0 0.875-0.55 1.529-1.414 1.529h-20.869c-0.865 0-1.717-0.655-1.717-1.529v-24.83c0-0.875 0.852-1.64 1.717-1.64h20.869c0.864 0 1.414 0.765 1.414 1.64v4.226c0 0.875-0.55 1.529-1.414 1.529z"></path>
</symbol>
<symbol id="icon-Link" viewBox="0 0 32 32">
<title>Link</title>
<path d="M9 32c-2.4 0-4.6-1-6.4-2.6-3.6-3.6-3.6-9.2 0-12.8l1.4-1.4 2.8 2.8-1.4 1.4c-2 2-2 5.2 0 7.2s5.2 2 7.2 0l6-6c2-2 2-5.2 0-7.2l-1.4-1.4 2.8-2.8 1.4 1.4c3.6 3.6 3.6 9.2 0 12.8l-6 6c-1.6 1.6-4 2.6-6.4 2.6z"></path>
<path d="M12 22.8l-1.4-1.4c-3.6-3.6-3.6-9.2 0-12.8l6-6c1.8-1.8 4-2.6 6.4-2.6s4.6 1 6.4 2.6c3.6 3.6 3.6 9.2 0 12.8l-1.4 1.4-2.8-2.8 1.4-1.4c2-2 2-5.2 0-7.2s-5.2-2-7.2 0l-6 6c-2 2-2 5.2 0 7.2l1.4 1.4-2.8 2.8z"></path>
</symbol>
<symbol id="icon-List" viewBox="0 0 32 32">
<title>List</title>
<path d="M8 8.25v-2.5c0-0.552 0.448-1 1-1h22c0.552 0 1 0.448 1 1v2.5c0 0.552-0.448 1-1 1h-22c-0.552 0-1-0.448-1-1zM9 19.25h22c0.552 0 1-0.448 1-1v-2.5c0-0.552-0.448-1-1-1h-22c-0.552 0-1 0.448-1 1v2.5c0 0.552 0.448 1 1 1zM9 29.25h22c0.552 0 1-0.448 1-1v-2.5c0-0.552-0.448-1-1-1h-22c-0.552 0-1 0.448-1 1v2.5c0 0.552 0.448 1 1 1zM1 10h4c0.552 0 1-0.448 1-1v-4c0-0.552-0.448-1-1-1h-4c-0.552 0-1 0.448-1 1v4c0 0.552 0.448 1 1 1zM1 20h4c0.552 0 1-0.448 1-1v-4c0-0.552-0.448-1-1-1h-4c-0.552 0-1 0.448-1 1v4c0 0.552 0.448 1 1 1zM1 30h4c0.552 0 1-0.448 1-1v-4c0-0.552-0.448-1-1-1h-4c-0.552 0-1 0.448-1 1v4c0 0.552 0.448 1 1 1z"></path>
</symbol>
<symbol id="icon-List-dot" viewBox="0 0 32 32">
<title>List-dot</title>
<path d="M11.429 2.286h20.571v2.286h-20.571v-2.286z"></path>
<path d="M11.429 6.857h20.571v2.286h-20.571v-2.286z"></path>
<path d="M11.429 22.857h20.571v2.286h-20.571v-2.286z"></path>
<path d="M11.429 27.429h20.571v2.286h-20.571v-2.286z"></path>
<path d="M3.429 2.286v0c1.894 0 3.429 1.535 3.429 3.429v0c0 1.894-1.535 3.429-3.429 3.429v0c-1.894 0-3.429-1.535-3.429-3.429v0c0-1.894 1.535-3.429 3.429-3.429z"></path>
<path d="M3.429 22.857v0c1.894 0 3.429 1.535 3.429 3.429v0c0 1.894-1.535 3.429-3.429 3.429v0c-1.894 0-3.429-1.535-3.429-3.429v0c0-1.894 1.535-3.429 3.429-3.429z"></path>
</symbol>
<symbol id="icon-List-number" viewBox="0 0 32 32">
<title>List-number</title>
<path d="M0.156 23.134c0-1.622 0.396-2.836 1.187-3.641 0.797-0.805 1.858-1.207 3.183-1.207 1.374 0 2.48 0.399 3.321 1.198 0.846 0.792 1.269 1.836 1.269 3.131 0 0.792-0.181 1.534-0.543 2.226-0.356 0.685-1.104 1.431-2.244 2.235-0.957 0.692-1.656 1.214-2.097 1.566-0.435 0.346-0.727 0.666-0.874 0.962h5.786v2.396h-9.143c0.018-1.207 0.276-2.22 0.773-3.037 0.503-0.817 1.37-1.688 2.603-2.613 1.441-1.075 2.318-1.839 2.631-2.292 0.319-0.453 0.478-0.959 0.478-1.519s-0.172-1.028-0.515-1.405c-0.337-0.377-0.797-0.566-1.38-0.566s-1.042 0.186-1.38 0.557c-0.331 0.371-0.497 1.041-0.497 2.009h-2.557z"></path>
<path d="M0 2.377h0.444c1.22 0 2.152-0.217 2.795-0.651s1-1.009 1.072-1.726h2.546v13.714h-3.109v-9.442h-3.748v-1.896z"></path>
<path d="M13.714 2.286h18.286v2.286h-18.286v-2.286z"></path>
<path d="M13.714 6.857h18.286v2.286h-18.286v-2.286z"></path>
<path d="M13.714 22.857h18.286v2.286h-18.286v-2.286z"></path>
<path d="M13.714 27.429h18.286v2.286h-18.286v-2.286z"></path>
</symbol>
<symbol id="icon-Mail" viewBox="0 0 32 32">
<title>Mail</title>
<path d="M17.416 18.605c-0.436 0.257-0.922 0.392-1.416 0.392s-0.981-0.135-1.416-0.392l-14.559-8.605c-0.005 0.045-0.024 0.086-0.024 0.132v18.764c0 0.293 0.105 0.574 0.293 0.781s0.442 0.323 0.707 0.323h30c0.265 0 0.52-0.116 0.707-0.323s0.293-0.488 0.293-0.781v-18.764c0-0.046-0.019-0.086-0.024-0.131l-14.56 8.604z"></path>
<path d="M31 4h-30c-0.265 0-0.52 0.123-0.707 0.341s-0.293 0.514-0.293 0.823v2.327c0 0.211 0.049 0.417 0.142 0.598s0.226 0.329 0.386 0.428l15 9.345c0.145 0.091 0.307 0.138 0.472 0.138s0.327-0.047 0.472-0.138l15-9.345c0.16-0.099 0.293-0.247 0.386-0.428s0.142-0.387 0.142-0.598v-2.327c0-0.309-0.105-0.605-0.293-0.823s-0.442-0.341-0.707-0.341z"></path>
</symbol>
<symbol id="icon-Male" viewBox="0 0 32 32">
<title>Male</title>
<path d="M16.527 32c8.592-0.278 15.473-7.333 15.473-15.996 0-8.839-7.163-16.004-16-16.004s-16 7.165-16 16.004c0 0.653 0.039 1.297 0.115 1.93 1.792-1.218 3.956-1.93 6.286-1.93 2.253 0 4.351 0.666 6.108 1.811l5.011-5.012h-4.137v-3.201h9.6v9.603h-3.2v-4.138l-4.864 4.865c1.673 1.957 2.683 4.498 2.683 7.275 0 1.715-0.385 3.34-1.074 4.793zM0.923 21.375c1.882 5.284 6.461 9.288 12.080 10.353 0.882-1.286 1.398-2.843 1.398-4.521 0-4.419-3.582-8.002-8-8.002-2.119 0-4.046 0.825-5.478 2.17z"></path>
</symbol>
<symbol id="icon-Minus" viewBox="0 0 32 32">
<title>Minus</title>
<path d="M26.5 14h-21c-0.9 0-1.5 0.8-1.5 2s0.6 2 1.5 2h21c0.9 0 1.5-0.8 1.5-2s-0.6-2-1.5-2z"></path>
</symbol>
<symbol id="icon-More-Cloud" viewBox="0 0 32 32">
<title>More-Cloud</title>
<path d="M6.5 14.9c2.1-2.5 5.2-4 8.6-4 3.5 0 6.7 1.6 8.8 4.3 0.7-0.2 1.5-0.3 2.2-0.3 1.7 0 3.4 0.6 4.7 1.5 0-0.2 0-0.3 0-0.5 0-2.6-1.8-4.7-4.3-5.3-0.7-4.3-4.5-7.6-9-7.6-3.9 0-7.3 2.4-8.6 6-2.8 0.7-4.7 3.2-4.7 6.1 0.6-0.1 1.2-0.2 1.9-0.2 0.1 0 0.2 0 0.4 0z"></path>
<path d="M26 17c-1.1 0-2.1 0.3-3 0.8-1.5-2.9-4.6-4.8-8-4.8-3.1 0-5.9 1.6-7.6 4.2-0.5-0.1-0.9-0.2-1.4-0.2-3.3 0-6 2.7-6 6s2.7 6 6 6h20c3.3 0 6-2.7 6-6s-2.7-6-6-6z"></path>
</symbol>
<symbol id="icon-New" viewBox="0 0 32 32">
<title>New</title>
<path d="M2 8c-1.105 0-2 0.895-2 2v10.4c0 1.105 0.895 2 2 2h28c1.105 0 2-0.895 2-2v-10.4c0-1.105-0.895-2-2-2h-28zM10.406 19.2h-2.189l-3.584-6.051c0.070 1.068 0.106 1.831 0.106 2.287v3.764h-1.539v-7.999h2.173l3.567 5.991c-0.055-1.040-0.084-1.774-0.084-2.205v-3.786h1.55v8zM17.127 19.2h-4.679v-7.999h4.679v1.389h-2.956v1.756h2.751v1.389h-2.751v2.063h2.956v1.401zM26.734 19.2h-1.961l-1.101-4.202c-0.079-0.29-0.347-1.534-0.378-1.871-0.047 0.418-0.28 1.522-0.372 1.882l-1.095 4.191h-1.956l-2.073-7.999h1.696l1.039 4.366c0.181 0.806 0.313 1.505 0.394 2.095 0.045-0.415 0.232-1.48 0.378-1.981l1.183-4.481h1.628l1.184 4.481c0.12 0.463 0.305 1.49 0.372 1.981 0.075-0.574 0.267-1.571 0.4-2.095l1.033-4.366h1.695l-2.066 7.999z"></path>
</symbol>
<symbol id="icon-New-Tab" viewBox="0 0 32 32">
<title>New-Tab</title>
<path d="M21.647 3.765c-1.040 0-1.883-0.843-1.883-1.883s0.843-1.882 1.883-1.882h8.471c1.039 0 1.882 0.844 1.882 1.882v8.471c0 1.039-0.843 1.882-1.882 1.882s-1.882-0.843-1.882-1.882v-3.927l-10.905 10.904c-0.735 0.735-1.927 0.735-2.662 0s-0.735-1.927 0-2.662l10.904-10.904h-3.927zM28.235 17.883c0-1.040 0.843-1.882 1.882-1.882s1.882 0.843 1.882 1.882v12.235c0 1.039-0.843 1.882-1.882 1.882h-28.235c-1.039 0-1.882-0.843-1.882-1.882v-28.235c0-1.039 0.843-1.882 1.882-1.882h12.235c1.040 0 1.883 0.843 1.883 1.882s-0.843 1.883-1.883 1.883h-10.352v24.47h24.47v-10.353z"></path>
</symbol>
<symbol id="icon-pause" viewBox="0 0 32 32">
<title>pause</title>
<path d="M10 2h-6c-1.2 0-2 0.8-2 2v24c0 1.2 0.8 2 2 2h6c1.2 0 2-0.8 2-2v-24c0-1.2-0.8-2-2-2z"></path>
<path d="M28 2h-6c-1.2 0-2 0.8-2 2v24c0 1.2 0.8 2 2 2h6c1.2 0 2-0.8 2-2v-24c0-1.2-0.8-2-2-2z"></path>
</symbol>
<symbol id="icon-Pin" viewBox="0 0 32 32">
<title>Pin</title>
<path d="M0.365 29.5l8.38-9.81 3.555 3.555-9.825 8.38c-0.28 0.234-0.635 0.359-1 0.35-0.284-0.006-0.561-0.092-0.798-0.249s-0.425-0.378-0.541-0.637c-0.116-0.259-0.157-0.547-0.116-0.828s0.16-0.545 0.345-0.761zM19.32 25.5c0.223 0.213 0.503 0.356 0.806 0.413s0.616 0.023 0.9-0.096c0.284-0.119 0.528-0.318 0.701-0.573s0.268-0.555 0.273-0.863v-5.415l8.905-5.4c0.241-0.14 0.451-0.328 0.615-0.554s0.279-0.483 0.338-0.755c0.059-0.273 0.060-0.555 0.003-0.828s-0.17-0.531-0.332-0.758l-10.185-10.17c-0.227-0.162-0.485-0.275-0.758-0.332s-0.555-0.055-0.828 0.003c-0.273 0.059-0.53 0.174-0.755 0.338s-0.414 0.374-0.554 0.615l-5.41 8.875h-5.41c-0.311 0.001-0.615 0.094-0.874 0.267s-0.461 0.418-0.581 0.704c-0.12 0.287-0.154 0.603-0.096 0.908s0.204 0.588 0.421 0.811l12.82 12.81z"></path>
</symbol>
<symbol id="icon-play-1" viewBox="0 0 32 32">
<title>play-1</title>
<path d="M27.2 14.4l-20-14c-1.4-1-3.2 0-3.2 1.6v28c0 1.6 1.8 2.6 3.2 1.6l20-14c1-0.8 1-2.4 0-3.2z"></path>
</symbol>
<symbol id="icon-Play-2" viewBox="0 0 32 32">
<title>Play-2</title>
<path fill="#fff" style="fill: var(--color1, #fff)" d="M6 6h20v20h-20v-20z"></path>
<path fill="#222" style="fill: var(--color4, #222)" d="M16 0c-8.823 0-16 7.177-16 16s7.177 16 16 16c8.823 0 16-7.177 16-16s-7.177-16-16-16zM22.987 16.436l-11.355 7.226c-0.078 0.049-0.168 0.077-0.26 0.080s-0.184-0.019-0.265-0.063c-0.081-0.045-0.149-0.11-0.196-0.19s-0.072-0.17-0.072-0.263v-14.452c0-0.093 0.025-0.183 0.072-0.263s0.115-0.145 0.196-0.19c0.081-0.045 0.173-0.066 0.265-0.063s0.182 0.031 0.261 0.080l11.355 7.226c0.073 0.047 0.133 0.111 0.174 0.188s0.063 0.161 0.063 0.248c0 0.087-0.022 0.172-0.063 0.248s-0.102 0.14-0.175 0.187z"></path>
</symbol>
<symbol id="icon-Plus" viewBox="0 0 32 32">
<title>Plus</title>
<path d="M30 14h-12v-12c0-1.2-0.8-2-2-2s-2 0.8-2 2v12h-12c-1.2 0-2 0.8-2 2s0.8 2 2 2h12v12c0 1.2 0.8 2 2 2s2-0.8 2-2v-12h12c1.2 0 2-0.8 2-2s-0.8-2-2-2z"></path>
</symbol>
<symbol id="icon-Quiz" viewBox="0 0 32 32">
<title>Quiz</title>
<path d="M18.556 9.574c0.641-0.639 1.516-0.892 2.347-0.767 0.003 0 0.004 0 0.007 0 0.29-0.028 0.555-0.148 0.794-0.315l-3.828-3.829c-0.885-0.884-2.319-0.884-3.204 0l-4.016 4.016c-0.158-0.243-0.269-0.508-0.298-0.797 0-0.003-0.002-0.006-0.002-0.009 0.137-0.901-0.14-1.852-0.832-2.545-1.159-1.159-3.039-1.159-4.198 0s-1.16 3.038 0 4.197c0.693 0.693 1.644 0.97 2.545 0.833 0.003 0.002 0.006 0.002 0.009 0.002 0.289 0.028 0.554 0.139 0.797 0.297l-4.017 4.016c-0.884 0.885-0.884 2.319 0 3.203l3.829 3.828c0.167-0.239 0.287-0.504 0.315-0.793 0-0.003 0-0.006 0.002-0.009-0.126-0.83 0.128-1.706 0.766-2.345 1.070-1.070 2.801-1.070 3.87-0.002 1.068 1.070 1.068 2.8 0 3.87-0.641 0.639-1.516 0.893-2.347 0.767-0.003 0-0.005 0.002-0.009 0.002-0.289 0.026-0.552 0.146-0.793 0.315l3.829 3.828c0.884 0.885 2.318 0.885 3.203 0l4.016-4.016c0.158 0.242 0.271 0.507 0.297 0.796 0 0.003 0.002 0.006 0.002 0.009-0.137 0.901 0.139 1.852 0.832 2.546 1.159 1.159 3.039 1.159 4.198 0 1.16-1.16 1.16-3.040 0-4.199-0.693-0.693-1.643-0.968-2.545-0.832-0.003 0-0.006-0.001-0.009-0.001-0.289-0.026-0.553-0.138-0.797-0.297l4.017-4.015c0.884-0.885 0.884-2.318 0-3.203l-3.829-3.829c-0.167 0.24-0.287 0.504-0.315 0.794 0 0.003 0 0.005 0 0.008 0.125 0.83-0.129 1.708-0.767 2.347-1.070 1.068-2.801 1.068-3.87 0-1.067-1.069-1.067-2.802 0.001-3.871z"></path>
</symbol>
<symbol id="icon-Quote" viewBox="0 0 32 32">
<title>Quote</title>
<path d="M8.062 26.175c-4.142 0-7.735-2.678-7.735-8.376 0-8.148 7.126-12.935 11.085-13.391l0.914 2.222c-2.314 1.425-4.264 3.875-4.081 5.299 2.619 0.171 6.883 1.539 6.883 6.838 0.061 4.046-2.375 7.408-7.065 7.408z"></path>
<path d="M24.607 26.175c-4.142 0-7.735-2.678-7.735-8.376 0-8.148 7.126-12.935 11.085-13.391l0.914 2.222c-2.314 1.425-4.263 3.875-4.081 5.299 2.619 0.171 6.883 1.539 6.883 6.838 0.061 4.046-2.375 7.408-7.065 7.408z"></path>
</symbol>
<symbol id="icon-Rain" viewBox="0 0 32 32">
<title>Rain</title>
<path d="M15 23v7c0 0.6 0.4 1 1 1s1-0.4 1-1v-7h-2z"></path>
<path d="M9 23v4c0 0.6 0.4 1 1 1s1-0.4 1-1v-4h-2z"></path>
<path d="M21 23v4c0 0.6 0.4 1 1 1s1-0.4 1-1v-4h-2z"></path>
<path d="M26.9 10.1c-0.9-5.2-5.4-9.1-10.9-9.1-4.6 0-8.7 2.9-10.4 7.2-3.3 0.8-5.6 3.8-5.6 7.3 0 3.9 3 7.1 7 7.5h2v-5c0-0.6 0.4-1 1-1s1 0.4 1 1v5h4v-3c0-0.6 0.4-1 1-1s1 0.4 1 1v3h4v-5c0-0.6 0.4-1 1-1s1 0.4 1 1v5h3.1c3.4-0.4 5.9-3.2 5.9-6.5 0-3.1-2.1-5.7-5.1-6.4z"></path>
</symbol>
<symbol id="icon-Rss" viewBox="0 0 32 32">
<title>Rss</title>
<path d="M10 26c0 1.4-0.8 2.7-2 3.5-1.2 0.7-2.8 0.7-4 0s-2-2-2-3.5c0-1.5 0.8-2.7 2-3.5 1.2-0.7 2.8-0.7 4 0s2 2 2 3.5z"></path>
<path d="M30 30h-5.4c0-12.4-10.2-22.6-22.6-22.6v-5.4c15.4 0 28 12.6 28 28z"></path>
<path d="M20.6 30h-5.2c0-7.4-6-13.4-13.4-13.4v-5.2c10.2 0 18.6 8.4 18.6 18.6z"></path>
</symbol>
<symbol id="icon-Save" viewBox="0 0 32 32">
<title>Save</title>
<path d="M9.333 0.005c-1.833 0-3.333-0.2-3.333 2v29.995l10-5.999 10 5.999v-29.995c0-2.2-1.5-2-3.333-2h-13.333z"></path>
</symbol>
<symbol id="icon-Save-1" viewBox="0 0 32 32">
<title>Save-1</title>
<path d="M16 23.669l8 4.799v-26.456c-0.036-0.002-0.075-0.004-0.117-0.006-0.226-0.009-0.443-0.007-0.715-0.004-0.147 0.001-0.311 0.003-0.501 0.003h-13.333c-0.19 0-0.353-0.001-0.501-0.003-0.272-0.002-0.489-0.004-0.715 0.004-0.042 0.002-0.081 0.004-0.117 0.006v26.456l8-4.799zM6 32v-29.995c0-2.027 1-2.002 2.909-2.002 0.139 0.001 0.28 0.002 0.424 0.002h13.333c0.144 0 0.285-0.001 0.424-0.002 1.635-0.014 2.909-0.025 2.909 2.002v29.995l-10-5.999-10 5.999z"></path>
</symbol>
<symbol id="icon-Search" viewBox="0 0 32 32">
<title>Search</title>
<path d="M14 28c-7.72 0-14-6.28-14-14s6.28-14 14-14c7.72 0 14 6.28 14 14s-6.28 14-14 14zM14 4c-5.514 0-10 4.486-10 10s4.486 10 10 10c5.514 0 10-4.486 10-10s-4.486-10-10-10z"></path>
<path d="M31.414 28.586l-4.786-4.786c-0.821 1.057-1.771 2.007-2.828 2.828l4.786 4.786c0.185 0.186 0.406 0.334 0.648 0.435s0.503 0.153 0.766 0.153 0.523-0.052 0.766-0.153c0.243-0.101 0.463-0.249 0.648-0.435s0.333-0.406 0.434-0.649 0.152-0.503 0.152-0.765c0-0.263-0.052-0.523-0.152-0.765s-0.248-0.463-0.434-0.649z"></path>
</symbol>
<symbol id="icon-Share" viewBox="0 0 32 32">
<title>Share</title>
<path d="M23.81 10.667h1.524c1.683 0 3.048 1.364 3.048 3.048v15.238c0 1.683-1.365 3.048-3.048 3.048h-18.286c-1.683 0-3.048-1.364-3.048-3.048v-15.238c0-1.683 1.364-3.048 3.048-3.048h1.524c0.842 0 1.524 0.682 1.524 1.524s-0.682 1.524-1.524 1.524h-1.524v15.238h18.286v-15.238h-1.524c-0.842 0-1.524-0.682-1.524-1.524s0.682-1.524 1.524-1.524zM15.033 0.533c0.279-0.326 0.694-0.533 1.158-0.533s0.878 0.207 1.158 0.533l4.23 4.23c0.595 0.595 0.595 1.56 0 2.155s-1.56 0.595-2.155 0l-1.709-1.709v14.6c0 0.842-0.682 1.524-1.524 1.524s-1.524-0.682-1.524-1.524v-14.6l-1.709 1.709c-0.595 0.595-1.56 0.595-2.155 0s-0.595-1.56 0-2.155l4.23-4.23z"></path>
</symbol>
<symbol id="icon-Slide-Show" viewBox="0 0 32 32">
<title>Slide-Show</title>
<path d="M3.81 32h16c0.689-0.001 1.358-0.241 1.897-0.682s0.915-1.056 1.069-1.744c-0.22 0.052-0.445 0.084-0.68 0.084h-16c-0.808 0-1.583-0.329-2.155-0.914s-0.893-1.38-0.893-2.208v-16.39c0-0.24 0.032-0.471 0.082-0.696-0.672 0.157-1.272 0.543-1.702 1.095s-0.665 1.237-0.666 1.943v16.39c0 0.828 0.321 1.622 0.893 2.208s1.347 0.914 2.155 0.914z"></path>
<path d="M8.381 27.317h16c0.689-0.001 1.358-0.241 1.897-0.682s0.915-1.055 1.069-1.744c-0.22 0.051-0.445 0.084-0.68 0.084h-16c-0.808 0-1.583-0.329-2.155-0.914s-0.893-1.38-0.893-2.208v-16.39c0-0.24 0.032-0.471 0.082-0.696-0.672 0.157-1.272 0.543-1.702 1.095s-0.665 1.237-0.666 1.943v16.39c0 0.828 0.321 1.622 0.893 2.207s1.347 0.914 2.155 0.914z"></path>
<path d="M9.905 3.122c0-0.828 0.321-1.622 0.893-2.208s1.347-0.914 2.155-0.914h16c0.808 0 1.583 0.329 2.155 0.914s0.893 1.38 0.893 2.208v16.39c0 0.828-0.321 1.622-0.893 2.208s-1.347 0.914-2.155 0.914h-16c-0.808 0-1.583-0.329-2.155-0.914s-0.893-1.38-0.893-2.208v-16.39z"></path>
</symbol>
<symbol id="icon-Smile" viewBox="0 0 32 32">
<title>Smile</title>
<path d="M16 32c-8.823 0-16-7.177-16-16s7.178-16 16-16c8.821 0 16 7.178 16 16s-7.178 16-15.999 16zM16 3.787c-6.735 0-12.214 5.479-12.214 12.214s5.479 12.214 12.214 12.214c6.735 0 12.213-5.479 12.213-12.214s-5.479-12.214-12.213-12.214z"></path>
<path d="M12.125 14.608c1.243 0 2.251-1.361 2.251-3.040s-1.008-3.040-2.251-3.040c-1.243 0-2.251 1.361-2.251 3.040s1.008 3.040 2.251 3.040z"></path>
<path d="M22.126 11.568c0 1.679-1.008 3.040-2.252 3.040-1.242 0-2.249-1.362-2.249-3.040s1.007-3.039 2.249-3.039c1.244 0 2.252 1.361 2.252 3.039z"></path>
<path d="M15.988 24.798c-5.198 0-7.447-3.619-7.54-3.773-0.529-0.875-0.249-2.013 0.626-2.543 0.867-0.524 1.996-0.254 2.53 0.607 0.078 0.119 1.366 2.008 4.384 2.008 3.067 0 4.396-1.99 4.409-2.011 0.542-0.867 1.685-1.13 2.551-0.589 0.868 0.543 1.131 1.685 0.589 2.552-0.096 0.153-2.402 3.751-7.55 3.751z"></path>
</symbol>
<symbol id="icon-sound" viewBox="0 0 32 32">
<title>sound</title>
<path d="M25.2 1.475c-0.5-0.2-1-0.2-1.4 0.1l-10.3 7.7h-6.2c-0.7 0-1.3 0.6-1.3 1.3v10.7c0 0.7 0.6 1.3 1.3 1.3h6.2l10.3 7.7c0.2 0.2 0.5 0.3 0.8 0.3 0.2 0 0.4 0 0.6-0.1 0.5-0.2 0.7-0.7 0.7-1.2v-26.6c0-0.5-0.2-1-0.7-1.2z"></path>
</symbol>
<symbol id="icon-sound-1" viewBox="0 0 32 32">
<title>sound-1</title>
<path d="M21.9 1.475c-0.5-0.2-1-0.2-1.4 0.1l-10.3 7.7h-6.2c-0.7 0-1.3 0.6-1.3 1.3v10.7c0 0.7 0.6 1.3 1.3 1.3h6.2l10.3 7.7c0.2 0.2 0.5 0.3 0.8 0.3 0.2 0 0.4 0 0.6-0.1 0.5-0.2 0.7-0.7 0.7-1.2v-26.6c0-0.5-0.3-1-0.7-1.2z"></path>
<path d="M26.9 10.275l-0.9-0.9-1.9 1.9 0.9 0.9c2.1 2.1 2.1 5.5 0 7.5l-0.9 0.9 1.9 1.9 0.9-0.9c3.2-3.1 3.2-8.1 0-11.3z"></path>
</symbol>
<symbol id="icon-sound-2" viewBox="0 0 32 32">
<title>sound-2</title>
<path d="M19.2 1.475c-0.5-0.2-1-0.2-1.4 0.1l-10.3 7.7h-6.2c-0.7 0-1.3 0.6-1.3 1.3v10.7c0 0.7 0.6 1.3 1.3 1.3h6.2l10.3 7.7c0.2 0.2 0.5 0.3 0.8 0.3 0.2 0 0.4 0 0.6-0.1 0.5-0.2 0.7-0.7 0.7-1.2v-26.6c0-0.5-0.2-1-0.7-1.2z"></path>
<path d="M24.3 10.275l-0.9-0.9-1.9 1.9 0.9 0.9c2.1 2.1 2.1 5.5 0 7.5l-0.9 0.9 1.9 1.9 0.9-0.9c3.1-3.1 3.1-8.1 0-11.3z"></path>
<path d="M27.1 5.575l-1.9 1.9 0.9 0.9c4.2 4.2 4.2 10.9 0 15.1l-0.9 0.9 1.9 1.9 0.9-0.9c5.2-5.2 5.2-13.7 0-18.9l-0.9-0.9z"></path>
</symbol>
<symbol id="icon-sound-mute" viewBox="0 0 32 32">
<title>sound-mute</title>
<path d="M13.975 23.575l9.1 6.8c0.2 0.2 0.5 0.3 0.8 0.3 0.2 0 0.4 0 0.6-0.1 0.5-0.2 0.7-0.7 0.7-1.2v-17l-11.2 11.2z"></path>
<path d="M2.575 22.675h6.7l16-16v-4c0-0.5-0.3-1-0.7-1.2-0.5-0.2-1-0.2-1.4 0.1l-10.3 7.7h-10.2c-0.7 0-1.3 0.6-1.3 1.3v10.7c-0.1 0.8 0.5 1.4 1.2 1.4z"></path>
<path d="M1.275 31.975c-0.3 0-0.7-0.1-0.9-0.4-0.5-0.5-0.5-1.4 0-1.9l29.3-29.3c0.5-0.5 1.4-0.5 1.9 0s0.5 1.4 0 1.9l-29.3 29.3c-0.3 0.3-0.7 0.4-1 0.4z"></path>
</symbol>
<symbol id="icon-speaker" viewBox="0 0 32 32">
<title>speaker</title>
<path d="M22.667 2.667h-13.333c-1.473 0-2.667 1.193-2.667 2.667v21.333c0 1.473 1.193 2.653 2.667 2.653l13.333 0.013c1.473 0 2.667-1.193 2.667-2.667v-21.333c0-1.473-1.193-2.667-2.667-2.667zM16 5.333c1.473 0 2.667 1.193 2.667 2.667s-1.193 2.667-2.667 2.667c-1.473 0-2.667-1.193-2.667-2.667s1.193-2.667 2.667-2.667zM16 26.667c-3.68 0-6.667-2.987-6.667-6.667s2.987-6.667 6.667-6.667c3.68 0 6.667 2.987 6.667 6.667s-2.987 6.667-6.667 6.667zM16 16c-2.207 0-4 1.793-4 4s1.793 4 4 4 4-1.793 4-4c0-2.207-1.793-4-4-4z"></path>
</symbol>
<symbol id="icon-Spinner" viewBox="0 0 32 32">
<title>Spinner</title>
<path d="M19 3c0 1.657-1.343 3-3 3s-3-1.343-3-3c0-1.657 1.343-3 3-3s3 1.343 3 3zM16 26c-1.657 0-3 1.343-3 3s1.343 3 3 3c1.657 0 3-1.343 3-3s-1.343-3-3-3zM29 13c-1.657 0-3 1.343-3 3s1.343 3 3 3c1.657 0 3-1.343 3-3s-1.343-3-3-3zM6 16c0-1.657-1.343-3-3-3s-3 1.343-3 3c0 1.657 1.343 3 3 3s3-1.343 3-3zM6.808 22.192c-1.657 0-3 1.343-3 3s1.343 3 3 3 3-1.343 3-3c0-1.657-1.343-3-3-3zM25.192 22.192c-1.657 0-3 1.343-3 3s1.343 3 3 3c1.657 0 3-1.343 3-3s-1.343-3-3-3zM6.808 3.808c-1.657 0-3 1.343-3 3s1.343 3 3 3c1.657 0 3-1.343 3-3s-1.343-3-3-3z"></path>
</symbol>
<symbol id="icon-star-left" viewBox="0 0 32 32">
<title>star-left</title>
<path d="M15.195 26.633c0.244-0.169 0.525-0.254 0.805-0.254v-26.379c-0.565 0-1.13 0.331-1.367 0.992l-3.098 8.669c-0.205 0.574-0.718 0.964-1.303 0.991l-8.836 0.404c-0.861 0.039-1.398 0.78-1.398 1.538 0 0.429 0.172 0.864 0.553 1.182l6.921 5.762c0.458 0.381 0.654 1.012 0.498 1.603l-2.363 8.919c-0.361 1.361 1.086 2.461 2.211 1.681l7.375-5.108z"></path>
</symbol>
<symbol id="icon-star-right" viewBox="0 0 32 32">
<title>star-right</title>
<path d="M16.805 26.633c-0.244-0.169-0.525-0.254-0.805-0.254v-26.379c0.565 0 1.13 0.331 1.367 0.992l3.097 8.669c0.205 0.574 0.718 0.964 1.303 0.991l8.836 0.404c0.861 0.039 1.398 0.78 1.398 1.538 0 0.429-0.172 0.864-0.553 1.182l-6.921 5.762c-0.458 0.381-0.654 1.012-0.498 1.603l2.363 8.919c0.361 1.361-1.086 2.461-2.211 1.681l-7.375-5.108z"></path>
</symbol>
<symbol id="icon-Sun-And-Rain" viewBox="0 0 32 32">
<title>Sun-And-Rain</title>
<path d="M16.3 8.7c0.9-1.1 2.3-1.7 3.7-1.7 2.8 0 5 2.2 5 5 0 0.6 0.4 1 1 1s1-0.4 1-1c0-3.9-3.1-7-7-7-2 0-3.9 0.9-5.2 2.3-0.4 0.4-0.3 1 0.1 1.4s1 0.4 1.4 0z"></path>
<path d="M26 14c-1.1 0-2.1 0.3-3 0.8-1.5-2.9-4.6-4.8-8-4.8-3.1 0-5.9 1.6-7.6 4.2-0.4-0.1-0.9-0.2-1.4-0.2-3.3 0-6 2.7-6 6s2.7 6 6 6h4v-4c0-0.6 0.4-1 1-1s1 0.4 1 1v4h3v-2c0-0.6 0.4-1 1-1s1 0.4 1 1v2h3v-4c0-0.6 0.4-1 1-1s1 0.4 1 1v4h4c3.3 0 6-2.7 6-6s-2.7-6-6-6z"></path>
<path d="M21 0h-2v3h2v-3z"></path>
<path d="M27.776 2.842l-2.121 2.122 1.414 1.414 2.121-2.122-1.414-1.414z"></path>
<path d="M32 11h-3v2h3v-2z"></path>
<path d="M12.258 2.811l-1.414 1.414 2.121 2.122 1.414-1.414-2.121-2.122z"></path>
<path d="M10 29c0 0.6 0.4 1 1 1s1-0.4 1-1v-3h-2v3z"></path>
<path d="M15 31c0 0.6 0.4 1 1 1s1-0.4 1-1v-5h-2v5z"></path>
<path d="M20 29c0 0.6 0.4 1 1 1s1-0.4 1-1v-3h-2v3z"></path>
</symbol>
<symbol id="icon-Sun-And-Storm" viewBox="0 0 32 32">
<title>Sun-And-Storm</title>
<path d="M16.3 8.7c0.9-1.1 2.3-1.7 3.7-1.7 2.8 0 5 2.2 5 5 0 0.6 0.4 1 1 1s1-0.4 1-1c0-3.9-3.1-7-7-7-2 0-3.9 0.9-5.2 2.3-0.4 0.4-0.3 1 0.1 1.4s1 0.4 1.4 0z"></path>
<path d="M21 0h-2v3h2v-3z"></path>
<path d="M27.772 2.843l-2.121 2.122 1.414 1.414 2.121-2.122-1.414-1.414z"></path>
<path d="M32 11h-3v2h3v-2z"></path>
<path d="M12.27 2.802l-1.414 1.414 2.121 2.122 1.414-1.414-2.121-2.122z"></path>
<path d="M26 14c-1.1 0-2.1 0.3-3 0.8-1.5-2.9-4.6-4.8-8-4.8-3.1 0-5.9 1.6-7.6 4.2-0.5-0.1-0.9-0.2-1.4-0.2-3.3 0-6 2.7-6 6 0 3.1 2.4 5.7 5.4 6v3c0 0.6 0.4 1 1 1s1-0.4 1-1v-3h0.8c-0.3-0.9-0.2-1.9 0.3-2.7l6-9c0.6-0.8 1.5-1.3 2.5-1.3 0.5 0 0.9 0.1 1.3 0.3 1.3 0.7 2 2.2 1.5 3.6l-0.7 2.1h1.8c1.1 0 2.1 0.6 2.6 1.6s0.5 2.2-0.1 3.1l-1.6 2.3h2.9v3c0 0.6 0.4 1 1 1s1-0.4 1-1v-3.1c2.9-0.4 5.2-2.9 5.2-5.9 0.1-3.3-2.6-6-5.9-6z"></path>
<path d="M21.9 21.5c-0.2-0.3-0.5-0.5-0.9-0.5h-4.6l1.6-4.7c0.2-0.5-0.1-1-0.5-1.2-0.5-0.2-1-0.1-1.3 0.3l-6 9c-0.2 0.3-0.2 0.7 0 1s0.5 0.5 0.9 0.5h4.6l-1.6 4.7c-0.2 0.5 0.1 1 0.5 1.2 0.1 0.1 0.3 0.1 0.4 0.1 0.3 0 0.6-0.2 0.8-0.4l6-9c0.2-0.3 0.3-0.6 0.1-1z"></path>
<path d="M10.4 28.2c-0.6 0-1 0.4-1 1v1.8c0 0.6 0.4 1 1 1s1-0.4 1-1v-1.8c0-0.5-0.4-1-1-1z"></path>
<path d="M21.8 28.2c-0.6 0-1 0.4-1 1v1.8c0 0.6 0.4 1 1 1s1-0.4 1-1v-1.8c0-0.5-0.4-1-1-1z"></path>
</symbol>
<symbol id="icon-Sun-And-Thunder" viewBox="0 0 32 32">
<title>Sun-And-Thunder</title>
<path d="M16.3 8.7c0.9-1.1 2.3-1.7 3.7-1.7 2.8 0 5 2.2 5 5 0 0.6 0.4 1 1 1s1-0.4 1-1c0-3.9-3.1-7-7-7-2 0-3.9 0.9-5.2 2.3-0.4 0.4-0.3 1 0.1 1.4s1 0.4 1.4 0z"></path>
<path d="M21 0h-2v3h2v-3z"></path>
<path d="M27.788 2.838l-2.121 2.122 1.414 1.414 2.121-2.122-1.414-1.414z"></path>
<path d="M32 11h-3v2h3v-2z"></path>
<path d="M12.26 2.815l-1.414 1.414 2.121 2.122 1.414-1.414-2.121-2.122z"></path>
<path d="M26 14c-1.1 0-2.1 0.3-3 0.8-1.5-2.9-4.6-4.8-8-4.8-3.1 0-5.9 1.6-7.6 4.2-0.5-0.1-0.9-0.2-1.4-0.2-3.3 0-6 2.7-6 6s2.7 6 6 6h2.2c-0.3-0.9-0.2-1.9 0.3-2.7l6-9c0.6-0.8 1.5-1.3 2.5-1.3 0.5 0 0.9 0.1 1.3 0.3 1.3 0.7 2 2.2 1.5 3.6l-0.7 2.1h1.8c1.1 0 2.1 0.6 2.6 1.6s0.5 2.2-0.1 3.1l-1.6 2.3h4.1c3.3 0 6-2.7 6-6 0.1-3.3-2.6-6-5.9-6z"></path>
<path d="M21.9 21.5c-0.2-0.3-0.5-0.5-0.9-0.5h-4.6l1.6-4.7c0.2-0.5-0.1-1-0.5-1.2-0.5-0.2-1-0.1-1.3 0.3l-6 9c-0.2 0.3-0.2 0.7-0.1 1 0.2 0.3 0.5 0.5 0.9 0.5h4.6l-1.6 4.7c-0.2 0.5 0.1 1 0.5 1.2 0.1 0.1 0.3 0.1 0.4 0.1 0.3 0 0.6-0.2 0.8-0.4l6-9c0.3-0.3 0.4-0.6 0.2-1z"></path>
</symbol>
<symbol id="icon-Sunny" viewBox="0 0 32 32">
<title>Sunny</title>
<path d="M4 15h-4v2h4v-2z"></path>
<path d="M5.393 3.98l-1.414 1.414 2.828 2.828 1.414-1.414-2.828-2.828z"></path>
<path d="M17 0h-2v4h2v-4z"></path>
<path d="M26.606 3.979l-2.828 2.828 1.414 1.414 2.828-2.828-1.414-1.414z"></path>
<path d="M32 15h-4v2h4v-2z"></path>
<path d="M25.193 23.779l-1.414 1.414 2.828 2.828 1.414-1.414-2.828-2.828z"></path>
<path d="M17 28h-2v4h2v-4z"></path>
<path d="M6.808 23.779l-2.828 2.828 1.414 1.414 2.828-2.828-1.414-1.414z"></path>
<path d="M16 7c-5 0-9 4-9 9s4 9 9 9c5 0 9-4 9-9s-4-9-9-9z"></path>
</symbol>
<symbol id="icon-sync" viewBox="0 0 32 32">
<title>sync</title>
<path d="M16 5.938c2.366 0 4.535 0.789 6.31 2.268l-4.535 4.535 12.225 1.085-1.084-12.225-3.845 3.845c-2.465-2.169-5.718-3.451-9.070-3.451-6.803 0-12.521 4.831-13.606 11.535l3.845 0.69c0.887-4.831 4.93-8.282 9.761-8.282z"></path>
<path d="M16 25.656c-2.366 0-4.535-0.789-6.31-2.268l4.535-4.535-12.225-1.085 1.084 12.226 3.845-3.845c2.465 2.169 5.718 3.451 9.070 3.451 6.803 0 12.521-4.831 13.606-11.535l-3.845-0.69c-0.789 4.831-4.93 8.282-9.761 8.282z"></path>
</symbol>
<symbol id="icon-Text-bold" viewBox="0 0 32 32">
<title>Text-bold</title>
<path d="M18 26.1h-4v-8h4c2.2 0 4 1.8 4 4 0 2.3-1.8 4-4 4zM14 6.1h2c2.2 0 4 1.8 4 4s-1.8 4-4 4h-2v-8zM23.1 14.8c1.9-1.4 3.1-3.8 2.8-6.4-0.4-3.6-3.7-6.2-7.3-6.2h-14.6v2l2.9 1.4c0.7 0.3 1.1 1 1.1 1.8v17.5c0 0.8-0.4 1.4-1.1 1.8l-2.9 1.4v2h15.6c4.2 0 8-3.1 8.3-7.3 0.4-3.6-1.7-6.7-4.8-8z"></path>
</symbol>
<symbol id="icon-Text-italic" viewBox="0 0 32 32">
<title>Text-italic</title>
<path d="M24 4.1v-4h-12v4h2.5c0.6 0 1.1 0.5 1 1.1l-3 21.1c-0.1 1-1 1.7-2 1.7h-2.5v4h12v-4h-2.5c-0.6 0-1.1-0.5-1-1.1l3-21.1c0.1-1 1-1.7 2-1.7h2.5z"></path>
</symbol>
<symbol id="icon-Text-underline" viewBox="0 0 32 32">
<title>Text-underline</title>
<path d="M32 28.012h-32v3.988h32v-3.988z"></path>
<path d="M30 0.1h-12v1.994l2.9 1.396c0.7 0.299 1.1 0.997 1.1 1.794v8.474c0 2.891-2 5.583-4.8 6.081-3.8 0.698-7.2-2.193-7.2-5.882v-8.773c0-0.798 0.4-1.495 1.1-1.794l2.9-1.396v-1.994h-12v1.994l2.9 1.396c0.7 0.299 1.1 0.997 1.1 1.794v8.274c0 5.184 3.8 9.869 9 10.368 6 0.598 11-4.087 11-9.969v-8.773c0-0.798 0.4-1.495 1.1-1.794l2.9-1.396v-1.794z"></path>
</symbol>
<symbol id="icon-Thumb-Down" viewBox="0 0 32 32">
<title>Thumb-Down</title>
<path d="M8.156 21h6.365v6c0 2.25 1.198 3 2.995 3 0.449 0 0.899-0.3 0.899-0.75 0 0 3.445-11.25 3.594-11.25v-12h-12.88c-1.947 0-3.594 1.5-3.894 3.45l-1.198 6.9c-0.15 1.2 0.15 2.4 0.899 3.15 0.749 1.050 2.022 1.5 3.22 1.5z"></path>
<path d="M25.005 18h2.995v-12h-2.995v12z"></path>
</symbol>
<symbol id="icon-Thumb-Up" viewBox="0 0 32 32">
<title>Thumb-Up</title>
<path d="M23.844 11h-6.365v-6c0-2.25-1.198-3-2.995-3-0.449 0-0.899 0.3-0.899 0.75 0 0-3.445 11.25-3.594 11.25v12h12.88c1.947 0 3.594-1.5 3.894-3.45l1.198-6.9c0.15-1.2-0.15-2.4-0.899-3.15-0.749-1.050-2.022-1.5-3.22-1.5z"></path>
<path d="M6.995 14h-2.995v12h2.995v-12z"></path>
</symbol>
<symbol id="icon-Thunder-Storm" viewBox="0 0 32 32">
<title>Thunder-Storm</title>
<path d="M25.919 14c-1.097 0-2.093 0.3-2.991 0.8-1.495-2.9-4.586-4.8-7.975-4.8-3.090 0-5.882 1.6-7.576 4.2-0.498-0.1-0.897-0.2-1.396-0.2-3.29 0-5.981 2.7-5.981 6s2.692 6 5.981 6h2.193c-0.299-0.9-0.199-1.9 0.299-2.7l5.981-9c0.598-0.8 1.495-1.3 2.492-1.3 0.498 0 0.897 0.1 1.296 0.3 1.296 0.7 1.994 2.2 1.495 3.6l-0.698 2.1h1.794c1.097 0 2.094 0.6 2.592 1.6s0.498 2.2-0.1 3.1l-1.396 2.3h4.087c3.29 0 5.981-2.7 5.981-6s-2.791-6-6.081-6z"></path>
<path d="M21.832 21.5c-0.199-0.3-0.498-0.5-0.897-0.5h-4.586l1.595-4.7c0.199-0.5-0.1-1-0.498-1.2-0.498-0.2-0.997-0.1-1.296 0.3l-5.981 9c-0.199 0.3-0.199 0.7-0.1 1 0.199 0.3 0.498 0.5 0.897 0.5h4.586l-1.595 4.7c-0.199 0.5 0.1 1 0.498 1.2 0.1 0.1 0.299 0.1 0.399 0.1 0.299 0 0.598-0.2 0.798-0.4l5.981-9c0.399-0.3 0.399-0.6 0.199-1z"></path>
<path d="M6.48 11.9c2.093-2.5 5.184-4 8.573-4 3.489 0 6.679 1.6 8.773 4.3 0.698-0.2 1.495-0.3 2.193-0.3 1.695 0 3.389 0.6 4.685 1.5 0-0.2 0-0.3 0-0.5 0-2.6-1.794-4.7-4.287-5.3-0.698-4.3-4.486-7.6-8.972-7.6-3.888 0-7.277 2.4-8.573 6-2.791 0.7-4.685 3.2-4.685 6.1 0.598-0.1 1.196-0.2 1.894-0.2 0.1 0 0.199 0 0.399 0z"></path>
</symbol>
<symbol id="icon-Thunder-Storm-And-Rain" viewBox="0 0 32 32">
<title>Thunder-Storm-And-Rain</title>
<path d="M32 20c0-3.3-2.7-6-6-6-1.1 0-2.1 0.3-3 0.8-1.5-2.9-4.6-4.8-8-4.8-3.1 0-5.9 1.6-7.6 4.2-0.5-0.1-0.9-0.2-1.4-0.2-3.3 0-6 2.7-6 6 0 3.1 2.4 5.7 5.4 6v3c0 0.6 0.4 1 1 1s1-0.4 1-1v-3h0.8c-0.3-0.9-0.2-1.9 0.3-2.7l6-9c0.6-0.8 1.5-1.3 2.5-1.3 0.5 0 0.9 0.1 1.3 0.3 1.3 0.7 2 2.2 1.5 3.6l-0.7 2.1h1.8c1.1 0 2.1 0.6 2.6 1.6s0.5 2.2-0.1 3.1l-1.4 2.3h2.9v3c0 0.6 0.4 1 1 1s1-0.4 1-1v-3.1c2.8-0.3 5.1-2.9 5.1-5.9z"></path>
<path d="M21.9 21.5c-0.2-0.3-0.5-0.5-0.9-0.5h-4.6l1.6-4.7c0.2-0.5-0.1-1-0.5-1.2-0.5-0.2-1-0.1-1.3 0.3l-6 9c-0.2 0.3-0.2 0.7-0.1 1 0.2 0.3 0.5 0.5 0.9 0.5h4.6l-1.6 4.7c-0.2 0.5 0.1 1 0.5 1.2 0.1 0.1 0.3 0.1 0.4 0.1 0.3 0 0.6-0.2 0.8-0.4l6-9c0.4-0.3 0.4-0.6 0.2-1z"></path>
<path d="M10.4 28.2c-0.6 0-1 0.4-1 1v1.8c0 0.6 0.4 1 1 1s1-0.4 1-1v-1.8c0-0.5-0.4-1-1-1z"></path>
<path d="M21.8 28.2c-0.6 0-1 0.4-1 1v1.8c0 0.6 0.4 1 1 1s1-0.4 1-1v-1.8c0-0.5-0.4-1-1-1z"></path>
<path d="M6 11.9c0.1 0 0.3 0 0.4 0 2.1-2.5 5.2-4 8.6-4 3.5 0 6.7 1.6 8.8 4.3 0.7-0.2 1.5-0.3 2.2-0.3 1.7 0 3.4 0.6 4.7 1.5 0-0.2 0-0.3 0-0.5 0-2.6-1.8-4.7-4.3-5.3-0.7-4.3-4.5-7.6-9-7.6-3.9 0-7.3 2.4-8.6 6-2.8 0.7-4.7 3.2-4.7 6.1 0.7-0.1 1.3-0.2 1.9-0.2z"></path>
</symbol>
<symbol id="icon-time" viewBox="0 0 32 32">
<title>time</title>
<path d="M16 0c-8.8 0-16 7.2-16 16s7.2 16 16 16c8.8 0 16-7.2 16-16s-7.2-16-16-16zM16 28c-6.6 0-12-5.4-12-12s5.4-12 12-12c6.6 0 12 5.4 12 12s-5.4 12-12 12z"></path>
<path d="M18 8h-4v10h10v-4h-6v-6z"></path>
</symbol>
<symbol id="icon-Trend" viewBox="0 0 32 32">
<title>Trend</title>
<path d="M24 6v3.2h2.56l-8.96 8.96-6.4-6.4-11.2 11.2 2.24 2.24 8.96-8.96 6.4 6.4 11.2-11.2v2.56h3.2v-8h-8z"></path>
</symbol>
<symbol id="icon-Twitter" viewBox="0 0 32 32">
<title>Twitter</title>
<path d="M32 6c-1.2 0.6-2.4 0.8-3.8 1 1.4-0.8 2.4-2 2.8-3.6-1.2 0.8-2.6 1.2-4.2 1.6-1.2-1.2-3-2-4.8-2-3.4 0-6.4 3-6.4 6.6 0 0.6 0 1 0.2 1.4-5.4-0.2-10.4-2.8-13.6-6.8-0.6 1-0.8 2-0.8 3.4 0 2.2 1.2 4.2 3 5.4-1 0-2-0.4-3-0.8 0 3.2 2.2 5.8 5.2 6.4-0.6 0.2-1.2 0.2-1.8 0.2-0.4 0-0.8 0-1.2-0.2 0.8 2.6 3.2 4.6 6.2 4.6-2.2 1.8-5 2.8-8.2 2.8h-1.6c3 1.8 6.4 3 10 3 12 0 18.6-10 18.6-18.6v-0.8c1.4-1 2.6-2.2 3.4-3.6z"></path>
</symbol>
<symbol id="icon-Upload" viewBox="0 0 32 32">
<title>Upload</title>
<path d="M14 6.8v17.2h4v-17.2l8 8 2.8-2.8-11.4-11.4c-0.8-0.8-2-0.8-2.8 0l-11.4 11.4 2.8 2.8 8-8z"></path>
<path d="M28 28h-24v-6h-4v8c0 1.2 0.8 2 2 2h28c1.2 0 2-0.8 2-2v-8h-4v6z"></path>
</symbol>
<symbol id="icon-User" viewBox="0 0 32 32">
<title>User</title>
<path d="M16 16c4.418 0 8-3.582 8-8s-3.582-8-8-8c-4.418 0-8 3.582-8 8s3.582 8 8 8z"></path>
<path d="M32 26.4c0.003-0.766-0.214-1.516-0.627-2.161s-1.002-1.157-1.699-1.475c-4.312-1.876-8.972-2.818-13.674-2.764-4.702-0.054-9.362 0.888-13.674 2.764-0.696 0.318-1.286 0.83-1.699 1.475s-0.63 1.395-0.627 2.161v5.6h32v-5.6z"></path>
</symbol>
<symbol id="icon-videogame" viewBox="0 0 32 32">
<title>videogame</title>
<path d="M28 8h-24c-1.467 0-2.667 1.2-2.667 2.667v10.667c0 1.467 1.2 2.667 2.667 2.667h24c1.467 0 2.667-1.2 2.667-2.667v-10.667c0-1.467-1.2-2.667-2.667-2.667zM14.667 17.333h-4v4h-2.667v-4h-4v-2.667h4v-4h2.667v4h4v2.667zM20.667 20c-1.107 0-2-0.893-2-2s0.893-2 2-2c1.107 0 2 0.893 2 2s-0.893 2-2 2zM26 16c-1.107 0-2-0.893-2-2s0.893-2 2-2c1.107 0 2 0.893 2 2s-0.893 2-2 2z"></path>
</symbol>
<symbol id="icon-Zoom" viewBox="0 0 32 32">
<title>Zoom</title>
<path d="M10.471 28.235c1.040 0 1.883 0.843 1.883 1.883s-0.843 1.882-1.883 1.882h-8.471c-1.039 0-1.882-0.844-1.882-1.882v-8.471c0-1.039 0.843-1.882 1.882-1.882s1.882 0.843 1.882 1.882v3.927l6.904-6.904c0.735-0.735 1.927-0.735 2.662 0s0.735 1.927 0 2.662l-6.904 6.904h3.927z"></path>
<path d="M21.647 3.883c-1.040 0-1.883-0.843-1.883-1.883s0.843-1.882 1.883-1.882h8.471c1.039 0 1.882 0.844 1.882 1.882v8.471c0 1.039-0.843 1.882-1.882 1.882s-1.882-0.843-1.882-1.882v-3.927l-6.905 6.904c-0.735 0.735-1.927 0.735-2.662 0s-0.735-1.927 0-2.662l6.904-6.904h-3.927z"></path>
</symbol>
</defs>
</svg>
